<?xml version="1.0" encoding="UTF-8"?>
<!DOCTYPE svg PUBLIC "-//W3C//DTD SVG 1.1//EN" "http://www.w3.org/Graphics/SVG/1.1/DTD/svg11.dtd">
<svg xmlns="http://www.w3.org/2000/svg" version="1.1" width="729px" height="726px" style="shape-rendering:geometricPrecision; text-rendering:geometricPrecision; image-rendering:optimizeQuality; fill-rule:evenodd; clip-rule:evenodd" xmlns:xlink="http://www.w3.org/1999/xlink">
<g><path style="opacity:1" fill="#fed10d" d="M 414.5,189.5 C 413.511,194.975 413.178,200.642 413.5,206.5C 412.624,206.631 411.957,206.298 411.5,205.5C 410.173,202.841 408.84,200.174 407.5,197.5C 406.035,198.609 405.035,198.109 404.5,196C 409.586,193.435 409.586,190.935 404.5,188.5C 403.147,189.685 401.98,191.019 401,192.5C 399.667,190.5 398.333,188.5 397,186.5C 395.045,191.775 394.212,191.442 394.5,185.5C 389.663,184.762 388.329,182.096 390.5,177.5C 389.252,174.93 388.252,172.263 387.5,169.5C 384.844,170.823 382.844,172.823 381.5,175.5C 380.167,178.833 378.833,182.167 377.5,185.5C 376.132,181.447 375.299,176.781 375,171.5C 374.57,177.718 373.07,178.051 370.5,172.5C 372.045,169.803 371.379,167.803 368.5,166.5C 367.218,170.331 367.385,174.331 369,178.5C 370.362,179.925 371.862,180.758 373.5,181C 372.167,182 372.167,183 373.5,184C 372.333,185.167 371.167,186.333 370,187.5C 369.316,188.784 369.483,189.951 370.5,191C 369.244,191.417 368.577,192.25 368.5,193.5C 366.833,190.833 365.167,188.167 363.5,185.5C 363.5,161.5 363.5,137.5 363.5,113.5C 355,115.335 349.167,112.335 346,104.5C 345.03,80.7701 345.364,57.1035 347,33.5C 348.873,31.2911 351.04,29.4578 353.5,28C 377.167,27.3333 400.833,27.3333 424.5,28C 428.058,29.8917 430.558,32.7251 432,36.5C 432.667,54.8333 432.667,73.1667 432,91.5C 426.333,97.1667 420.667,102.833 415,108.5C 414.5,135.498 414.333,162.498 414.5,189.5 Z M 379.5,59.5 C 386.09,59.189 392.59,59.5223 399,60.5C 399.667,66.8333 399.667,73.1667 399,79.5C 398.5,80 398,80.5 397.5,81C 391.5,81.6667 385.5,81.6667 379.5,81C 379,80.5 378.5,80 378,79.5C 376.962,72.6285 377.462,65.9618 379.5,59.5 Z"/></g>
<g><path style="opacity:1" fill="#fea60e" d="M 273.5,175.5 C 271.629,175.859 270.129,176.859 269,178.5C 267.667,177.167 266.333,175.833 265,174.5C 264.333,177.167 263.667,177.167 263,174.5C 262.333,177.167 261.667,177.167 261,174.5C 259.39,174.13 257.89,174.797 256.5,176.5C 255.833,175.833 255.167,175.167 254.5,174.5C 254.678,175.956 253.844,177.289 252,178.5C 251.311,177.643 250.478,176.977 249.5,176.5C 247.019,177.492 245.519,176.492 245,173.5C 244.585,175.291 243.585,176.624 242,177.5C 240.667,177.5 239.333,177.5 238,177.5C 236.26,176.284 235.26,174.618 235,172.5C 234.333,176.5 233.667,176.5 233,172.5C 232.333,175.167 231.667,175.167 231,172.5C 230.333,175.167 229.667,175.167 229,172.5C 228.667,173.167 228.333,173.833 228,174.5C 227.667,173.167 227.333,171.833 227,170.5C 226.801,172.402 225.967,173.902 224.5,175C 227,175.833 227.167,177 225,178.5C 223.203,175.904 221.869,176.237 221,179.5C 220.333,176.833 219.667,176.833 219,179.5C 218.138,177.913 217.471,176.246 217,174.5C 216.667,175.5 216.333,176.5 216,177.5C 215.529,175.754 214.862,174.087 214,172.5C 214.57,174.693 214.236,176.693 213,178.5C 211.388,178.048 210.388,176.715 210,174.5C 209.333,178.5 208.667,178.5 208,174.5C 207.8,176.32 206.966,177.653 205.5,178.5C 203.852,177.19 202.186,175.857 200.5,174.5C 199.338,169.869 199.172,165.202 200,160.5C 207.5,153 215,145.5 222.5,138C 227.167,137.333 231.833,137.333 236.5,138C 249.035,150.368 261.369,162.868 273.5,175.5 Z"/></g>
<g><path style="opacity:1" fill="#fa251d" d="M 553.5,198.5 C 552.041,198.433 550.708,198.766 549.5,199.5C 548.496,198.317 547.662,196.984 547,195.5C 546.667,196.167 546.333,196.833 546,197.5C 545.099,194.929 543.766,192.596 542,190.5C 541.667,191.167 541.333,191.833 541,192.5C 540.066,189.408 538.9,189.075 537.5,191.5C 538.545,193.205 539.878,194.705 541.5,196C 540.638,198.734 539.805,198.901 539,196.5C 538.641,199.544 537.974,199.878 537,197.5C 536.851,200.279 536.017,200.779 534.5,199C 535.668,197.594 535.335,196.428 533.5,195.5C 534.262,195.089 535.262,194.923 536.5,195C 536.056,191.89 536.056,188.556 536.5,185C 535.874,184.25 535.374,183.416 535,182.5C 533.783,183.386 532.449,184.386 531,185.5C 530.138,183.913 529.471,182.246 529,180.5C 528.667,181.833 528.333,183.167 528,184.5C 527.333,181.833 526.667,179.167 526,176.5C 525.529,178.246 524.862,179.913 524,181.5C 523.316,180.216 523.483,179.049 524.5,178C 522.65,176.155 522.317,174.155 523.5,172C 522.874,171.25 522.374,170.416 522,169.5C 521.395,171.481 520.395,171.815 519,170.5C 517.872,168.655 517.372,166.655 517.5,164.5C 518.506,163.604 518.506,162.938 517.5,162.5C 519.913,158.919 523.079,156.253 527,154.5C 530,155.833 533,155.833 536,154.5C 544.303,161.802 552.303,169.469 560,177.5C 560.829,182.533 560.662,187.533 559.5,192.5C 557.812,194.854 555.812,196.854 553.5,198.5 Z"/></g>
<g><path style="opacity:1" fill="#ff8e05" d="M 273.5,175.5 C 292.5,194.167 311.5,212.833 330.5,231.5C 326.795,233.783 323.295,236.45 320,239.5C 318.493,238.465 316.993,238.632 315.5,240C 316.056,240.383 316.389,240.883 316.5,241.5C 315.778,241.918 315.278,242.584 315,243.5C 314.692,242.692 314.192,242.025 313.5,241.5C 310.547,242.63 307.714,243.964 305,245.5C 303.605,244.185 302.605,244.519 302,246.5C 300.605,245.185 299.605,245.519 299,247.5C 298.667,246.833 298.333,246.167 298,245.5C 297.5,246.667 296.667,247.5 295.5,248C 296.967,249.098 297.801,250.598 298,252.5C 299.53,253.636 300.863,254.636 302,255.5C 302.974,253.122 303.641,253.456 304,256.5C 307.655,258.088 310.989,260.754 314,264.5C 315.117,264.335 316.284,264.002 317.5,263.5C 318.488,266.304 319.988,267.971 322,268.5C 322.333,267.833 322.667,267.167 323,266.5C 323.815,268.623 324.815,270.623 326,272.5C 327.682,271.135 327.849,269.635 326.5,268C 327.912,265.828 328.412,263.662 328,261.5C 328.87,262.108 329.37,262.941 329.5,264C 329.176,267.651 328.843,271.317 328.5,275C 329.749,276.824 330.915,276.657 332,274.5C 333.398,272.186 333.565,269.853 332.5,267.5C 332.808,266.692 333.308,266.025 334,265.5C 335.406,267.364 335.906,269.197 335.5,271C 333.376,273.408 333.543,275.908 336,278.5C 336.333,277.833 336.667,277.167 337,276.5C 337.667,277.833 338.333,279.167 339,280.5C 339.805,278.099 340.638,278.266 341.5,281C 340.944,281.383 340.611,281.883 340.5,282.5C 329.572,288.418 318.906,288.251 308.5,282C 273.965,247.632 239.632,213.132 205.5,178.5C 206.966,177.653 207.8,176.32 208,174.5C 208.667,178.5 209.333,178.5 210,174.5C 210.388,176.715 211.388,178.048 213,178.5C 214.236,176.693 214.57,174.693 214,172.5C 214.862,174.087 215.529,175.754 216,177.5C 216.333,176.5 216.667,175.5 217,174.5C 217.471,176.246 218.138,177.913 219,179.5C 219.667,176.833 220.333,176.833 221,179.5C 221.869,176.237 223.203,175.904 225,178.5C 227.167,177 227,175.833 224.5,175C 225.967,173.902 226.801,172.402 227,170.5C 227.333,171.833 227.667,173.167 228,174.5C 228.333,173.833 228.667,173.167 229,172.5C 229.667,175.167 230.333,175.167 231,172.5C 231.667,175.167 232.333,175.167 233,172.5C 233.667,176.5 234.333,176.5 235,172.5C 235.26,174.618 236.26,176.284 238,177.5C 239.333,177.5 240.667,177.5 242,177.5C 243.585,176.624 244.585,175.291 245,173.5C 245.519,176.492 247.019,177.492 249.5,176.5C 250.478,176.977 251.311,177.643 252,178.5C 253.844,177.289 254.678,175.956 254.5,174.5C 255.167,175.167 255.833,175.833 256.5,176.5C 257.89,174.797 259.39,174.13 261,174.5C 261.667,177.167 262.333,177.167 263,174.5C 263.667,177.167 264.333,177.167 265,174.5C 266.333,175.833 267.667,177.167 269,178.5C 270.129,176.859 271.629,175.859 273.5,175.5 Z"/></g>
<g><path style="opacity:0.992" fill="#e56133" d="M 517.5,162.5 C 518.506,162.938 518.506,163.604 517.5,164.5C 516.839,165.718 516.172,167.051 515.5,168.5C 514.914,168.291 514.414,167.957 514,167.5C 510.701,171.619 506.534,175.619 501.5,179.5C 501.167,179.5 500.833,179.5 500.5,179.5C 505.833,173.5 511.5,167.833 517.5,162.5 Z"/></g>
<g><path style="opacity:0.992" fill="#d81b18" d="M 500.5,179.5 C 500.833,179.5 501.167,179.5 501.5,179.5C 500.952,180.688 500.619,181.855 500.5,183C 503.167,184.333 503.167,185.667 500.5,187C 501.917,189.826 503.417,189.993 505,187.5C 505.5,188 506,188.5 506.5,189C 506.5,190.333 506.5,191.667 506.5,193C 508.123,195.08 509.623,197.246 511,199.5C 514.161,197.584 513.994,195.75 510.5,194C 511.749,192.176 512.915,192.343 514,194.5C 515.558,193.655 516.558,194.321 517,196.5C 517.333,195.833 517.667,195.167 518,194.5C 518.393,196.199 517.893,197.699 516.5,199C 518.785,202.01 519.951,205.177 520,208.5C 521.101,206.606 522.434,205.939 524,206.5C 525.385,205.449 526.385,204.116 527,202.5C 527.667,203.167 528.333,203.833 529,204.5C 529.893,203.289 530.726,203.289 531.5,204.5C 530.771,206.595 531.437,208.428 533.5,210C 532.076,212.101 530.742,214.267 529.5,216.5C 529.808,217.308 530.308,217.975 531,218.5C 532.833,216.667 534.667,214.833 536.5,213C 535.235,211.663 534.735,210.163 535,208.5C 536.309,210.891 537.309,210.891 538,208.5C 538.333,209.167 538.667,209.833 539,210.5C 540.646,208.945 540.979,207.279 540,205.5C 541.333,206.833 542.667,206.833 544,205.5C 544.333,204.5 544.667,203.5 545,202.5C 545.333,202.833 545.667,203.167 546,203.5C 547.044,202.377 547.71,201.044 548,199.5C 548.69,200.738 549.19,200.738 549.5,199.5C 550.708,198.766 552.041,198.433 553.5,198.5C 530.22,221.623 507.22,244.956 484.5,268.5C 483.404,266.897 482.07,265.397 480.5,264C 480.833,263.667 481.167,263.333 481.5,263C 479.368,262.082 478.701,260.749 479.5,259C 477.017,256.381 475.017,253.381 473.5,250C 474.634,248.984 474.301,248.317 472.5,248C 473.214,246.657 472.88,245.324 471.5,244C 472.634,242.984 472.301,242.317 470.5,242C 471.512,239.639 471.179,236.972 469.5,234C 469.635,223.995 472.301,214.162 477.5,204.5C 477.376,203.893 477.043,203.56 476.5,203.5C 484.167,195.167 492.167,187.167 500.5,179.5 Z"/></g>
<g><path style="opacity:0.992" fill="#e80f17" d="M 517.5,164.5 C 517.372,166.655 517.872,168.655 519,170.5C 520.395,171.815 521.395,171.481 522,169.5C 522.374,170.416 522.874,171.25 523.5,172C 522.317,174.155 522.65,176.155 524.5,178C 523.483,179.049 523.316,180.216 524,181.5C 524.862,179.913 525.529,178.246 526,176.5C 526.667,179.167 527.333,181.833 528,184.5C 528.333,183.167 528.667,181.833 529,180.5C 529.471,182.246 530.138,183.913 531,185.5C 532.449,184.386 533.783,183.386 535,182.5C 535.374,183.416 535.874,184.25 536.5,185C 536.056,188.556 536.056,191.89 536.5,195C 535.262,194.923 534.262,195.089 533.5,195.5C 535.335,196.428 535.668,197.594 534.5,199C 536.017,200.779 536.851,200.279 537,197.5C 537.974,199.878 538.641,199.544 539,196.5C 539.805,198.901 540.638,198.734 541.5,196C 539.878,194.705 538.545,193.205 537.5,191.5C 538.9,189.075 540.066,189.408 541,192.5C 541.333,191.833 541.667,191.167 542,190.5C 543.766,192.596 545.099,194.929 546,197.5C 546.333,196.833 546.667,196.167 547,195.5C 547.662,196.984 548.496,198.317 549.5,199.5C 549.19,200.738 548.69,200.738 548,199.5C 547.71,201.044 547.044,202.377 546,203.5C 545.667,203.167 545.333,202.833 545,202.5C 544.667,203.5 544.333,204.5 544,205.5C 542.667,206.833 541.333,206.833 540,205.5C 540.979,207.279 540.646,208.945 539,210.5C 538.667,209.833 538.333,209.167 538,208.5C 537.309,210.891 536.309,210.891 535,208.5C 534.735,210.163 535.235,211.663 536.5,213C 534.667,214.833 532.833,216.667 531,218.5C 530.308,217.975 529.808,217.308 529.5,216.5C 530.742,214.267 532.076,212.101 533.5,210C 531.437,208.428 530.771,206.595 531.5,204.5C 530.726,203.289 529.893,203.289 529,204.5C 528.333,203.833 527.667,203.167 527,202.5C 526.385,204.116 525.385,205.449 524,206.5C 522.434,205.939 521.101,206.606 520,208.5C 519.951,205.177 518.785,202.01 516.5,199C 517.893,197.699 518.393,196.199 518,194.5C 517.667,195.167 517.333,195.833 517,196.5C 516.558,194.321 515.558,193.655 514,194.5C 512.915,192.343 511.749,192.176 510.5,194C 513.994,195.75 514.161,197.584 511,199.5C 509.623,197.246 508.123,195.08 506.5,193C 506.5,191.667 506.5,190.333 506.5,189C 506,188.5 505.5,188 505,187.5C 503.417,189.993 501.917,189.826 500.5,187C 503.167,185.667 503.167,184.333 500.5,183C 500.619,181.855 500.952,180.688 501.5,179.5C 506.534,175.619 510.701,171.619 514,167.5C 514.414,167.957 514.914,168.291 515.5,168.5C 516.172,167.051 516.839,165.718 517.5,164.5 Z"/></g>
<g><path style="opacity:1" fill="#ffc400" d="M 413.5,206.5 C 413.789,212.245 413.289,217.912 412,223.5C 411.667,222.167 411.333,220.833 411,219.5C 410.221,221.807 410.721,223.807 412.5,225.5C 411.204,227.336 410.37,229.336 410,231.5C 409.667,230.833 409.333,230.167 409,229.5C 407.689,235.397 405.522,235.564 402.5,230C 403.414,226.757 404.081,223.757 404.5,221C 401.819,217.169 399.653,213.003 398,208.5C 395.667,208.5 393.333,208.5 391,208.5C 389.242,207.531 388.742,206.364 389.5,205C 388.809,203.933 388.309,202.766 388,201.5C 387.667,203.167 387.333,204.833 387,206.5C 386.691,205.234 386.191,204.067 385.5,203C 385.833,202.667 386.167,202.333 386.5,202C 385.256,201.544 384.423,202.044 384,203.5C 383.333,200.833 382.667,200.833 382,203.5C 381.16,200.536 380.16,200.203 379,202.5C 377.375,198.953 375.542,199.12 373.5,203C 374.833,204.667 376.167,206.333 377.5,208C 376.725,209.23 375.725,209.563 374.5,209C 372.477,207.571 371.143,205.571 370.5,203C 372.657,201.388 373.991,199.222 374.5,196.5C 373.229,196.874 372.062,196.208 371,194.5C 369.841,195.566 369.008,195.233 368.5,193.5C 368.577,192.25 369.244,191.417 370.5,191C 369.483,189.951 369.316,188.784 370,187.5C 371.167,186.333 372.333,185.167 373.5,184C 372.167,183 372.167,182 373.5,181C 371.862,180.758 370.362,179.925 369,178.5C 367.385,174.331 367.218,170.331 368.5,166.5C 371.379,167.803 372.045,169.803 370.5,172.5C 373.07,178.051 374.57,177.718 375,171.5C 375.299,176.781 376.132,181.447 377.5,185.5C 378.833,182.167 380.167,178.833 381.5,175.5C 382.844,172.823 384.844,170.823 387.5,169.5C 388.252,172.263 389.252,174.93 390.5,177.5C 388.329,182.096 389.663,184.762 394.5,185.5C 394.212,191.442 395.045,191.775 397,186.5C 398.333,188.5 399.667,190.5 401,192.5C 401.98,191.019 403.147,189.685 404.5,188.5C 409.586,190.935 409.586,193.435 404.5,196C 405.035,198.109 406.035,198.609 407.5,197.5C 408.84,200.174 410.173,202.841 411.5,205.5C 411.957,206.298 412.624,206.631 413.5,206.5 Z"/></g>
<g><path style="opacity:1" fill="#feb00e" d="M 363.5,185.5 C 365.167,188.167 366.833,190.833 368.5,193.5C 369.008,195.233 369.841,195.566 371,194.5C 372.062,196.208 373.229,196.874 374.5,196.5C 373.991,199.222 372.657,201.388 370.5,203C 371.143,205.571 372.477,207.571 374.5,209C 375.725,209.563 376.725,209.23 377.5,208C 376.167,206.333 374.833,204.667 373.5,203C 375.542,199.12 377.375,198.953 379,202.5C 380.16,200.203 381.16,200.536 382,203.5C 382.667,200.833 383.333,200.833 384,203.5C 384.423,202.044 385.256,201.544 386.5,202C 386.167,202.333 385.833,202.667 385.5,203C 386.191,204.067 386.691,205.234 387,206.5C 387.333,204.833 387.667,203.167 388,201.5C 388.309,202.766 388.809,203.933 389.5,205C 388.742,206.364 389.242,207.531 391,208.5C 393.333,208.5 395.667,208.5 398,208.5C 399.653,213.003 401.819,217.169 404.5,221C 404.081,223.757 403.414,226.757 402.5,230C 405.522,235.564 407.689,235.397 409,229.5C 409.333,230.167 409.667,230.833 410,231.5C 410.37,229.336 411.204,227.336 412.5,225.5C 410.721,223.807 410.221,221.807 411,219.5C 411.333,220.833 411.667,222.167 412,223.5C 413.289,217.912 413.789,212.245 413.5,206.5C 413.178,200.642 413.511,194.975 414.5,189.5C 414.667,206.17 414.5,222.837 414,239.5C 411.738,246.752 407.571,252.585 401.5,257C 386.927,263.455 372.26,269.622 357.5,275.5C 357.005,273.518 356.505,271.518 356,269.5C 355.667,270.833 355.333,272.167 355,273.5C 354.587,270.157 353.087,266.99 350.5,264C 348.209,264.811 346.375,263.977 345,261.5C 343.176,262.749 343.343,263.915 345.5,265C 343.797,266.548 342.797,265.882 342.5,263C 343.923,261.588 343.756,260.421 342,259.5C 341.667,259.833 341.333,260.167 341,260.5C 340.535,259.069 339.701,257.903 338.5,257C 339.167,256.667 339.833,256.333 340.5,256C 338,254.833 336.167,253 335,250.5C 334.047,252.455 332.713,254.122 331,255.5C 330.959,253.284 330.792,251.118 330.5,249C 329.004,248.493 327.837,248.993 327,250.5C 326.215,248.714 325.049,247.214 323.5,246C 324.784,244.703 324.617,243.536 323,242.5C 321.667,243.167 320.667,244.167 320,245.5C 318.513,244.747 318.346,243.914 319.5,243C 318.756,241.961 317.756,241.461 316.5,241.5C 316.389,240.883 316.056,240.383 315.5,240C 316.993,238.632 318.493,238.465 320,239.5C 323.295,236.45 326.795,233.783 330.5,231.5C 341.201,226.738 352.034,222.072 363,217.5C 363.5,206.839 363.667,196.172 363.5,185.5 Z"/></g>
<g><path style="opacity:1" fill="#ff221e" d="M 476.5,203.5 C 477.043,203.56 477.376,203.893 477.5,204.5C 472.301,214.162 469.635,223.995 469.5,234C 471.179,236.972 471.512,239.639 470.5,242C 472.301,242.317 472.634,242.984 471.5,244C 472.88,245.324 473.214,246.657 472.5,248C 474.301,248.317 474.634,248.984 473.5,250C 475.017,253.381 477.017,256.381 479.5,259C 478.701,260.749 479.368,262.082 481.5,263C 481.167,263.333 480.833,263.667 480.5,264C 482.07,265.397 483.404,266.897 484.5,268.5C 489.021,278.723 493.354,289.056 497.5,299.5C 538.495,300.5 579.495,300.833 620.5,300.5C 619.065,292.872 621.732,287.372 628.5,284C 651.833,283.333 675.167,283.333 698.5,284C 702.333,285.167 704.833,287.667 706,291.5C 706.667,310.5 706.667,329.5 706,348.5C 698.833,355.667 691.667,362.833 684.5,370C 666.5,370.667 648.5,370.667 630.5,370C 621.894,367.297 618.561,361.464 620.5,352.5C 572.832,352.667 525.166,352.5 477.5,352C 467.206,349.441 460.039,343.274 456,333.5C 447.667,313.5 439.333,293.5 431,273.5C 427.441,263.183 428.775,253.516 435,244.5C 448.701,230.631 462.535,216.965 476.5,203.5 Z M 654.5,315.5 C 660.509,315.334 666.509,315.501 672.5,316C 673,316.5 673.5,317 674,317.5C 674.667,323.167 674.667,328.833 674,334.5C 673.167,335.333 672.333,336.167 671.5,337C 665.251,337.809 659.084,337.642 653,336.5C 652.333,330.167 652.333,323.833 653,317.5C 653.717,316.956 654.217,316.289 654.5,315.5 Z"/></g>
<g><path style="opacity:1" fill="#ff9d03" d="M 316.5,241.5 C 317.756,241.461 318.756,241.961 319.5,243C 318.346,243.914 318.513,244.747 320,245.5C 320.667,244.167 321.667,243.167 323,242.5C 324.617,243.536 324.784,244.703 323.5,246C 325.049,247.214 326.215,248.714 327,250.5C 327.837,248.993 329.004,248.493 330.5,249C 330.792,251.118 330.959,253.284 331,255.5C 332.713,254.122 334.047,252.455 335,250.5C 336.167,253 338,254.833 340.5,256C 339.833,256.333 339.167,256.667 338.5,257C 339.701,257.903 340.535,259.069 341,260.5C 341.333,260.167 341.667,259.833 342,259.5C 343.756,260.421 343.923,261.588 342.5,263C 342.797,265.882 343.797,266.548 345.5,265C 343.343,263.915 343.176,262.749 345,261.5C 346.375,263.977 348.209,264.811 350.5,264C 353.087,266.99 354.587,270.157 355,273.5C 355.333,272.167 355.667,270.833 356,269.5C 356.505,271.518 357.005,273.518 357.5,275.5C 351.952,278.107 346.285,280.44 340.5,282.5C 340.611,281.883 340.944,281.383 341.5,281C 340.638,278.266 339.805,278.099 339,280.5C 338.333,279.167 337.667,277.833 337,276.5C 336.667,277.167 336.333,277.833 336,278.5C 333.543,275.908 333.376,273.408 335.5,271C 335.906,269.197 335.406,267.364 334,265.5C 333.308,266.025 332.808,266.692 332.5,267.5C 333.565,269.853 333.398,272.186 332,274.5C 330.915,276.657 329.749,276.824 328.5,275C 328.843,271.317 329.176,267.651 329.5,264C 329.37,262.941 328.87,262.108 328,261.5C 328.412,263.662 327.912,265.828 326.5,268C 327.849,269.635 327.682,271.135 326,272.5C 324.815,270.623 323.815,268.623 323,266.5C 322.667,267.167 322.333,267.833 322,268.5C 319.988,267.971 318.488,266.304 317.5,263.5C 316.284,264.002 315.117,264.335 314,264.5C 310.989,260.754 307.655,258.088 304,256.5C 303.641,253.456 302.974,253.122 302,255.5C 300.863,254.636 299.53,253.636 298,252.5C 297.801,250.598 296.967,249.098 295.5,248C 296.667,247.5 297.5,246.667 298,245.5C 298.333,246.167 298.667,246.833 299,247.5C 299.605,245.519 300.605,245.185 302,246.5C 302.605,244.519 303.605,244.185 305,245.5C 307.714,243.964 310.547,242.63 313.5,241.5C 314.192,242.025 314.692,242.692 315,243.5C 315.278,242.584 315.778,241.918 316.5,241.5 Z"/></g>
<g><path style="opacity:1" fill="#1684a4" d="M 422.5,294.5 C 421.603,295.598 420.77,295.598 420,294.5C 419.333,297.167 418.667,297.167 418,294.5C 417.333,297.167 416.667,297.167 416,294.5C 415.333,299.833 414.667,299.833 414,294.5C 413.667,296.5 413.333,298.5 413,300.5C 412.503,297.854 412.336,295.187 412.5,292.5C 411.325,292.281 410.325,292.614 409.5,293.5C 408.703,295.132 407.703,296.632 406.5,298C 406.645,298.772 406.978,299.439 407.5,300C 405.667,300.5 404.5,301.667 404,303.5C 403.667,302.833 403.333,302.167 403,301.5C 402.5,302.667 401.667,303.5 400.5,304C 402.946,305.483 402.612,306.649 399.5,307.5C 398.702,305.922 398.202,304.256 398,302.5C 397.19,304.306 396.024,305.806 394.5,307C 394.905,307.945 395.572,308.612 396.5,309C 395.809,310.067 395.309,311.234 395,312.5C 394.333,308.5 393.667,308.5 393,312.5C 392.346,311.304 391.846,311.304 391.5,312.5C 392.602,313.176 393.602,313.842 394.5,314.5C 388.08,316.14 381.913,318.474 376,321.5C 376.096,324.967 376.93,328.3 378.5,331.5C 377.542,331.047 376.708,330.381 376,329.5C 374.984,330.634 374.317,330.301 374,328.5C 373.667,329.167 373.333,329.833 373,330.5C 371.705,326.916 370.205,326.75 368.5,330C 370.961,331.982 371.461,334.149 370,336.5C 369.138,334.913 368.471,333.246 368,331.5C 367.138,333.087 366.471,334.754 366,336.5C 365.667,335.167 365.333,333.833 365,332.5C 364.333,334.5 363.667,336.5 363,338.5C 361.846,336.043 360.512,336.043 359,338.5C 358.817,340.448 359.317,341.948 360.5,343C 360.149,346.104 359.649,345.937 359,342.5C 358.667,344.5 358.333,346.5 358,348.5C 357.667,347.167 357.333,345.833 357,344.5C 356,346.167 355,347.833 354,349.5C 353.667,348.833 353.333,348.167 353,347.5C 352.722,348.416 352.222,349.082 351.5,349.5C 346.347,337.016 341.014,324.516 335.5,312C 336.718,302.616 342.051,297.449 351.5,296.5C 354.305,297.741 356.471,299.741 358,302.5C 360.641,297.967 364.141,293.634 368.5,289.5C 380.742,284.139 393.242,279.139 406,274.5C 410.013,274.856 413.347,276.523 416,279.5C 418.466,284.406 420.632,289.406 422.5,294.5 Z"/></g>
<g><path style="opacity:0.996" fill="#68bb4f" d="M 60.5,283.5 C 70.5056,283.334 80.5056,283.5 90.5,284C 97.2685,287.372 99.9351,292.872 98.5,300.5C 102.634,301.485 106.968,301.818 111.5,301.5C 110.841,304.408 110.007,304.742 109,302.5C 107.683,303.68 107.516,305.18 108.5,307C 108.294,308.865 107.628,310.532 106.5,312C 106.944,313.762 107.444,313.595 108,311.5C 108.374,312.416 108.874,313.25 109.5,314C 108.5,316.333 107.5,318.667 106.5,321C 107.38,322.356 107.714,323.856 107.5,325.5C 105.767,324.992 105.434,324.159 106.5,323C 105.239,319.982 103.905,320.148 102.5,323.5C 104.647,326.001 104.647,328.668 102.5,331.5C 105.677,334.542 107.177,338.209 107,342.5C 106.333,341.167 105.667,339.833 105,338.5C 103.574,342.024 103.074,345.524 103.5,349C 104,349.5 104.5,350 105,350.5C 106.202,348.447 106.536,346.447 106,344.5C 106.87,345.108 107.37,345.941 107.5,347C 107.011,348.564 106.678,350.064 106.5,351.5C 101.968,351.182 97.6344,351.515 93.5,352.5C 88.0362,358.465 82.3696,364.298 76.5,370C 58.3286,370.829 40.3286,370.662 22.5,369.5C 33.1667,369.5 43.8333,369.5 54.5,369.5C 57.1873,369.664 59.854,369.497 62.5,369C 59.7901,366.649 60.1235,364.649 63.5,363C 62.6433,362.311 61.9767,361.478 61.5,360.5C 61.6938,358.93 61.6938,357.43 61.5,356C 60.8333,355.333 60.1667,354.667 59.5,354C 59.1304,352.39 59.7971,350.89 61.5,349.5C 60.2655,347.602 60.5989,345.935 62.5,344.5C 60.5077,342.809 59.5077,340.975 59.5,339C 58.2068,338.51 56.8734,338.343 55.5,338.5C 52.2869,338.81 49.2869,338.477 46.5,337.5C 52.1764,337.666 57.8431,337.499 63.5,337C 64.3333,336.167 65.1667,335.333 66,334.5C 66.6667,328.833 66.6667,323.167 66,317.5C 63.8646,315.722 61.3646,315.055 58.5,315.5C 60.817,312.815 62.1503,309.982 62.5,307C 61.3128,305.981 60.3128,304.814 59.5,303.5C 60.6405,302.575 60.6405,301.741 59.5,301C 60.5,300 61.5,299 62.5,298C 61.5,296.333 60.5,294.667 59.5,293C 60.8333,292.333 62.1667,291.667 63.5,291C 62.2899,289.961 61.2899,288.794 60.5,287.5C 64.3275,285.755 64.3275,284.422 60.5,283.5 Z"/></g>
<g><path style="opacity:1" fill="#86c936" d="M 60.5,283.5 C 64.3275,284.422 64.3275,285.755 60.5,287.5C 57.7749,284.468 56.2749,285.135 56,289.5C 55.6667,288.167 55.3333,286.833 55,285.5C 54.1533,288.588 54.6533,291.421 56.5,294C 55.0196,296.677 53.6863,296.177 52.5,292.5C 53.3311,290.527 53.4978,288.527 53,286.5C 49.022,290 48.8553,293.5 52.5,297C 51.2164,298.297 51.3831,299.464 53,300.5C 53.6667,297.833 54.3333,297.833 55,300.5C 55.5556,298.405 56.0556,298.238 56.5,300C 54.467,301.699 52.8004,303.699 51.5,306C 51.9031,307.473 52.5697,308.806 53.5,310C 52.2396,311.113 51.073,311.28 50,310.5C 48.513,311.253 48.3463,312.086 49.5,313C 48.0577,313.377 47.0577,314.21 46.5,315.5C 46.2172,316.289 45.7172,316.956 45,317.5C 44.3333,323.833 44.3333,330.167 45,336.5C 45.3826,337.056 45.8826,337.389 46.5,337.5C 49.2869,338.477 52.2869,338.81 55.5,338.5C 53.9388,339.248 52.6054,340.414 51.5,342C 53.9734,343.402 53.9734,344.902 51.5,346.5C 52.2418,348.35 53.2418,349.016 54.5,348.5C 53.435,350.853 53.6017,353.186 55,355.5C 55.3333,354.5 55.6667,353.5 56,352.5C 56.3459,354.848 57.5125,356.681 59.5,358C 58.7471,359.487 57.9138,359.654 57,358.5C 56.3333,362.5 55.6667,362.5 55,358.5C 53.8525,359.458 52.8525,359.125 52,357.5C 51.9657,359.18 51.799,360.68 51.5,362C 52.3673,364.506 53.3673,367.006 54.5,369.5C 43.8333,369.5 33.1667,369.5 22.5,369.5C 16.0198,368.182 12.5198,364.182 12,357.5C 11.0439,335.449 11.3772,313.449 13,291.5C 14.1667,287.667 16.6667,285.167 20.5,284C 33.8292,283.5 47.1625,283.333 60.5,283.5 Z"/></g>
<g><path style="opacity:1" fill="#28949d" d="M 368.5,289.5 C 364.141,293.634 360.641,297.967 358,302.5C 356.471,299.741 354.305,297.741 351.5,296.5C 356.848,293.6 362.515,291.267 368.5,289.5 Z"/></g>
<g><path style="opacity:1" fill="#157ab3" d="M 422.5,294.5 C 427.204,306.776 432.204,318.942 437.5,331C 432.926,340.894 428.26,350.727 423.5,360.5C 406.516,367.661 389.35,374.327 372,380.5C 367.981,380.157 364.648,378.491 362,375.5C 358.005,367.009 354.505,358.343 351.5,349.5C 352.222,349.082 352.722,348.416 353,347.5C 353.333,348.167 353.667,348.833 354,349.5C 355,347.833 356,346.167 357,344.5C 357.333,345.833 357.667,347.167 358,348.5C 358.333,346.5 358.667,344.5 359,342.5C 359.649,345.937 360.149,346.104 360.5,343C 359.317,341.948 358.817,340.448 359,338.5C 360.512,336.043 361.846,336.043 363,338.5C 363.667,336.5 364.333,334.5 365,332.5C 365.333,333.833 365.667,335.167 366,336.5C 366.471,334.754 367.138,333.087 368,331.5C 368.471,333.246 369.138,334.913 370,336.5C 371.461,334.149 370.961,331.982 368.5,330C 370.205,326.75 371.705,326.916 373,330.5C 373.333,329.833 373.667,329.167 374,328.5C 374.317,330.301 374.984,330.634 376,329.5C 376.708,330.381 377.542,331.047 378.5,331.5C 379.757,334.096 380.924,336.763 382,339.5C 382.893,340.081 383.893,340.415 385,340.5C 390.718,338.973 396.051,336.639 401,333.5C 401.667,331.5 401.667,329.5 401,327.5C 399.287,322.808 397.12,318.475 394.5,314.5C 393.602,313.842 392.602,313.176 391.5,312.5C 391.846,311.304 392.346,311.304 393,312.5C 393.667,308.5 394.333,308.5 395,312.5C 395.309,311.234 395.809,310.067 396.5,309C 395.572,308.612 394.905,307.945 394.5,307C 396.024,305.806 397.19,304.306 398,302.5C 398.202,304.256 398.702,305.922 399.5,307.5C 402.612,306.649 402.946,305.483 400.5,304C 401.667,303.5 402.5,302.667 403,301.5C 403.333,302.167 403.667,302.833 404,303.5C 404.5,301.667 405.667,300.5 407.5,300C 406.978,299.439 406.645,298.772 406.5,298C 407.703,296.632 408.703,295.132 409.5,293.5C 410.325,292.614 411.325,292.281 412.5,292.5C 412.336,295.187 412.503,297.854 413,300.5C 413.333,298.5 413.667,296.5 414,294.5C 414.667,299.833 415.333,299.833 416,294.5C 416.667,297.167 417.333,297.167 418,294.5C 418.667,297.167 419.333,297.167 420,294.5C 420.77,295.598 421.603,295.598 422.5,294.5 Z"/></g>
<g><path style="opacity:1" fill="#3baf63" d="M 111.5,301.5 C 125.167,301.5 138.833,301.5 152.5,301.5C 152.36,303.124 153.027,304.29 154.5,305C 153.167,305.667 151.833,306.333 150.5,307C 150.802,308.655 152.136,309.988 154.5,311C 152.864,312.434 151.864,314.267 151.5,316.5C 152.609,317.965 152.109,318.965 150,319.5C 149.399,321.137 148.899,322.803 148.5,324.5C 149.893,326.94 150.727,329.607 151,332.5C 151.333,330.833 151.667,329.167 152,327.5C 152.121,329.727 152.954,331.56 154.5,333C 151.833,333.667 151.833,334.333 154.5,335C 150.71,337.181 150.71,339.181 154.5,341C 151.833,341.667 151.833,342.333 154.5,343C 151.833,343.667 151.833,344.333 154.5,345C 153.833,345.333 153.167,345.667 152.5,346C 152.854,347.626 152.854,349.459 152.5,351.5C 148.958,351.187 145.625,351.521 142.5,352.5C 141.036,353.405 139.702,353.405 138.5,352.5C 137.167,351.167 135.833,351.167 134.5,352.5C 134.167,352.5 133.833,352.5 133.5,352.5C 131.5,351.167 129.5,351.167 127.5,352.5C 126.036,353.405 124.702,353.405 123.5,352.5C 119.366,351.515 115.032,351.182 110.5,351.5C 110.611,350.883 110.944,350.383 111.5,350C 110.794,348.09 109.794,346.09 108.5,344C 109.13,342.108 110.13,340.441 111.5,339C 109.827,334.492 108.493,329.992 107.5,325.5C 107.714,323.856 107.38,322.356 106.5,321C 107.5,318.667 108.5,316.333 109.5,314C 108.874,313.25 108.374,312.416 108,311.5C 107.444,313.595 106.944,313.762 106.5,312C 107.628,310.532 108.294,308.865 108.5,307C 107.516,305.18 107.683,303.68 109,302.5C 110.007,304.742 110.841,304.408 111.5,301.5 Z"/></g>
<g><path style="opacity:1" fill="#159b82" d="M 168.5,301.5 C 189.167,301.5 209.833,301.5 230.5,301.5C 230.611,302.117 230.944,302.617 231.5,303C 229.874,305.628 227.874,307.961 225.5,310C 227.205,312.477 229.205,313.811 231.5,314C 230.855,316.307 230.855,318.807 231.5,321.5C 230.018,323.483 228.351,325.316 226.5,327C 226.833,328 227.167,329 227.5,330C 225.606,331.101 224.939,332.434 225.5,334C 226.917,336.826 228.417,336.993 230,334.5C 230.5,335 231,335.5 231.5,336C 232.108,338.184 231.441,340.184 229.5,342C 230.211,343.255 231.044,344.421 232,345.5C 234.374,343.461 236.374,341.128 238,338.5C 239.365,339.593 239.699,340.926 239,342.5C 238.667,341.833 238.333,341.167 238,340.5C 236.5,342.833 235,345.167 233.5,347.5C 234.127,348.417 234.461,349.417 234.5,350.5C 227.582,351.271 220.082,351.271 212,350.5C 208.397,351.135 204.897,351.802 201.5,352.5C 189.709,352.552 177.709,352.552 165.5,352.5C 165.845,348.798 165.511,345.298 164.5,342C 165.167,341.333 165.833,340.667 166.5,340C 165.257,338.846 164.257,337.512 163.5,336C 165.327,332.177 166.994,328.677 168.5,325.5C 167.079,322.991 165.412,320.657 163.5,318.5C 163.694,316.93 163.694,315.43 163.5,314C 168.838,310.33 170.505,306.163 168.5,301.5 Z"/></g>
<g><path style="opacity:1" fill="#59a2a8" d="M 98.5,300.5 C 164.669,300.168 230.669,300.501 296.5,301.5C 284.162,301.333 271.829,301.5 259.5,302C 258.939,303.566 259.606,304.899 261.5,306C 259.132,309.078 257.299,308.578 256,304.5C 255.933,306.735 256.433,308.902 257.5,311C 257.167,311.333 256.833,311.667 256.5,312C 259.167,313 259.167,314 256.5,315C 261.278,319.824 260.278,323.491 253.5,326C 254.738,326.69 254.738,327.19 253.5,327.5C 252.5,327.5 251.5,327.5 250.5,327.5C 250.657,326.127 250.49,324.793 250,323.5C 249.71,325.044 249.044,326.377 248,327.5C 247.027,325.608 246.36,323.608 246,321.5C 245.667,322.167 245.333,322.833 245,323.5C 245.988,321.08 245.655,318.747 244,316.5C 241.264,318.029 241.098,319.529 243.5,321C 242.643,321.689 241.977,322.522 241.5,323.5C 245.077,326.275 245.911,329.609 244,333.5C 243.275,331.051 242.275,328.717 241,326.5C 239.127,327.089 237.46,326.422 236,324.5C 235.405,323.101 235.572,321.768 236.5,320.5C 237.833,320.167 239.167,319.833 240.5,319.5C 239.699,316.867 238.033,315.033 235.5,314C 236.833,313.333 236.833,312.667 235.5,312C 236.191,310.933 236.691,309.766 237,308.5C 237.552,311.047 238.886,313.047 241,314.5C 241.308,313.692 241.808,313.025 242.5,312.5C 244.527,313.693 246.027,315.36 247,317.5C 247.84,314.536 248.84,314.203 250,316.5C 250.5,315.333 251.333,314.5 252.5,314C 251.333,313.5 250.5,312.667 250,311.5C 249.667,312.167 249.333,312.833 249,313.5C 248.333,308.167 247.667,308.167 247,313.5C 246.667,312.167 246.333,310.833 246,309.5C 245.444,311.595 244.944,311.762 244.5,310C 244.905,309.055 245.572,308.388 246.5,308C 245.333,307.5 244.5,306.667 244,305.5C 240.451,310.65 239.118,309.983 240,303.5C 239.311,304.357 238.478,305.023 237.5,305.5C 237.06,304.302 236.727,303.135 236.5,302C 234.527,301.505 232.527,301.338 230.5,301.5C 209.833,301.5 189.167,301.5 168.5,301.5C 163.167,301.5 157.833,301.5 152.5,301.5C 138.833,301.5 125.167,301.5 111.5,301.5C 106.968,301.818 102.634,301.485 98.5,300.5 Z"/></g>
<g><path style="opacity:1" fill="#0d83a1" d="M 296.5,301.5 C 296.795,305.077 295.795,308.243 293.5,311C 294.5,312 295.5,313 296.5,314C 295.167,315 295.167,316 296.5,317C 293.833,317.667 293.833,318.333 296.5,319C 295.896,321.468 294.562,323.468 292.5,325C 293.167,325.333 293.833,325.667 294.5,326C 294.353,327.974 294.019,329.974 293.5,332C 294.5,332.833 295.5,333.667 296.5,334.5C 295.167,335.5 295.167,336.5 296.5,337.5C 295.5,338.333 294.5,339.167 293.5,340C 296.474,341.506 296.807,343.172 294.5,345C 296.891,346.309 296.891,347.309 294.5,348C 297.464,348.84 297.797,349.84 295.5,351C 296.956,351.423 297.456,352.256 297,353.5C 295.174,352.159 294.007,352.659 293.5,355C 294.029,356.559 294.696,358.059 295.5,359.5C 294.494,360.396 294.494,361.062 295.5,361.5C 296.251,360.624 296.751,359.624 297,358.5C 298.864,360.955 298.698,363.122 296.5,365C 297.104,369.559 296.437,374.059 294.5,378.5C 295.277,380.539 296.443,381.205 298,380.5C 300.215,384.109 299.882,384.775 297,382.5C 294.887,384.271 295.053,385.771 297.5,387C 296.944,387.383 296.611,387.883 296.5,388.5C 295.295,386.862 293.962,386.529 292.5,387.5C 292.414,386.504 292.748,385.671 293.5,385C 288.741,374.319 284.408,363.486 280.5,352.5C 277.103,351.802 273.603,351.135 270,350.5C 266.124,351.052 262.291,351.386 258.5,351.5C 259.761,349.514 259.428,347.681 257.5,346C 261.011,344.736 261.178,342.903 258,340.5C 256.796,341.471 256.296,342.471 256.5,343.5C 255.702,343.043 255.369,342.376 255.5,341.5C 255.34,339.801 255.506,338.134 256,336.5C 257.364,337.258 258.531,336.758 259.5,335C 257.625,332.802 257.625,330.969 259.5,329.5C 257.253,330.065 255.253,329.399 253.5,327.5C 254.738,327.19 254.738,326.69 253.5,326C 260.278,323.491 261.278,319.824 256.5,315C 259.167,314 259.167,313 256.5,312C 256.833,311.667 257.167,311.333 257.5,311C 256.433,308.902 255.933,306.735 256,304.5C 257.299,308.578 259.132,309.078 261.5,306C 259.606,304.899 258.939,303.566 259.5,302C 271.829,301.5 284.162,301.333 296.5,301.5 Z"/></g>
<g><path style="opacity:1" fill="#0c908f" d="M 230.5,301.5 C 232.527,301.338 234.527,301.505 236.5,302C 236.727,303.135 237.06,304.302 237.5,305.5C 238.478,305.023 239.311,304.357 240,303.5C 239.118,309.983 240.451,310.65 244,305.5C 244.5,306.667 245.333,307.5 246.5,308C 245.572,308.388 244.905,309.055 244.5,310C 244.944,311.762 245.444,311.595 246,309.5C 246.333,310.833 246.667,312.167 247,313.5C 247.667,308.167 248.333,308.167 249,313.5C 249.333,312.833 249.667,312.167 250,311.5C 250.5,312.667 251.333,313.5 252.5,314C 251.333,314.5 250.5,315.333 250,316.5C 248.84,314.203 247.84,314.536 247,317.5C 246.027,315.36 244.527,313.693 242.5,312.5C 241.808,313.025 241.308,313.692 241,314.5C 238.886,313.047 237.552,311.047 237,308.5C 236.691,309.766 236.191,310.933 235.5,312C 236.833,312.667 236.833,313.333 235.5,314C 238.033,315.033 239.699,316.867 240.5,319.5C 239.167,319.833 237.833,320.167 236.5,320.5C 235.572,321.768 235.405,323.101 236,324.5C 237.46,326.422 239.127,327.089 241,326.5C 242.275,328.717 243.275,331.051 244,333.5C 245.911,329.609 245.077,326.275 241.5,323.5C 241.977,322.522 242.643,321.689 243.5,321C 241.098,319.529 241.264,318.029 244,316.5C 245.655,318.747 245.988,321.08 245,323.5C 245.333,322.833 245.667,322.167 246,321.5C 246.36,323.608 247.027,325.608 248,327.5C 249.044,326.377 249.71,325.044 250,323.5C 250.49,324.793 250.657,326.127 250.5,327.5C 251.5,327.5 252.5,327.5 253.5,327.5C 255.253,329.399 257.253,330.065 259.5,329.5C 257.625,330.969 257.625,332.802 259.5,335C 258.531,336.758 257.364,337.258 256,336.5C 255.506,338.134 255.34,339.801 255.5,341.5C 254.698,340.048 254.198,338.382 254,336.5C 253.333,343.167 252.667,343.167 252,336.5C 250.276,333.83 249.109,334.163 248.5,337.5C 248.977,338.478 249.643,339.311 250.5,340C 249.638,342.734 248.805,342.901 248,340.5C 247.502,343.817 247.335,347.15 247.5,350.5C 242.864,351.448 238.53,351.448 234.5,350.5C 234.461,349.417 234.127,348.417 233.5,347.5C 235,345.167 236.5,342.833 238,340.5C 238.333,341.167 238.667,341.833 239,342.5C 239.699,340.926 239.365,339.593 238,338.5C 236.374,341.128 234.374,343.461 232,345.5C 231.044,344.421 230.211,343.255 229.5,342C 231.441,340.184 232.108,338.184 231.5,336C 231,335.5 230.5,335 230,334.5C 228.417,336.993 226.917,336.826 225.5,334C 224.939,332.434 225.606,331.101 227.5,330C 227.167,329 226.833,328 226.5,327C 228.351,325.316 230.018,323.483 231.5,321.5C 230.855,318.807 230.855,316.307 231.5,314C 229.205,313.811 227.205,312.477 225.5,310C 227.874,307.961 229.874,305.628 231.5,303C 230.944,302.617 230.611,302.117 230.5,301.5 Z"/></g>
<g><path style="opacity:1" fill="#127ab3" d="M 305.5,303.5 C 311.655,305.815 316.488,309.815 320,315.5C 328.667,336.167 337.333,356.833 346,377.5C 350.987,387.912 350.32,397.912 344,407.5C 330.327,421.068 316.827,434.735 303.5,448.5C 302.566,447.432 302.232,446.099 302.5,444.5C 309.024,429.224 309.024,414.224 302.5,399.5C 303.086,397.16 304.086,394.993 305.5,393C 304.761,390.765 304.761,388.765 305.5,387C 302.833,384.667 302.833,382.333 305.5,380C 302.833,378.333 302.833,376.667 305.5,375C 301.509,373.379 299.676,370.546 300,366.5C 300.333,367.167 300.667,367.833 301,368.5C 301.667,359.167 302.333,359.167 303,368.5C 303.226,365.905 303.726,363.405 304.5,361C 303.273,359.413 303.606,358.079 305.5,357C 305.676,355.34 305.009,353.674 303.5,352C 305.973,350.598 305.973,349.098 303.5,347.5C 304.615,346.402 304.615,345.235 303.5,344C 305.756,342.166 305.756,340.499 303.5,339C 303.616,337.732 303.949,336.398 304.5,335C 303.782,332.539 303.115,330.039 302.5,327.5C 303.737,326.719 304.737,325.719 305.5,324.5C 304.253,322.958 304.253,321.458 305.5,320C 302.833,318.333 302.833,316.667 305.5,315C 304.743,312.056 304.077,309.056 303.5,306C 303.639,304.699 304.305,303.866 305.5,303.5 Z"/></g>
<g><path style="opacity:0.996" fill="#75c141" d="M 60.5,287.5 C 61.2899,288.794 62.2899,289.961 63.5,291C 62.1667,291.667 60.8333,292.333 59.5,293C 60.5,294.667 61.5,296.333 62.5,298C 61.5,299 60.5,300 59.5,301C 60.6405,301.741 60.6405,302.575 59.5,303.5C 60.3128,304.814 61.3128,305.981 62.5,307C 62.1503,309.982 60.817,312.815 58.5,315.5C 54.4815,315.626 50.4815,315.626 46.5,315.5C 47.0577,314.21 48.0577,313.377 49.5,313C 48.3463,312.086 48.513,311.253 50,310.5C 51.073,311.28 52.2396,311.113 53.5,310C 52.5697,308.806 51.9031,307.473 51.5,306C 52.8004,303.699 54.467,301.699 56.5,300C 56.0556,298.238 55.5556,298.405 55,300.5C 54.3333,297.833 53.6667,297.833 53,300.5C 51.3831,299.464 51.2164,298.297 52.5,297C 48.8553,293.5 49.022,290 53,286.5C 53.4978,288.527 53.3311,290.527 52.5,292.5C 53.6863,296.177 55.0196,296.677 56.5,294C 54.6533,291.421 54.1533,288.588 55,285.5C 55.3333,286.833 55.6667,288.167 56,289.5C 56.2749,285.135 57.7749,284.468 60.5,287.5 Z"/></g>
<g><path style="opacity:1" fill="#24a277" d="M 152.5,301.5 C 157.833,301.5 163.167,301.5 168.5,301.5C 170.505,306.163 168.838,310.33 163.5,314C 163.694,315.43 163.694,316.93 163.5,318.5C 165.412,320.657 167.079,322.991 168.5,325.5C 166.994,328.677 165.327,332.177 163.5,336C 164.257,337.512 165.257,338.846 166.5,340C 165.833,340.667 165.167,341.333 164.5,342C 165.511,345.298 165.845,348.798 165.5,352.5C 165.167,352.5 164.833,352.5 164.5,352.5C 160.833,351.167 157.167,351.167 153.5,352.5C 153.167,352.5 152.833,352.5 152.5,352.5C 152.5,352.167 152.5,351.833 152.5,351.5C 152.854,349.459 152.854,347.626 152.5,346C 153.167,345.667 153.833,345.333 154.5,345C 151.833,344.333 151.833,343.667 154.5,343C 151.833,342.333 151.833,341.667 154.5,341C 150.71,339.181 150.71,337.181 154.5,335C 151.833,334.333 151.833,333.667 154.5,333C 152.954,331.56 152.121,329.727 152,327.5C 151.667,329.167 151.333,330.833 151,332.5C 150.727,329.607 149.893,326.94 148.5,324.5C 148.899,322.803 149.399,321.137 150,319.5C 152.109,318.965 152.609,317.965 151.5,316.5C 151.864,314.267 152.864,312.434 154.5,311C 152.136,309.988 150.802,308.655 150.5,307C 151.833,306.333 153.167,305.667 154.5,305C 153.027,304.29 152.36,303.124 152.5,301.5 Z"/></g>
<g><path style="opacity:1" fill="#0b8a97" d="M 255.5,341.5 C 255.369,342.376 255.702,343.043 256.5,343.5C 256.296,342.471 256.796,341.471 258,340.5C 261.178,342.903 261.011,344.736 257.5,346C 259.428,347.681 259.761,349.514 258.5,351.5C 254.629,351.815 250.962,351.482 247.5,350.5C 247.335,347.15 247.502,343.817 248,340.5C 248.805,342.901 249.638,342.734 250.5,340C 249.643,339.311 248.977,338.478 248.5,337.5C 249.109,334.163 250.276,333.83 252,336.5C 252.667,343.167 253.333,343.167 254,336.5C 254.198,338.382 254.698,340.048 255.5,341.5 Z"/></g>
<g><path style="opacity:1" fill="#047ca9" d="M 296.5,301.5 C 299.829,301.215 302.829,301.882 305.5,303.5C 304.305,303.866 303.639,304.699 303.5,306C 304.077,309.056 304.743,312.056 305.5,315C 302.833,316.667 302.833,318.333 305.5,320C 304.253,321.458 304.253,322.958 305.5,324.5C 304.737,325.719 303.737,326.719 302.5,327.5C 303.115,330.039 303.782,332.539 304.5,335C 303.949,336.398 303.616,337.732 303.5,339C 305.756,340.499 305.756,342.166 303.5,344C 304.615,345.235 304.615,346.402 303.5,347.5C 305.973,349.098 305.973,350.598 303.5,352C 305.009,353.674 305.676,355.34 305.5,357C 303.606,358.079 303.273,359.413 304.5,361C 303.726,363.405 303.226,365.905 303,368.5C 302.333,359.167 301.667,359.167 301,368.5C 300.667,367.833 300.333,367.167 300,366.5C 299.676,370.546 301.509,373.379 305.5,375C 302.833,376.667 302.833,378.333 305.5,380C 302.833,382.333 302.833,384.667 305.5,387C 304.761,388.765 304.761,390.765 305.5,393C 304.086,394.993 303.086,397.16 302.5,399.5C 299.753,396.277 297.753,392.611 296.5,388.5C 296.611,387.883 296.944,387.383 297.5,387C 295.053,385.771 294.887,384.271 297,382.5C 299.882,384.775 300.215,384.109 298,380.5C 296.443,381.205 295.277,380.539 294.5,378.5C 296.437,374.059 297.104,369.559 296.5,365C 298.698,363.122 298.864,360.955 297,358.5C 296.751,359.624 296.251,360.624 295.5,361.5C 294.494,361.062 294.494,360.396 295.5,359.5C 294.696,358.059 294.029,356.559 293.5,355C 294.007,352.659 295.174,352.159 297,353.5C 297.456,352.256 296.956,351.423 295.5,351C 297.797,349.84 297.464,348.84 294.5,348C 296.891,347.309 296.891,346.309 294.5,345C 296.807,343.172 296.474,341.506 293.5,340C 294.5,339.167 295.5,338.333 296.5,337.5C 295.167,336.5 295.167,335.5 296.5,334.5C 295.5,333.667 294.5,332.833 293.5,332C 294.019,329.974 294.353,327.974 294.5,326C 293.833,325.667 293.167,325.333 292.5,325C 294.562,323.468 295.896,321.468 296.5,319C 293.833,318.333 293.833,317.667 296.5,317C 295.167,316 295.167,315 296.5,314C 295.5,313 294.5,312 293.5,311C 295.795,308.243 296.795,305.077 296.5,301.5 Z"/></g>
<g><path style="opacity:1" fill="#4eb457" d="M 107.5,325.5 C 108.493,329.992 109.827,334.492 111.5,339C 110.13,340.441 109.13,342.108 108.5,344C 109.794,346.09 110.794,348.09 111.5,350C 110.944,350.383 110.611,350.883 110.5,351.5C 109.167,351.5 107.833,351.5 106.5,351.5C 106.678,350.064 107.011,348.564 107.5,347C 107.37,345.941 106.87,345.108 106,344.5C 106.536,346.447 106.202,348.447 105,350.5C 104.5,350 104,349.5 103.5,349C 103.074,345.524 103.574,342.024 105,338.5C 105.667,339.833 106.333,341.167 107,342.5C 107.177,338.209 105.677,334.542 102.5,331.5C 104.647,328.668 104.647,326.001 102.5,323.5C 103.905,320.148 105.239,319.982 106.5,323C 105.434,324.159 105.767,324.992 107.5,325.5 Z"/></g>
<g><path style="opacity:0.475" fill="#c5bf9c" d="M 93.5,352.5 C 97.6344,351.515 101.968,351.182 106.5,351.5C 107.833,351.5 109.167,351.5 110.5,351.5C 115.032,351.182 119.366,351.515 123.5,352.5C 113.68,352.587 103.68,352.587 93.5,352.5 Z"/></g>
<g><path style="opacity:0.58" fill="#71bfcc" d="M 234.5,350.5 C 238.53,351.448 242.864,351.448 247.5,350.5C 250.962,351.482 254.629,351.815 258.5,351.5C 262.291,351.386 266.124,351.052 270,350.5C 273.603,351.135 277.103,351.802 280.5,352.5C 253.818,353.037 227.484,353.037 201.5,352.5C 204.897,351.802 208.397,351.135 212,350.5C 220.082,351.271 227.582,351.271 234.5,350.5 Z"/></g>
<g><path style="opacity:0.102" fill="#e0d4af" d="M 133.5,352.5 C 131.313,352.983 129.313,352.983 127.5,352.5C 129.5,351.167 131.5,351.167 133.5,352.5 Z"/></g>
<g><path style="opacity:0.102" fill="#ddd4b2" d="M 138.5,352.5 C 136.861,352.926 135.528,352.926 134.5,352.5C 135.833,351.167 137.167,351.167 138.5,352.5 Z"/></g>
<g><path style="opacity:0.102" fill="#d1d2b8" d="M 152.5,351.5 C 152.5,351.833 152.5,352.167 152.5,352.5C 148.847,352.819 145.514,352.819 142.5,352.5C 145.625,351.521 148.958,351.187 152.5,351.5 Z"/></g>
<g><path style="opacity:0.102" fill="#cec7ab" d="M 164.5,352.5 C 160.682,352.783 157.015,352.783 153.5,352.5C 157.167,351.167 160.833,351.167 164.5,352.5 Z"/></g>
<g><path style="opacity:0.996" fill="#72c03f" d="M 55.5,338.5 C 56.8734,338.343 58.2068,338.51 59.5,339C 59.5077,340.975 60.5077,342.809 62.5,344.5C 60.5989,345.935 60.2655,347.602 61.5,349.5C 59.7971,350.89 59.1304,352.39 59.5,354C 60.1667,354.667 60.8333,355.333 61.5,356C 61.6938,357.43 61.6938,358.93 61.5,360.5C 61.9767,361.478 62.6433,362.311 63.5,363C 60.1235,364.649 59.7901,366.649 62.5,369C 59.854,369.497 57.1873,369.664 54.5,369.5C 53.3673,367.006 52.3673,364.506 51.5,362C 51.799,360.68 51.9657,359.18 52,357.5C 52.8525,359.125 53.8525,359.458 55,358.5C 55.6667,362.5 56.3333,362.5 57,358.5C 57.9138,359.654 58.7471,359.487 59.5,358C 57.5125,356.681 56.3459,354.848 56,352.5C 55.6667,353.5 55.3333,354.5 55,355.5C 53.6017,353.186 53.435,350.853 54.5,348.5C 53.2418,349.016 52.2418,348.35 51.5,346.5C 53.9734,344.902 53.9734,343.402 51.5,342C 52.6054,340.414 53.9388,339.248 55.5,338.5 Z"/></g>
<g><path style="opacity:1" fill="#0f7ab3" d="M 516.5,418.5 C 503.214,409.722 488.88,406.889 473.5,410C 467.364,412.237 461.364,414.737 455.5,417.5C 450.533,415.407 446.366,411.74 443,406.5C 442.667,407.167 442.333,407.833 442,408.5C 441.333,403.167 440.667,403.167 440,408.5C 439.468,402.122 437.968,401.456 435.5,406.5C 433.621,406.393 433.288,406.893 434.5,408C 433.809,409.067 433.309,410.234 433,411.5C 431.844,406.596 429.844,406.262 427,410.5C 423.892,408.545 424.059,406.712 427.5,405C 426.014,401.151 423.347,398.651 419.5,397.5C 420.833,396.5 420.833,395.5 419.5,394.5C 421.325,393.429 422.492,394.096 423,396.5C 424.714,395.075 426.047,395.408 427,397.5C 428.647,395.369 428.314,393.369 426,391.5C 424.84,393.797 423.84,393.464 423,390.5C 422.667,391.167 422.333,391.833 422,392.5C 421.333,387.167 420.667,387.167 420,392.5C 419.333,387.167 418.667,387.167 418,392.5C 417.64,390.392 416.973,388.392 416,386.5C 415.333,389.167 414.667,389.167 414,386.5C 413.331,389.028 412.498,389.028 411.5,386.5C 412.309,384.929 412.643,383.262 412.5,381.5C 422.962,376.776 433.629,372.276 444.5,368C 453.779,365.262 462.446,366.595 470.5,372C 486.035,387.368 501.368,402.868 516.5,418.5 Z"/></g>
<g><path style="opacity:1" fill="#1185a1" d="M 412.5,381.5 C 412.643,383.262 412.309,384.929 411.5,386.5C 412.498,389.028 413.331,389.028 414,386.5C 414.667,389.167 415.333,389.167 416,386.5C 416.973,388.392 417.64,390.392 418,392.5C 418.667,387.167 419.333,387.167 420,392.5C 420.667,387.167 421.333,387.167 422,392.5C 422.333,391.833 422.667,391.167 423,390.5C 423.84,393.464 424.84,393.797 426,391.5C 428.314,393.369 428.647,395.369 427,397.5C 426.047,395.408 424.714,395.075 423,396.5C 422.492,394.096 421.325,393.429 419.5,394.5C 420.833,395.5 420.833,396.5 419.5,397.5C 423.347,398.651 426.014,401.151 427.5,405C 424.059,406.712 423.892,408.545 427,410.5C 429.844,406.262 431.844,406.596 433,411.5C 433.309,410.234 433.809,409.067 434.5,408C 433.288,406.893 433.621,406.393 435.5,406.5C 435.687,408.564 436.187,410.564 437,412.5C 437.763,409.937 438.263,409.937 438.5,412.5C 438.392,413.442 438.059,414.275 437.5,415C 437.833,415.167 438.167,415.333 438.5,415.5C 439.298,413.922 439.798,412.256 440,410.5C 441.062,412.208 442.229,412.874 443.5,412.5C 442.876,415.537 441.209,418.37 438.5,421C 439.061,422.566 438.394,423.899 436.5,425C 437.094,425.464 437.761,425.631 438.5,425.5C 431.1,429.198 423.433,432.532 415.5,435.5C 414.501,446.146 414.168,456.813 414.5,467.5C 414.167,467.5 413.833,467.5 413.5,467.5C 412.833,467.5 412.5,467.167 412.5,466.5C 413.217,460.417 413.551,454.25 413.5,448C 409.502,447.289 408.835,448.289 411.5,451C 410.692,451.308 410.025,451.808 409.5,452.5C 409.992,456.392 409.158,456.392 407,452.5C 405.982,453.706 405.482,453.373 405.5,451.5C 405.737,448.937 406.237,448.937 407,451.5C 407.5,450.5 408,449.5 408.5,448.5C 405.65,443.464 406.15,442.797 410,446.5C 412.734,445.638 412.901,444.805 410.5,444C 410.833,443.667 411.167,443.333 411.5,443C 410.809,441.933 410.309,440.766 410,439.5C 409.333,443.5 408.667,443.5 408,439.5C 407.667,440.5 407.333,441.5 407,442.5C 406.333,440.5 405.667,438.5 405,436.5C 404.768,437.737 404.268,438.737 403.5,439.5C 403.577,436.491 402.244,434.324 399.5,433C 401.932,431.913 401.598,431.413 398.5,431.5C 398.649,430.448 398.483,429.448 398,428.5C 396.541,431.443 394.874,431.776 393,429.5C 391.956,427.285 391.29,424.952 391,422.5C 390.798,424.256 390.298,425.922 389.5,427.5C 387.637,425.107 386.304,422.44 385.5,419.5C 385.089,420.262 384.923,421.262 385,422.5C 383.956,421.377 383.29,420.044 383,418.5C 382.667,419.5 382.333,420.5 382,421.5C 381.691,420.234 381.191,419.067 380.5,418C 381.833,417.333 383.167,416.667 384.5,416C 383.083,413.174 381.583,413.007 380,415.5C 378.667,414.167 377.333,412.833 376,411.5C 375.586,411.957 375.086,412.291 374.5,412.5C 373.756,411.009 373.09,409.509 372.5,408C 373.211,405.692 373.211,403.192 372.5,400.5C 375.406,397.035 379.073,394.535 383.5,393C 393.151,389.062 402.817,385.229 412.5,381.5 Z"/></g>
<g><path style="opacity:1" fill="#0b5895" d="M 296.5,388.5 C 297.753,392.611 299.753,396.277 302.5,399.5C 309.024,414.224 309.024,429.224 302.5,444.5C 301.625,446.568 300.459,448.568 299,450.5C 297.148,448.77 297.314,447.604 299.5,447C 294.234,444.578 292.068,446.411 293,452.5C 292.667,451.167 292.333,449.833 292,448.5C 291.784,450.384 291.117,452.051 290,453.5C 288.039,450.537 285.706,447.871 283,445.5C 282.289,443.633 282.789,442.133 284.5,441C 283.638,438.266 282.805,438.099 282,440.5C 279.848,438.723 280.015,437.223 282.5,436C 280.193,435.646 279.859,434.646 281.5,433C 281.241,431.739 280.574,430.739 279.5,430C 281.158,429.275 281.658,428.108 281,426.5C 280.444,428.595 279.944,428.762 279.5,427C 279.735,426.127 280.069,425.293 280.5,424.5C 279.998,423.479 279.332,423.312 278.5,424C 278.201,425.32 278.034,426.82 278,428.5C 277.346,429.696 276.846,429.696 276.5,428.5C 277.063,423.729 277.063,419.062 276.5,414.5C 274.924,413.034 272.924,411.367 270.5,409.5C 277.5,401.833 284.833,394.5 292.5,387.5C 293.962,386.529 295.295,386.862 296.5,388.5 Z"/></g>
<g><path style="opacity:1" fill="#137faa" d="M 455.5,417.5 C 452.991,418.921 450.657,420.588 448.5,422.5C 445.167,423.5 441.833,424.5 438.5,425.5C 437.761,425.631 437.094,425.464 436.5,425C 438.394,423.899 439.061,422.566 438.5,421C 441.209,418.37 442.876,415.537 443.5,412.5C 442.229,412.874 441.062,412.208 440,410.5C 439.798,412.256 439.298,413.922 438.5,415.5C 438.167,415.333 437.833,415.167 437.5,415C 438.059,414.275 438.392,413.442 438.5,412.5C 438.263,409.937 437.763,409.937 437,412.5C 436.187,410.564 435.687,408.564 435.5,406.5C 437.968,401.456 439.468,402.122 440,408.5C 440.667,403.167 441.333,403.167 442,408.5C 442.333,407.833 442.667,407.167 443,406.5C 446.366,411.74 450.533,415.407 455.5,417.5 Z"/></g>
<g><path style="opacity:1" fill="#045596" d="M 516.5,418.5 C 525.167,426.5 533.5,434.833 541.5,443.5C 540.448,443.351 539.448,443.517 538.5,444C 540.211,445.133 540.711,446.633 540,448.5C 539.683,446.699 539.016,446.366 538,447.5C 537.667,449.167 537.333,450.833 537,452.5C 536.654,449.424 535.988,446.424 535,443.5C 534.5,444.5 534,445.5 533.5,446.5C 535.76,448.407 535.927,450.407 534,452.5C 533.333,449.833 532.667,449.833 532,452.5C 531.306,451.182 530.473,450.349 529.5,450C 529.862,448.775 530.362,447.609 531,446.5C 531.333,446.833 531.667,447.167 532,447.5C 532.667,446.5 532.667,445.5 532,444.5C 530.984,445.634 530.317,445.301 530,443.5C 528.314,446.022 526.981,445.689 526,442.5C 525.667,443.167 525.333,443.833 525,444.5C 523.333,443.167 521.667,441.833 520,440.5C 518.513,441.253 518.346,442.086 519.5,443C 518.833,443.333 518.167,443.667 517.5,444C 518.893,445.171 519.727,446.671 520,448.5C 520.333,447.5 520.667,446.5 521,445.5C 522.918,448.402 522.751,451.069 520.5,453.5C 521.04,454.748 521.707,455.915 522.5,457C 522.394,459.311 521.894,461.811 521,464.5C 520.688,460.101 519.022,459.101 516,461.5C 513.671,460.179 512.338,458.179 512,455.5C 511.781,456.938 511.281,458.271 510.5,459.5C 509.391,458.41 508.391,458.41 507.5,459.5C 507.626,462.143 508.126,464.809 509,467.5C 507.783,466.614 506.449,465.614 505,464.5C 502.91,467.599 501.41,470.599 500.5,473.5C 483.167,456.5 465.833,439.5 448.5,422.5C 450.657,420.588 452.991,418.921 455.5,417.5C 461.364,414.737 467.364,412.237 473.5,410C 488.88,406.889 503.214,409.722 516.5,418.5 Z"/></g>
<g><path style="opacity:0.58" fill="#89cad6" d="M 364.5,414.5 C 364.5,414.833 364.5,415.167 364.5,415.5C 364.5,455.167 364.5,494.833 364.5,534.5C 364.813,538.042 364.479,541.375 363.5,544.5C 363.465,503.612 363.131,462.778 362.5,422C 363.123,419.393 363.79,416.893 364.5,414.5 Z"/></g>
<g><path style="opacity:1" fill="#0f9a83" d="M 364.5,415.5 C 365.222,415.918 365.722,416.584 366,417.5C 366.805,415.099 367.638,415.266 368.5,418C 367.5,418.333 366.5,418.667 365.5,419C 366.743,420.154 367.743,421.488 368.5,423C 367.833,423.333 367.167,423.667 366.5,424C 367.416,424.278 368.082,424.778 368.5,425.5C 367.113,427.489 367.447,429.322 369.5,431C 367,431.833 366.833,433 369,434.5C 370.588,432.032 372.422,431.866 374.5,434C 372.939,435.86 371.272,437.026 369.5,437.5C 370.035,439.661 370.868,441.661 372,443.5C 373.667,442.5 375.333,441.5 377,440.5C 378.667,443.167 380.333,443.167 382,440.5C 382.442,442.679 383.442,443.345 385,442.5C 387.035,444.912 388.035,444.245 388,440.5C 387.342,444.01 386.676,447.344 386,450.5C 385.5,450 385,449.5 384.5,449C 385.711,447.887 385.711,446.72 384.5,445.5C 383.998,444.479 383.332,444.312 382.5,445C 382.943,446.518 382.276,447.685 380.5,448.5C 383.009,450.59 382.675,452.423 379.5,454C 381,455.5 382.5,457 384,458.5C 385.667,456.833 387.333,455.167 389,453.5C 390.667,455.5 392.333,457.5 394,459.5C 394.692,458.975 395.192,458.308 395.5,457.5C 394.674,456.549 394.508,455.549 395,454.5C 395.977,455.774 396.811,455.774 397.5,454.5C 398.167,452.167 398.833,449.833 399.5,447.5C 400.878,449.96 401.878,452.626 402.5,455.5C 402.513,457.766 402.347,460.099 402,462.5C 402.667,463.833 403.333,463.833 404,462.5C 404.93,465.362 406.597,467.695 409,469.5C 409.692,468.975 410.192,468.308 410.5,467.5C 409.998,466.284 409.665,465.117 409.5,464C 410,463.5 410.5,463 411,462.5C 411.21,464.058 411.71,465.391 412.5,466.5C 412.5,467.167 412.833,467.5 413.5,467.5C 413.186,492.878 413.186,519.545 413.5,547.5C 412.12,548.706 410.953,548.373 410,546.5C 409,547.5 408,548.5 407,549.5C 406.49,547.455 405.657,545.621 404.5,544C 404.833,543.667 405.167,543.333 405.5,543C 402.013,541.584 398.846,539.084 396,535.5C 394.719,535.381 393.552,535.881 392.5,537C 392.577,539.111 392.911,541.111 393.5,543C 392.075,544.362 391.242,545.862 391,547.5C 389.548,546.093 389.715,544.593 391.5,543C 391.167,541.333 390.833,539.667 390.5,538C 391.167,537 391.833,536 392.5,535C 390.174,533.453 389.007,531.619 389,529.5C 387.434,528.939 386.101,529.606 385,531.5C 384.086,530.346 383.253,530.513 382.5,532C 382.833,533 383.167,534 383.5,535C 382.5,536 381.5,537 380.5,538C 381.866,540.494 383.032,543.327 384,546.5C 382.542,544.04 380.709,541.873 378.5,540C 379.214,538.657 378.88,537.324 377.5,536C 377.404,534.627 377.57,533.127 378,531.5C 376.434,530.939 375.101,531.606 374,533.5C 373.833,533.167 373.667,532.833 373.5,532.5C 373.635,527.923 373.968,523.423 374.5,519C 373.667,518.167 372.833,517.333 372,516.5C 370.5,518 369,519.5 367.5,521C 368.167,521.667 368.833,522.333 369.5,523C 369.676,524.66 369.009,526.326 367.5,528C 367.957,528.414 368.291,528.914 368.5,529.5C 367.471,529.296 366.471,529.796 365.5,531C 365.011,532.552 365.678,533.719 367.5,534.5C 366.652,535.625 365.652,535.625 364.5,534.5C 364.5,494.833 364.5,455.167 364.5,415.5 Z"/></g>
<g><path style="opacity:1" fill="#1a819d" d="M 284.5,467.5 C 278.441,474.728 271.608,481.061 264,486.5C 261.333,486.5 258.667,486.5 256,486.5C 252.418,485.085 249.584,482.752 247.5,479.5C 247.461,478.244 247.961,477.244 249,476.5C 250.439,478.275 251.439,480.275 252,482.5C 252.5,482 253,481.5 253.5,481C 253.167,479.333 252.833,477.667 252.5,476C 253.126,475.25 253.626,474.416 254,473.5C 256.421,476.135 258.088,478.802 259,481.5C 259.833,480.667 260.667,479.833 261.5,479C 259.606,477.921 259.273,476.587 260.5,475C 258.999,473.748 257.332,472.748 255.5,472C 256.167,471.667 256.833,471.333 257.5,471C 256.412,468.849 254.578,466.682 252,464.5C 251.517,463.552 251.351,462.552 251.5,461.5C 252.627,460.878 253.627,460.045 254.5,459C 254.075,457.181 253.742,455.014 253.5,452.5C 253.844,449.56 254.511,447.06 255.5,445C 254.643,444.311 253.977,443.478 253.5,442.5C 253.846,441.304 254.346,441.304 255,442.5C 255.273,440.899 255.773,439.399 256.5,438C 256.167,437.667 255.833,437.333 255.5,437C 257.113,434.626 259.113,431.96 261.5,429C 260.359,428.259 260.359,427.425 261.5,426.5C 260.687,425.186 259.687,424.019 258.5,423C 259.999,422.162 260.332,421.329 259.5,420.5C 259.833,419.5 260.5,418.833 261.5,418.5C 262.329,419.332 263.162,418.999 264,417.5C 264.569,421.361 265.402,421.361 266.5,417.5C 266.833,417.667 267.167,417.833 267.5,418C 267.015,420.68 266.682,423.347 266.5,426C 267.061,427.676 268.061,429.009 269.5,430C 266.833,430.667 266.833,431.333 269.5,432C 268.346,432.914 268.513,433.747 270,434.5C 270.333,434.167 270.667,433.833 271,433.5C 271.5,434.667 272.333,435.5 273.5,436C 273.167,436.333 272.833,436.667 272.5,437C 275.181,440.054 274.348,441.887 270,442.5C 269.667,442.167 269.333,441.833 269,441.5C 266.743,443.348 265.243,445.182 264.5,447C 266.709,449.491 268.875,451.324 271,452.5C 271.667,449.833 272.333,449.833 273,452.5C 273.308,451.692 273.808,451.025 274.5,450.5C 275.354,451.522 276.354,452.355 277.5,453C 276.346,453.914 276.513,454.747 278,455.5C 278.667,454.167 279.333,454.167 280,455.5C 279.852,456.825 280.018,457.992 280.5,459C 277.833,460.333 277.833,461.667 280.5,463C 280.167,463.333 279.833,463.667 279.5,464C 280.789,465.802 282.456,466.969 284.5,467.5 Z"/></g>
<g><path style="opacity:1" fill="#16889a" d="M 259.5,420.5 C 260.332,421.329 259.999,422.162 258.5,423C 259.687,424.019 260.687,425.186 261.5,426.5C 260.359,427.425 260.359,428.259 261.5,429C 259.113,431.96 257.113,434.626 255.5,437C 255.833,437.333 256.167,437.667 256.5,438C 255.773,439.399 255.273,440.899 255,442.5C 254.346,441.304 253.846,441.304 253.5,442.5C 253.977,443.478 254.643,444.311 255.5,445C 254.511,447.06 253.844,449.56 253.5,452.5C 253.742,455.014 254.075,457.181 254.5,459C 253.627,460.045 252.627,460.878 251.5,461.5C 250.5,461.5 249.5,461.5 248.5,461.5C 248.657,460.127 248.49,458.793 248,457.5C 247.333,460.167 246.667,460.167 246,457.5C 245,458.833 244,460.167 243,461.5C 242.333,458.833 241.667,458.833 241,461.5C 240.167,459.333 238.667,457.833 236.5,457C 237.167,456.667 237.833,456.333 238.5,456C 237.167,454.667 237.167,453.333 238.5,452C 236.346,450.816 236.68,449.65 239.5,448.5C 242.092,449.804 243.925,451.804 245,454.5C 244.418,449.212 245.085,449.212 247,454.5C 247.974,452.122 248.641,452.456 249,455.5C 249.333,454.5 249.667,453.5 250,452.5C 250.654,453.696 251.154,453.696 251.5,452.5C 249.37,449.785 249.703,447.285 252.5,445C 251.638,442.266 250.805,442.099 250,444.5C 248.615,443.449 247.615,442.116 247,440.5C 246.333,443.167 245.667,443.167 245,440.5C 244.667,441.167 244.333,441.833 244,442.5C 242.678,440.774 242.178,439.107 242.5,437.5C 247.833,431.5 253.5,425.833 259.5,420.5 Z"/></g>
<g><path style="opacity:1" fill="#108c95" d="M 372.5,400.5 C 373.211,403.192 373.211,405.692 372.5,408C 373.09,409.509 373.756,411.009 374.5,412.5C 375.086,412.291 375.586,411.957 376,411.5C 377.333,412.833 378.667,414.167 380,415.5C 381.583,413.007 383.083,413.174 384.5,416C 383.167,416.667 381.833,417.333 380.5,418C 381.191,419.067 381.691,420.234 382,421.5C 382.333,420.5 382.667,419.5 383,418.5C 383.29,420.044 383.956,421.377 385,422.5C 384.923,421.262 385.089,420.262 385.5,419.5C 386.304,422.44 387.637,425.107 389.5,427.5C 390.298,425.922 390.798,424.256 391,422.5C 391.29,424.952 391.956,427.285 393,429.5C 394.874,431.776 396.541,431.443 398,428.5C 398.483,429.448 398.649,430.448 398.5,431.5C 401.598,431.413 401.932,431.913 399.5,433C 402.244,434.324 403.577,436.491 403.5,439.5C 403.477,441.6 404.144,443.433 405.5,445C 405.056,446.762 404.556,446.595 404,444.5C 403.667,445.167 403.333,445.833 403,446.5C 401.729,443.567 400.062,440.901 398,438.5C 397.333,441.167 396.667,441.167 396,438.5C 395.667,439.167 395.333,439.833 395,440.5C 394.333,432.5 393.667,432.5 393,440.5C 392.581,436.148 391.914,435.815 391,439.5C 390.439,437.275 389.439,435.275 388,433.5C 387.667,434.167 387.333,434.833 387,435.5C 386.577,434.044 385.744,433.544 384.5,434C 385.451,434.718 385.617,435.551 385,436.5C 384.085,435.672 383.419,434.672 383,433.5C 382.333,436.167 381.667,436.167 381,433.5C 380.667,434.833 380.333,436.167 380,437.5C 379.801,435.598 378.967,434.098 377.5,433C 379.368,432.101 380.368,430.601 380.5,428.5C 379.773,426.047 378.773,423.714 377.5,421.5C 376.167,422.833 374.833,422.833 373.5,421.5C 372.749,422.376 372.249,423.376 372,424.5C 371.667,424.167 371.333,423.833 371,423.5C 370.583,424.756 369.75,425.423 368.5,425.5C 368.082,424.778 367.416,424.278 366.5,424C 367.167,423.667 367.833,423.333 368.5,423C 367.743,421.488 366.743,420.154 365.5,419C 366.5,418.667 367.5,418.333 368.5,418C 367.638,415.266 366.805,415.099 366,417.5C 365.722,416.584 365.222,415.918 364.5,415.5C 364.5,415.167 364.5,414.833 364.5,414.5C 365.115,408.596 367.782,403.929 372.5,400.5 Z"/></g>
<g><path style="opacity:1" fill="#249892" d="M 242.5,437.5 C 242.178,439.107 242.678,440.774 244,442.5C 244.333,441.833 244.667,441.167 245,440.5C 245.667,443.167 246.333,443.167 247,440.5C 247.615,442.116 248.615,443.449 250,444.5C 250.805,442.099 251.638,442.266 252.5,445C 249.703,447.285 249.37,449.785 251.5,452.5C 251.154,453.696 250.654,453.696 250,452.5C 249.667,453.5 249.333,454.5 249,455.5C 248.641,452.456 247.974,452.122 247,454.5C 245.085,449.212 244.418,449.212 245,454.5C 243.925,451.804 242.092,449.804 239.5,448.5C 236.68,449.65 236.346,450.816 238.5,452C 237.167,453.333 237.167,454.667 238.5,456C 237.833,456.333 237.167,456.667 236.5,457C 238.667,457.833 240.167,459.333 241,461.5C 241.667,458.833 242.333,458.833 243,461.5C 244,460.167 245,458.833 246,457.5C 246.667,460.167 247.333,460.167 248,457.5C 248.49,458.793 248.657,460.127 248.5,461.5C 248.215,465.171 247.715,468.837 247,472.5C 246.581,468.148 245.914,467.815 245,471.5C 243.244,470.579 243.077,469.412 244.5,468C 244.387,466.72 243.72,465.887 242.5,465.5C 241.674,467.09 240.34,468.757 238.5,470.5C 235.536,468.038 232.703,465.371 230,462.5C 229.333,458.167 229.333,453.833 230,449.5C 234.036,445.296 238.202,441.296 242.5,437.5 Z"/></g>
<g><path style="opacity:1" fill="#1a709d" d="M 270.5,409.5 C 272.924,411.367 274.924,413.034 276.5,414.5C 277.063,419.062 277.063,423.729 276.5,428.5C 276.846,429.696 277.346,429.696 278,428.5C 278.034,426.82 278.201,425.32 278.5,424C 279.332,423.312 279.998,423.479 280.5,424.5C 280.069,425.293 279.735,426.127 279.5,427C 279.944,428.762 280.444,428.595 281,426.5C 281.658,428.108 281.158,429.275 279.5,430C 280.574,430.739 281.241,431.739 281.5,433C 279.859,434.646 280.193,435.646 282.5,436C 280.015,437.223 279.848,438.723 282,440.5C 282.805,438.099 283.638,438.266 284.5,441C 282.789,442.133 282.289,443.633 283,445.5C 285.706,447.871 288.039,450.537 290,453.5C 291.117,452.051 291.784,450.384 292,448.5C 292.333,449.833 292.667,451.167 293,452.5C 292.068,446.411 294.234,444.578 299.5,447C 297.314,447.604 297.148,448.77 299,450.5C 300.459,448.568 301.625,446.568 302.5,444.5C 302.232,446.099 302.566,447.432 303.5,448.5C 297.5,455.167 291.167,461.5 284.5,467.5C 282.456,466.969 280.789,465.802 279.5,464C 279.833,463.667 280.167,463.333 280.5,463C 277.833,461.667 277.833,460.333 280.5,459C 280.018,457.992 279.852,456.825 280,455.5C 279.333,454.167 278.667,454.167 278,455.5C 276.513,454.747 276.346,453.914 277.5,453C 276.354,452.355 275.354,451.522 274.5,450.5C 273.808,451.025 273.308,451.692 273,452.5C 272.333,449.833 271.667,449.833 271,452.5C 268.875,451.324 266.709,449.491 264.5,447C 265.243,445.182 266.743,443.348 269,441.5C 269.333,441.833 269.667,442.167 270,442.5C 274.348,441.887 275.181,440.054 272.5,437C 272.833,436.667 273.167,436.333 273.5,436C 272.333,435.5 271.5,434.667 271,433.5C 270.667,433.833 270.333,434.167 270,434.5C 268.513,433.747 268.346,432.914 269.5,432C 266.833,431.333 266.833,430.667 269.5,430C 268.061,429.009 267.061,427.676 266.5,426C 266.682,423.347 267.015,420.68 267.5,418C 267.167,417.833 266.833,417.667 266.5,417.5C 265.402,421.361 264.569,421.361 264,417.5C 263.162,418.999 262.329,419.332 261.5,418.5C 264.167,415.167 267.167,412.167 270.5,409.5 Z"/></g>
<g><path style="opacity:1" fill="#0c908f" d="M 403.5,439.5 C 404.268,438.737 404.768,437.737 405,436.5C 405.667,438.5 406.333,440.5 407,442.5C 407.333,441.5 407.667,440.5 408,439.5C 408.667,443.5 409.333,443.5 410,439.5C 410.309,440.766 410.809,441.933 411.5,443C 411.167,443.333 410.833,443.667 410.5,444C 412.901,444.805 412.734,445.638 410,446.5C 406.15,442.797 405.65,443.464 408.5,448.5C 408,449.5 407.5,450.5 407,451.5C 406.237,448.937 405.737,448.937 405.5,451.5C 405.482,453.373 405.982,453.706 407,452.5C 409.158,456.392 409.992,456.392 409.5,452.5C 410.025,451.808 410.692,451.308 411.5,451C 408.835,448.289 409.502,447.289 413.5,448C 413.551,454.25 413.217,460.417 412.5,466.5C 411.71,465.391 411.21,464.058 411,462.5C 410.5,463 410,463.5 409.5,464C 409.665,465.117 409.998,466.284 410.5,467.5C 410.192,468.308 409.692,468.975 409,469.5C 406.597,467.695 404.93,465.362 404,462.5C 403.333,463.833 402.667,463.833 402,462.5C 402.347,460.099 402.513,457.766 402.5,455.5C 401.878,452.626 400.878,449.96 399.5,447.5C 399.509,445.692 399.009,444.025 398,442.5C 397.667,443.5 397.333,444.5 397,445.5C 395.122,443.302 392.955,443.136 390.5,445C 391.572,446.284 392.905,446.617 394.5,446C 395.112,447.303 395.446,448.47 395.5,449.5C 396.251,448.624 396.751,447.624 397,446.5C 397.497,449.146 397.664,451.813 397.5,454.5C 396.811,455.774 395.977,455.774 395,454.5C 394.508,455.549 394.674,456.549 395.5,457.5C 395.192,458.308 394.692,458.975 394,459.5C 392.333,457.5 390.667,455.5 389,453.5C 387.333,455.167 385.667,456.833 384,458.5C 382.5,457 381,455.5 379.5,454C 382.675,452.423 383.009,450.59 380.5,448.5C 382.276,447.685 382.943,446.518 382.5,445C 383.332,444.312 383.998,444.479 384.5,445.5C 385.711,446.72 385.711,447.887 384.5,449C 385,449.5 385.5,450 386,450.5C 386.676,447.344 387.342,444.01 388,440.5C 388.035,444.245 387.035,444.912 385,442.5C 383.442,443.345 382.442,442.679 382,440.5C 380.333,443.167 378.667,443.167 377,440.5C 375.333,441.5 373.667,442.5 372,443.5C 370.868,441.661 370.035,439.661 369.5,437.5C 371.272,437.026 372.939,435.86 374.5,434C 372.422,431.866 370.588,432.032 369,434.5C 366.833,433 367,431.833 369.5,431C 367.447,429.322 367.113,427.489 368.5,425.5C 369.75,425.423 370.583,424.756 371,423.5C 371.333,423.833 371.667,424.167 372,424.5C 372.249,423.376 372.749,422.376 373.5,421.5C 374.833,422.833 376.167,422.833 377.5,421.5C 378.773,423.714 379.773,426.047 380.5,428.5C 380.368,430.601 379.368,432.101 377.5,433C 378.967,434.098 379.801,435.598 380,437.5C 380.333,436.167 380.667,434.833 381,433.5C 381.667,436.167 382.333,436.167 383,433.5C 383.419,434.672 384.085,435.672 385,436.5C 385.617,435.551 385.451,434.718 384.5,434C 385.744,433.544 386.577,434.044 387,435.5C 387.333,434.833 387.667,434.167 388,433.5C 389.439,435.275 390.439,437.275 391,439.5C 391.914,435.815 392.581,436.148 393,440.5C 393.667,432.5 394.333,432.5 395,440.5C 395.333,439.833 395.667,439.167 396,438.5C 396.667,441.167 397.333,441.167 398,438.5C 400.062,440.901 401.729,443.567 403,446.5C 403.333,445.833 403.667,445.167 404,444.5C 404.556,446.595 405.056,446.762 405.5,445C 404.144,443.433 403.477,441.6 403.5,439.5 Z"/></g>
<g><path style="opacity:1" fill="#08869c" d="M 399.5,447.5 C 398.833,449.833 398.167,452.167 397.5,454.5C 397.664,451.813 397.497,449.146 397,446.5C 396.751,447.624 396.251,448.624 395.5,449.5C 395.446,448.47 395.112,447.303 394.5,446C 392.905,446.617 391.572,446.284 390.5,445C 392.955,443.136 395.122,443.302 397,445.5C 397.333,444.5 397.667,443.5 398,442.5C 399.009,444.025 399.509,445.692 399.5,447.5 Z"/></g>
<g><path style="opacity:1" fill="#0d77af" d="M 551.5,453.5 C 566.799,468.298 581.965,483.298 597,498.5C 597.667,503.167 597.667,507.833 597,512.5C 593.964,515.704 590.797,518.704 587.5,521.5C 586.504,521.586 585.671,521.252 585,520.5C 584.333,515.167 583.667,515.167 583,520.5C 582.333,516.5 581.667,516.5 581,520.5C 580.594,517.506 579.094,515.339 576.5,514C 577.28,512.927 577.113,511.76 576,510.5C 575.577,511.956 574.744,512.456 573.5,512C 573.854,510.374 573.854,508.541 573.5,506.5C 570.005,509.197 567.505,508.197 566,503.5C 565.667,504.167 565.333,504.833 565,505.5C 564.5,504.333 563.667,503.5 562.5,503C 563.308,502.692 563.975,502.192 564.5,501.5C 563.902,500.205 563.402,498.872 563,497.5C 562.667,498.5 562.333,499.5 562,500.5C 560.398,495.069 559.065,494.735 558,499.5C 557.104,496.975 557.604,494.808 559.5,493C 558.809,491.933 558.309,490.766 558,489.5C 557.07,491.545 555.57,492.379 553.5,492C 555.439,491.092 556.439,489.592 556.5,487.5C 554.508,487.672 552.842,487.005 551.5,485.5C 549.039,486.307 546.706,485.807 544.5,484C 546.061,482.14 547.728,480.974 549.5,480.5C 548.359,479.575 548.359,478.741 549.5,478C 548.551,477.383 547.718,477.549 547,478.5C 546.536,477.906 546.369,477.239 546.5,476.5C 547.692,475.434 547.359,474.601 545.5,474C 546.711,472.887 546.711,471.72 545.5,470.5C 547.973,468.758 547.973,466.925 545.5,465C 546.126,464.25 546.626,463.416 547,462.5C 548.147,463.458 549.147,463.125 550,461.5C 550.36,459.579 551.194,457.912 552.5,456.5C 551.873,455.583 551.539,454.583 551.5,453.5 Z"/></g>
<g><path style="opacity:1" fill="#0566a4" d="M 541.5,443.5 C 545.167,446.5 548.5,449.833 551.5,453.5C 551.539,454.583 551.873,455.583 552.5,456.5C 551.194,457.912 550.36,459.579 550,461.5C 549.147,463.125 548.147,463.458 547,462.5C 546.626,463.416 546.126,464.25 545.5,465C 547.973,466.925 547.973,468.758 545.5,470.5C 546.711,471.72 546.711,472.887 545.5,474C 547.359,474.601 547.692,475.434 546.5,476.5C 546.158,475.662 545.492,475.328 544.5,475.5C 543.534,473.943 542.2,472.61 540.5,471.5C 539.94,473.377 538.773,475.377 537,477.5C 534.985,475.522 535.152,473.688 537.5,472C 536.366,470.984 536.699,470.317 538.5,470C 537.552,469.517 536.552,469.351 535.5,469.5C 535.313,471.564 534.813,473.564 534,475.5C 534.053,473.064 533.887,470.731 533.5,468.5C 532.719,469.729 532.219,471.062 532,472.5C 531.333,468.5 530.667,468.5 530,472.5C 529.667,471.167 529.333,469.833 529,468.5C 528.549,470.929 527.715,471.096 526.5,469C 525.167,468.333 523.833,468.333 522.5,469C 524.044,469.29 525.377,469.956 526.5,471C 526.899,473.479 526.399,475.979 525,478.5C 524.667,477.833 524.333,477.167 524,476.5C 523.16,479.464 522.16,479.797 521,477.5C 520.259,478.641 519.425,478.641 518.5,477.5C 517.749,478.376 517.249,479.376 517,480.5C 516.333,477.833 515.667,477.833 515,480.5C 514.333,477.833 513.667,477.833 513,480.5C 512.289,478.633 512.789,477.133 514.5,476C 513.333,474.833 512.167,473.667 511,472.5C 510.577,475.133 509.41,477.299 507.5,479C 509.667,480.5 511.5,482.333 513,484.5C 513.805,482.099 514.638,482.266 515.5,485C 515.167,485.333 514.833,485.667 514.5,486C 516.037,487.707 517.704,489.207 519.5,490.5C 520.11,491.391 520.443,492.391 520.5,493.5C 513.5,487.167 506.833,480.5 500.5,473.5C 501.41,470.599 502.91,467.599 505,464.5C 506.449,465.614 507.783,466.614 509,467.5C 508.126,464.809 507.626,462.143 507.5,459.5C 508.391,458.41 509.391,458.41 510.5,459.5C 511.281,458.271 511.781,456.938 512,455.5C 512.338,458.179 513.671,460.179 516,461.5C 519.022,459.101 520.688,460.101 521,464.5C 521.894,461.811 522.394,459.311 522.5,457C 521.707,455.915 521.04,454.748 520.5,453.5C 522.751,451.069 522.918,448.402 521,445.5C 520.667,446.5 520.333,447.5 520,448.5C 519.727,446.671 518.893,445.171 517.5,444C 518.167,443.667 518.833,443.333 519.5,443C 518.346,442.086 518.513,441.253 520,440.5C 521.667,441.833 523.333,443.167 525,444.5C 525.333,443.833 525.667,443.167 526,442.5C 526.981,445.689 528.314,446.022 530,443.5C 530.317,445.301 530.984,445.634 532,444.5C 532.667,445.5 532.667,446.5 532,447.5C 531.667,447.167 531.333,446.833 531,446.5C 530.362,447.609 529.862,448.775 529.5,450C 530.473,450.349 531.306,451.182 532,452.5C 532.667,449.833 533.333,449.833 534,452.5C 535.927,450.407 535.76,448.407 533.5,446.5C 534,445.5 534.5,444.5 535,443.5C 535.988,446.424 536.654,449.424 537,452.5C 537.333,450.833 537.667,449.167 538,447.5C 539.016,446.366 539.683,446.699 540,448.5C 540.711,446.633 540.211,445.133 538.5,444C 539.448,443.517 540.448,443.351 541.5,443.5 Z"/></g>
<g><path style="opacity:1" fill="#149094" d="M 248.5,461.5 C 249.5,461.5 250.5,461.5 251.5,461.5C 251.351,462.552 251.517,463.552 252,464.5C 254.578,466.682 256.412,468.849 257.5,471C 256.833,471.333 256.167,471.667 255.5,472C 257.332,472.748 258.999,473.748 260.5,475C 259.273,476.587 259.606,477.921 261.5,479C 260.667,479.833 259.833,480.667 259,481.5C 258.088,478.802 256.421,476.135 254,473.5C 253.626,474.416 253.126,475.25 252.5,476C 252.833,477.667 253.167,479.333 253.5,481C 253,481.5 252.5,482 252,482.5C 251.439,480.275 250.439,478.275 249,476.5C 247.961,477.244 247.461,478.244 247.5,479.5C 244.167,476.833 241.167,473.833 238.5,470.5C 240.34,468.757 241.674,467.09 242.5,465.5C 243.72,465.887 244.387,466.72 244.5,468C 243.077,469.412 243.244,470.579 245,471.5C 245.914,467.815 246.581,468.148 247,472.5C 247.715,468.837 248.215,465.171 248.5,461.5 Z"/></g>
<g><path style="opacity:0.58" fill="#68becf" d="M 413.5,467.5 C 413.833,467.5 414.167,467.5 414.5,467.5C 414.5,507.833 414.5,548.167 414.5,588.5C 413.511,583.025 413.178,577.358 413.5,571.5C 413.5,563.5 413.5,555.5 413.5,547.5C 413.186,519.545 413.186,492.878 413.5,467.5 Z"/></g>
<g><path style="opacity:1" fill="#0673a3" d="M 544.5,475.5 C 545.408,477.452 545.241,479.452 544,481.5C 543.667,480.5 543.333,479.5 543,478.5C 541.442,479.345 540.442,478.679 540,476.5C 539.167,478 538,479.167 536.5,480C 537.328,480.915 538.328,481.581 539.5,482C 538.636,483.137 537.636,484.47 536.5,486C 539.167,486.667 539.167,487.333 536.5,488C 539.014,490.067 538.848,491.567 536,492.5C 535.25,491.874 534.416,491.374 533.5,491C 534.654,490.086 534.487,489.253 533,488.5C 532.333,489.833 531.667,491.167 531,492.5C 530.683,490.699 530.016,490.366 529,491.5C 527.837,489.715 527.17,487.715 527,485.5C 526.333,486.833 525.667,486.833 525,485.5C 524.529,483.754 523.862,482.087 523,480.5C 521.372,481.819 521.539,483.152 523.5,484.5C 522.965,486.271 522.131,486.604 521,485.5C 520.205,487.514 519.705,489.18 519.5,490.5C 517.704,489.207 516.037,487.707 514.5,486C 514.833,485.667 515.167,485.333 515.5,485C 514.638,482.266 513.805,482.099 513,484.5C 511.5,482.333 509.667,480.5 507.5,479C 509.41,477.299 510.577,475.133 511,472.5C 512.167,473.667 513.333,474.833 514.5,476C 512.789,477.133 512.289,478.633 513,480.5C 513.667,477.833 514.333,477.833 515,480.5C 515.667,477.833 516.333,477.833 517,480.5C 517.249,479.376 517.749,478.376 518.5,477.5C 519.425,478.641 520.259,478.641 521,477.5C 522.16,479.797 523.16,479.464 524,476.5C 524.333,477.167 524.667,477.833 525,478.5C 526.399,475.979 526.899,473.479 526.5,471C 525.377,469.956 524.044,469.29 522.5,469C 523.833,468.333 525.167,468.333 526.5,469C 527.715,471.096 528.549,470.929 529,468.5C 529.333,469.833 529.667,471.167 530,472.5C 530.667,468.5 531.333,468.5 532,472.5C 532.219,471.062 532.719,469.729 533.5,468.5C 533.887,470.731 534.053,473.064 534,475.5C 534.813,473.564 535.313,471.564 535.5,469.5C 536.552,469.351 537.552,469.517 538.5,470C 536.699,470.317 536.366,470.984 537.5,472C 535.152,473.688 534.985,475.522 537,477.5C 538.773,475.377 539.94,473.377 540.5,471.5C 542.2,472.61 543.534,473.943 544.5,475.5 Z"/></g>
<g><path style="opacity:1" fill="#087da4" d="M 544.5,475.5 C 545.492,475.328 546.158,475.662 546.5,476.5C 546.369,477.239 546.536,477.906 547,478.5C 547.718,477.549 548.551,477.383 549.5,478C 548.359,478.741 548.359,479.575 549.5,480.5C 547.728,480.974 546.061,482.14 544.5,484C 546.706,485.807 549.039,486.307 551.5,485.5C 552.842,487.005 554.508,487.672 556.5,487.5C 556.439,489.592 555.439,491.092 553.5,492C 555.57,492.379 557.07,491.545 558,489.5C 558.309,490.766 558.809,491.933 559.5,493C 557.604,494.808 557.104,496.975 558,499.5C 559.065,494.735 560.398,495.069 562,500.5C 562.333,499.5 562.667,498.5 563,497.5C 563.402,498.872 563.902,500.205 564.5,501.5C 563.975,502.192 563.308,502.692 562.5,503C 563.667,503.5 564.5,504.333 565,505.5C 565.333,504.833 565.667,504.167 566,503.5C 567.505,508.197 570.005,509.197 573.5,506.5C 573.854,508.541 573.854,510.374 573.5,512C 574.744,512.456 575.577,511.956 576,510.5C 577.113,511.76 577.28,512.927 576.5,514C 579.094,515.339 580.594,517.506 581,520.5C 581.667,516.5 582.333,516.5 583,520.5C 583.667,515.167 584.333,515.167 585,520.5C 585.671,521.252 586.504,521.586 587.5,521.5C 583.37,526.131 579.037,530.631 574.5,535C 570.167,535.667 565.833,535.667 561.5,535C 547.631,521.299 533.965,507.465 520.5,493.5C 520.443,492.391 520.11,491.391 519.5,490.5C 519.705,489.18 520.205,487.514 521,485.5C 522.131,486.604 522.965,486.271 523.5,484.5C 521.539,483.152 521.372,481.819 523,480.5C 523.862,482.087 524.529,483.754 525,485.5C 525.667,486.833 526.333,486.833 527,485.5C 527.17,487.715 527.837,489.715 529,491.5C 530.016,490.366 530.683,490.699 531,492.5C 531.667,491.167 532.333,489.833 533,488.5C 534.487,489.253 534.654,490.086 533.5,491C 534.416,491.374 535.25,491.874 536,492.5C 538.848,491.567 539.014,490.067 536.5,488C 539.167,487.333 539.167,486.667 536.5,486C 537.636,484.47 538.636,483.137 539.5,482C 538.328,481.581 537.328,480.915 536.5,480C 538,479.167 539.167,478 540,476.5C 540.442,478.679 541.442,479.345 543,478.5C 543.333,479.5 543.667,480.5 544,481.5C 545.241,479.452 545.408,477.452 544.5,475.5 Z"/></g>
<g><path style="opacity:1" fill="#3daf63" d="M 364.5,534.5 C 365.652,535.625 366.652,535.625 367.5,534.5C 369.919,537.191 371.752,540.191 373,543.5C 374.362,542.075 375.862,541.242 377.5,541C 377.167,541.333 376.833,541.667 376.5,542C 379.106,543.938 380.939,546.438 382,549.5C 382.333,548.833 382.667,548.167 383,547.5C 384.614,549.878 386.281,552.211 388,554.5C 388.333,553.833 388.667,553.167 389,552.5C 390.439,554.275 391.439,556.275 392,558.5C 392.333,557.5 392.667,556.5 393,555.5C 393.333,557.167 393.667,558.833 394,560.5C 394.333,559.5 394.667,558.5 395,557.5C 396.333,559.5 397.667,561.5 399,563.5C 399.333,562.833 399.667,562.167 400,561.5C 402.827,564.329 404.827,567.663 406,571.5C 406.36,569.579 407.194,567.912 408.5,566.5C 408.874,568.885 410.541,570.552 413.5,571.5C 413.178,577.358 413.511,583.025 414.5,588.5C 414.5,596.833 414.5,605.167 414.5,613.5C 419.121,612.993 423.454,613.826 427.5,616C 429.54,618.185 430.874,620.685 431.5,623.5C 431.829,629.537 431.496,635.537 430.5,641.5C 429.315,640.147 427.981,638.98 426.5,638C 429.028,635.925 428.861,635.092 426,635.5C 425.155,632.588 423.488,631.588 421,632.5C 419.374,629.872 417.374,627.539 415,625.5C 414.667,625.833 414.333,626.167 414,626.5C 413.333,622.5 412.667,622.5 412,626.5C 411.02,624.741 410.353,623.074 410,621.5C 409.333,622.167 408.667,622.833 408,623.5C 408.453,618.897 407.453,618.23 405,621.5C 404.333,618.833 403.667,618.833 403,621.5C 401.238,619.064 399.904,616.398 399,613.5C 398.641,616.544 397.974,616.878 397,614.5C 396.667,614.833 396.333,615.167 396,615.5C 396.227,613.312 395.894,610.979 395,608.5C 393.905,613.39 393.238,613.39 393,608.5C 391.853,607.542 390.853,607.875 390,609.5C 389.333,604.167 388.667,604.167 388,609.5C 387.667,608.5 387.333,607.5 387,606.5C 385.334,607.34 385.167,606.84 386.5,605C 385.809,603.933 385.309,602.766 385,601.5C 384.086,605.185 383.419,604.852 383,600.5C 382.667,601.833 382.333,603.167 382,604.5C 381.724,602.233 381.057,599.9 380,597.5C 379.667,598.5 379.333,599.5 379,600.5C 378.409,595.623 377.076,594.956 375,598.5C 374.508,597.451 374.674,596.451 375.5,595.5C 374.139,593.972 372.972,592.305 372,590.5C 371.333,591.833 370.667,593.167 370,594.5C 369.641,591.456 368.974,591.122 368,593.5C 367.355,592.354 366.522,591.354 365.5,590.5C 364.868,583.703 364.201,577.037 363.5,570.5C 363.5,561.833 363.5,553.167 363.5,544.5C 364.479,541.375 364.813,538.042 364.5,534.5 Z"/></g>
<g><path style="opacity:1" fill="#24a376" d="M 413.5,547.5 C 413.5,555.5 413.5,563.5 413.5,571.5C 410.541,570.552 408.874,568.885 408.5,566.5C 407.194,567.912 406.36,569.579 406,571.5C 404.827,567.663 402.827,564.329 400,561.5C 399.667,562.167 399.333,562.833 399,563.5C 397.667,561.5 396.333,559.5 395,557.5C 394.667,558.5 394.333,559.5 394,560.5C 393.667,558.833 393.333,557.167 393,555.5C 392.667,556.5 392.333,557.5 392,558.5C 391.439,556.275 390.439,554.275 389,552.5C 388.667,553.167 388.333,553.833 388,554.5C 386.281,552.211 384.614,549.878 383,547.5C 382.667,548.167 382.333,548.833 382,549.5C 380.939,546.438 379.106,543.938 376.5,542C 376.833,541.667 377.167,541.333 377.5,541C 375.862,541.242 374.362,542.075 373,543.5C 371.752,540.191 369.919,537.191 367.5,534.5C 365.678,533.719 365.011,532.552 365.5,531C 366.471,529.796 367.471,529.296 368.5,529.5C 368.291,528.914 367.957,528.414 367.5,528C 369.009,526.326 369.676,524.66 369.5,523C 368.833,522.333 368.167,521.667 367.5,521C 369,519.5 370.5,518 372,516.5C 372.833,517.333 373.667,518.167 374.5,519C 373.968,523.423 373.635,527.923 373.5,532.5C 373.667,532.833 373.833,533.167 374,533.5C 375.101,531.606 376.434,530.939 378,531.5C 377.57,533.127 377.404,534.627 377.5,536C 378.88,537.324 379.214,538.657 378.5,540C 380.709,541.873 382.542,544.04 384,546.5C 383.032,543.327 381.866,540.494 380.5,538C 381.5,537 382.5,536 383.5,535C 383.167,534 382.833,533 382.5,532C 383.253,530.513 384.086,530.346 385,531.5C 386.101,529.606 387.434,528.939 389,529.5C 389.007,531.619 390.174,533.453 392.5,535C 391.833,536 391.167,537 390.5,538C 390.833,539.667 391.167,541.333 391.5,543C 389.715,544.593 389.548,546.093 391,547.5C 391.242,545.862 392.075,544.362 393.5,543C 392.911,541.111 392.577,539.111 392.5,537C 393.552,535.881 394.719,535.381 396,535.5C 398.846,539.084 402.013,541.584 405.5,543C 405.167,543.333 404.833,543.667 404.5,544C 405.657,545.621 406.49,547.455 407,549.5C 408,548.5 409,547.5 410,546.5C 410.953,548.373 412.12,548.706 413.5,547.5 Z"/></g>
<g><path style="opacity:0.996" fill="#69bb50" d="M 363.5,570.5 C 364.201,577.037 364.868,583.703 365.5,590.5C 366.522,591.354 367.355,592.354 368,593.5C 368.974,591.122 369.641,591.456 370,594.5C 370.667,593.167 371.333,591.833 372,590.5C 372.972,592.305 374.139,593.972 375.5,595.5C 374.674,596.451 374.508,597.451 375,598.5C 377.076,594.956 378.409,595.623 379,600.5C 379.333,599.5 379.667,598.5 380,597.5C 381.057,599.9 381.724,602.233 382,604.5C 382.333,603.167 382.667,601.833 383,600.5C 383.419,604.852 384.086,605.185 385,601.5C 385.309,602.766 385.809,603.933 386.5,605C 385.167,606.84 385.334,607.34 387,606.5C 387.333,607.5 387.667,608.5 388,609.5C 388.667,604.167 389.333,604.167 390,609.5C 390.853,607.875 391.853,607.542 393,608.5C 393.238,613.39 393.905,613.39 395,608.5C 395.894,610.979 396.227,613.312 396,615.5C 396.333,615.167 396.667,614.833 397,614.5C 397.974,616.878 398.641,616.544 399,613.5C 399.904,616.398 401.238,619.064 403,621.5C 403.667,618.833 404.333,618.833 405,621.5C 407.453,618.23 408.453,618.897 408,623.5C 408.667,622.833 409.333,622.167 410,621.5C 410.353,623.074 411.02,624.741 412,626.5C 412.667,622.5 413.333,622.5 414,626.5C 414.333,626.167 414.667,625.833 415,625.5C 417.374,627.539 419.374,629.872 421,632.5C 423.488,631.588 425.155,632.588 426,635.5C 428.861,635.092 429.028,635.925 426.5,638C 427.981,638.98 429.315,640.147 430.5,641.5C 431.496,635.537 431.829,629.537 431.5,623.5C 432.662,641.662 432.829,659.995 432,678.5C 425.631,685.036 419.131,691.369 412.5,697.5C 412.029,694.539 412.029,691.705 412.5,689C 411.5,688 410.5,687 409.5,686C 409.112,684.475 409.112,682.808 409.5,681C 406.277,676.644 404.277,676.978 403.5,682C 402.833,682.667 402.167,682.667 401.5,682C 402.696,681.346 402.696,680.846 401.5,680.5C 399.492,682.762 399.159,682.262 400.5,679C 398.734,677.302 396.734,675.969 394.5,675C 395.999,674.162 396.332,673.329 395.5,672.5C 396.706,671.12 396.373,669.953 394.5,669C 389.316,668.826 384.316,668.326 379.5,667.5C 385.509,667.666 391.509,667.499 397.5,667C 398,666.5 398.5,666 399,665.5C 399.5,659.175 399.666,652.842 399.5,646.5C 392.468,646.17 385.468,646.503 378.5,647.5C 377.543,653.439 377.21,659.439 377.5,665.5C 376.698,666.952 376.198,668.618 376,670.5C 375.581,666.148 374.914,665.815 374,669.5C 372.409,667.073 371.575,664.407 371.5,661.5C 372.573,660.749 372.74,659.749 372,658.5C 371.333,657.167 370.667,657.167 370,658.5C 368.887,657.24 368.72,656.073 369.5,655C 367.126,652.961 365.126,650.628 363.5,648C 364.03,645.864 363.197,644.03 361,642.5C 360.333,645.167 359.667,647.833 359,650.5C 358.749,648.567 358.249,646.734 357.5,645C 357.957,644.586 358.291,644.086 358.5,643.5C 357.239,640.736 355.405,638.403 353,636.5C 352.647,638.074 351.98,639.741 351,641.5C 349.636,640.742 348.469,641.242 347.5,643C 348.171,643.986 348.171,645.153 347.5,646.5C 346.833,660.167 346.167,673.833 345.5,687.5C 345.333,665.831 345.5,644.164 346,622.5C 349.503,615.164 355.337,612.164 363.5,613.5C 363.5,599.167 363.5,584.833 363.5,570.5 Z M 379.5,667.5 C 378.833,666.833 378.167,666.167 377.5,665.5C 377.21,659.439 377.543,653.439 378.5,647.5C 385.468,646.503 392.468,646.17 399.5,646.5C 399.666,652.842 399.5,659.175 399,665.5C 398.5,666 398,666.5 397.5,667C 391.509,667.499 385.509,667.666 379.5,667.5 Z"/></g>
<g><path style="opacity:1" fill="#84c834" d="M 371.5,661.5 C 371.575,664.407 372.409,667.073 374,669.5C 374.914,665.815 375.581,666.148 376,670.5C 376.198,668.618 376.698,666.952 377.5,665.5C 378.167,666.167 378.833,666.833 379.5,667.5C 384.316,668.326 389.316,668.826 394.5,669C 396.373,669.953 396.706,671.12 395.5,672.5C 394.206,671.71 393.039,670.71 392,669.5C 388.699,669.499 385.199,669.666 381.5,670C 380.216,671.297 380.383,672.464 382,673.5C 382.333,672.833 382.667,672.167 383,671.5C 385.64,676.134 388.973,680.134 393,683.5C 393.667,680.833 394.333,680.833 395,683.5C 395.333,682.833 395.667,682.167 396,681.5C 397.667,683.167 399.333,684.833 401,686.5C 401.333,685.833 401.667,685.167 402,684.5C 402.195,686.207 402.195,687.874 402,689.5C 403.016,690.634 403.683,690.301 404,688.5C 404.374,689.416 404.874,690.25 405.5,691C 403.464,692.819 403.297,694.653 405,696.5C 406.828,694.193 408.494,694.526 410,697.5C 411.107,696.288 411.607,696.621 411.5,698.5C 411.389,699.117 411.056,699.617 410.5,700C 392.167,700.667 373.833,700.667 355.5,700C 349.021,698.354 345.687,694.187 345.5,687.5C 346.167,673.833 346.833,660.167 347.5,646.5C 347.461,647.756 347.961,648.756 349,649.5C 350.163,647.715 350.83,645.715 351,643.5C 351.502,647.497 352.835,651.164 355,654.5C 355.667,650.5 356.333,650.5 357,654.5C 357.333,653.833 357.667,653.167 358,652.5C 359.667,655.167 361.333,657.833 363,660.5C 363.333,659.833 363.667,659.167 364,658.5C 364.667,659.833 365.333,661.167 366,662.5C 366.333,661.5 366.667,660.5 367,659.5C 367.461,663.532 368.961,664.199 371.5,661.5 Z"/></g>
<g><path style="opacity:0.996" fill="#74c13d" d="M 371.5,661.5 C 368.961,664.199 367.461,663.532 367,659.5C 366.667,660.5 366.333,661.5 366,662.5C 365.333,661.167 364.667,659.833 364,658.5C 363.667,659.167 363.333,659.833 363,660.5C 361.333,657.833 359.667,655.167 358,652.5C 357.667,653.167 357.333,653.833 357,654.5C 356.333,650.5 355.667,650.5 355,654.5C 352.835,651.164 351.502,647.497 351,643.5C 350.83,645.715 350.163,647.715 349,649.5C 347.961,648.756 347.461,647.756 347.5,646.5C 348.171,645.153 348.171,643.986 347.5,643C 348.469,641.242 349.636,640.742 351,641.5C 351.98,639.741 352.647,638.074 353,636.5C 355.405,638.403 357.239,640.736 358.5,643.5C 358.291,644.086 357.957,644.586 357.5,645C 358.249,646.734 358.749,648.567 359,650.5C 359.667,647.833 360.333,645.167 361,642.5C 363.197,644.03 364.03,645.864 363.5,648C 365.126,650.628 367.126,652.961 369.5,655C 368.72,656.073 368.887,657.24 370,658.5C 370.667,657.167 371.333,657.167 372,658.5C 372.74,659.749 372.573,660.749 371.5,661.5 Z"/></g>
<g><path style="opacity:0.996" fill="#75c13e" d="M 395.5,672.5 C 396.332,673.329 395.999,674.162 394.5,675C 396.734,675.969 398.734,677.302 400.5,679C 399.159,682.262 399.492,682.762 401.5,680.5C 402.696,680.846 402.696,681.346 401.5,682C 402.167,682.667 402.833,682.667 403.5,682C 404.277,676.978 406.277,676.644 409.5,681C 409.112,682.808 409.112,684.475 409.5,686C 410.5,687 411.5,688 412.5,689C 412.029,691.705 412.029,694.539 412.5,697.5C 412.5,698.167 412.167,698.5 411.5,698.5C 411.607,696.621 411.107,696.288 410,697.5C 408.494,694.526 406.828,694.193 405,696.5C 403.297,694.653 403.464,692.819 405.5,691C 404.874,690.25 404.374,689.416 404,688.5C 403.683,690.301 403.016,690.634 402,689.5C 402.195,687.874 402.195,686.207 402,684.5C 401.667,685.167 401.333,685.833 401,686.5C 399.333,684.833 397.667,683.167 396,681.5C 395.667,682.167 395.333,682.833 395,683.5C 394.333,680.833 393.667,680.833 393,683.5C 388.973,680.134 385.64,676.134 383,671.5C 382.667,672.167 382.333,672.833 382,673.5C 380.383,672.464 380.216,671.297 381.5,670C 385.199,669.666 388.699,669.499 392,669.5C 393.039,670.71 394.206,671.71 395.5,672.5 Z"/></g>
</svg>
