<?xml version="1.0" encoding="UTF-8"?>
<!DOCTYPE svg PUBLIC "-//W3C//DTD SVG 1.1//EN" "http://www.w3.org/Graphics/SVG/1.1/DTD/svg11.dtd">
<svg xmlns="http://www.w3.org/2000/svg" version="1.1" width="1991px" height="518px" style="shape-rendering:geometricPrecision; text-rendering:geometricPrecision; image-rendering:optimizeQuality; fill-rule:evenodd; clip-rule:evenodd" xmlns:xlink="http://www.w3.org/1999/xlink">
<g><path style="opacity:0.953" fill="#000000" d="M 546.5,99.5 C 556.937,99.399 566.937,101.399 576.5,105.5C 577.664,112.476 577.831,119.476 577,126.5C 567.411,119.874 556.911,117.708 545.5,120C 542.527,121.224 541.86,123.224 543.5,126C 553.248,129.805 562.914,133.805 572.5,138C 583.271,145.652 586.438,155.819 582,168.5C 578.911,175.256 573.745,179.423 566.5,181C 550.649,184.344 535.482,182.511 521,175.5C 520.333,168.5 520.333,161.5 521,154.5C 531.99,162.166 544.157,164.999 557.5,163C 562.107,160.765 562.441,158.098 558.5,155C 549.5,151.333 540.5,147.667 531.5,144C 518.659,134.798 516.159,123.298 524,109.5C 530.436,103.527 537.936,100.194 546.5,99.5 Z"/></g>
<g><path style="opacity:0.952" fill="#000000" d="M 699.5,99.5 C 708.42,99.5832 717.087,101.083 725.5,104C 726.646,111.086 726.812,118.253 726,125.5C 718.026,119.892 709.193,118.059 699.5,120C 684.86,125.214 679.693,135.38 684,150.5C 687.417,157.966 693.25,162.132 701.5,163C 710.923,164.353 719.423,162.186 727,156.5C 727.5,163.826 727.666,171.159 727.5,178.5C 713.666,183.149 699.666,183.649 685.5,180C 663.431,170.208 655.264,153.375 661,129.5C 664.833,115 674,105.833 688.5,102C 692.312,101.205 695.979,100.371 699.5,99.5 Z"/></g>
<g><path style="opacity:0.966" fill="#000000" d="M 593.5,101.5 C 612.833,101.5 632.167,101.5 651.5,101.5C 651.5,107.833 651.5,114.167 651.5,120.5C 639.5,120.5 627.5,120.5 615.5,120.5C 615.5,124.167 615.5,127.833 615.5,131.5C 626.5,131.5 637.5,131.5 648.5,131.5C 648.5,137.833 648.5,144.167 648.5,150.5C 637.5,150.5 626.5,150.5 615.5,150.5C 615.5,154.5 615.5,158.5 615.5,162.5C 627.833,162.5 640.167,162.5 652.5,162.5C 652.5,168.5 652.5,174.5 652.5,180.5C 632.833,180.5 613.167,180.5 593.5,180.5C 593.5,154.167 593.5,127.833 593.5,101.5 Z"/></g>
<g><path style="opacity:0.954" fill="#000000" d="M 732.5,101.5 C 754.833,101.5 777.167,101.5 799.5,101.5C 799.5,108.167 799.5,114.833 799.5,121.5C 792.167,121.5 784.833,121.5 777.5,121.5C 777.5,141.167 777.5,160.833 777.5,180.5C 770.167,180.5 762.833,180.5 755.5,180.5C 755.5,160.833 755.5,141.167 755.5,121.5C 747.833,121.5 740.167,121.5 732.5,121.5C 732.5,114.833 732.5,108.167 732.5,101.5 Z"/></g>
<g><path style="opacity:0.96" fill="#000000" d="M 807.5,101.5 C 814.833,101.5 822.167,101.5 829.5,101.5C 829.5,127.833 829.5,154.167 829.5,180.5C 822.167,180.5 814.833,180.5 807.5,180.5C 807.5,154.167 807.5,127.833 807.5,101.5 Z"/></g>
<g><path style="opacity:0.995" fill="#015caa" d="M 1046.5,112.5 C 1314.83,112.333 1583.17,112.5 1851.5,113C 1881.88,118.103 1900.72,135.603 1908,165.5C 1909.64,231.806 1909.98,298.14 1909,364.5C 1904.08,398.087 1884.91,417.92 1851.5,424C 1583.17,424.667 1314.83,424.667 1046.5,424C 1016.97,419.137 998.136,402.303 990,373.5C 988.354,305.531 988.02,237.531 989,169.5C 995.453,137.546 1014.62,118.546 1046.5,112.5 Z"/></g>
<g><path style="opacity:1" fill="#f3f7fb" d="M 1161.5,145.5 C 1163.53,149.237 1165.2,153.237 1166.5,157.5C 1171.5,158.167 1176.5,158.833 1181.5,159.5C 1177.86,161.975 1174.36,164.642 1171,167.5C 1171.22,172.332 1172.38,176.999 1174.5,181.5C 1174.17,181.833 1173.83,182.167 1173.5,182.5C 1169.77,179.441 1165.77,176.774 1161.5,174.5C 1157.58,177.043 1153.75,179.71 1150,182.5C 1150.12,177.797 1151.29,173.297 1153.5,169C 1149.83,165.831 1146.16,162.665 1142.5,159.5C 1147.13,158.672 1151.8,158.172 1156.5,158C 1158.08,153.737 1159.75,149.57 1161.5,145.5 Z"/></g>
<g><path style="opacity:1" fill="#fafbfd" d="M 1226.5,264.5 C 1226.81,267.713 1226.48,270.713 1225.5,273.5C 1220.34,266.311 1214.34,265.644 1207.5,271.5C 1204.23,268.699 1200.56,266.699 1196.5,265.5C 1193.97,265.763 1191.64,266.596 1189.5,268C 1187.9,270.111 1185.9,271.611 1183.5,272.5C 1180.34,270.806 1177,270.306 1173.5,271C 1170.58,273.416 1168.24,276.25 1166.5,279.5C 1165.83,279.833 1165.17,280.167 1164.5,280.5C 1163.5,266.677 1163.17,252.677 1163.5,238.5C 1168.4,236.051 1173.4,233.551 1178.5,231C 1181.5,230.333 1184.5,230.333 1187.5,231C 1191.99,233.079 1196.33,235.412 1200.5,238C 1203.17,238.667 1205.83,238.667 1208.5,238C 1211.83,236 1215.17,234 1218.5,232C 1219.12,230.6 1219.45,229.1 1219.5,227.5C 1218.53,217.9 1217.19,208.4 1215.5,199C 1198.57,192.895 1181.07,190.062 1163,190.5C 1145.48,189.946 1128.31,192.113 1111.5,197C 1109.71,197.785 1108.21,198.951 1107,200.5C 1105.03,211.016 1104.2,221.516 1104.5,232C 1108.91,235.07 1113.74,237.236 1119,238.5C 1124.95,236.942 1130.45,234.442 1135.5,231C 1138.83,230.333 1142.17,230.333 1145.5,231C 1150.06,233.735 1154.73,236.235 1159.5,238.5C 1160.67,252.488 1160.83,266.488 1160,280.5C 1156.49,276.387 1152.32,275.554 1147.5,278C 1145.04,279.458 1142.87,281.291 1141,283.5C 1139.68,280.312 1139.18,276.978 1139.5,273.5C 1137.71,268.843 1138.21,264.51 1141,260.5C 1141.67,257.167 1141.67,253.833 1141,250.5C 1137.62,248.727 1135.45,249.727 1134.5,253.5C 1133.47,249.851 1131.14,248.685 1127.5,250C 1126.34,254.101 1125.18,254.268 1124,250.5C 1119.08,248.75 1117.25,250.584 1118.5,256C 1118.11,259.638 1119.11,262.805 1121.5,265.5C 1120.88,270.482 1120.21,275.482 1119.5,280.5C 1118.39,279.389 1117.06,278.722 1115.5,278.5C 1113.2,279.396 1110.87,279.562 1108.5,279C 1106.62,276.778 1104.45,274.944 1102,273.5C 1100.36,273.978 1099.19,274.978 1098.5,276.5C 1096.69,275.082 1096.03,273.082 1096.5,270.5C 1098.08,246.409 1100.58,222.409 1104,198.5C 1106.1,195.533 1108.93,193.7 1112.5,193C 1140.61,186.878 1168.95,185.878 1197.5,190C 1204.36,191.381 1211.02,193.381 1217.5,196C 1218.46,197.419 1219.29,198.919 1220,200.5C 1222.57,221.799 1224.74,243.132 1226.5,264.5 Z"/></g>
<g><path style="opacity:1" fill="#0d5fab" d="M 1163.5,238.5 C 1162.17,252.672 1162.17,267.006 1163.5,281.5C 1164.11,281.376 1164.44,281.043 1164.5,280.5C 1165.17,280.167 1165.83,279.833 1166.5,279.5C 1166.5,280.167 1166.83,280.5 1167.5,280.5C 1166.47,282.194 1165.14,283.527 1163.5,284.5C 1162.67,293.991 1162.17,303.658 1162,313.5C 1161.83,303.658 1161.33,293.991 1160.5,284.5C 1157.91,280.417 1154.24,278.917 1149.5,280C 1142.21,285.626 1135.21,291.626 1128.5,298C 1126.06,299.303 1123.56,300.47 1121,301.5C 1120.5,301.167 1120,300.833 1119.5,300.5C 1122.02,297.273 1123.35,293.607 1123.5,289.5C 1123.5,288.833 1123.83,288.5 1124.5,288.5C 1126.4,289.368 1128.24,290.368 1130,291.5C 1137.78,288.868 1140.61,283.534 1138.5,275.5C 1138.33,274.508 1138.66,273.842 1139.5,273.5C 1139.18,276.978 1139.68,280.312 1141,283.5C 1142.87,281.291 1145.04,279.458 1147.5,278C 1152.32,275.554 1156.49,276.387 1160,280.5C 1160.83,266.488 1160.67,252.488 1159.5,238.5C 1154.73,236.235 1150.06,233.735 1145.5,231C 1142.17,230.333 1138.83,230.333 1135.5,231C 1130.45,234.442 1124.95,236.942 1119,238.5C 1113.74,237.236 1108.91,235.07 1104.5,232C 1104.2,221.516 1105.03,211.016 1107,200.5C 1108.21,198.951 1109.71,197.785 1111.5,197C 1128.31,192.113 1145.48,189.946 1163,190.5C 1181.07,190.062 1198.57,192.895 1215.5,199C 1217.19,208.4 1218.53,217.9 1219.5,227.5C 1219.45,229.1 1219.12,230.6 1218.5,232C 1215.17,234 1211.83,236 1208.5,238C 1205.83,238.667 1203.17,238.667 1200.5,238C 1196.33,235.412 1191.99,233.079 1187.5,231C 1184.5,230.333 1181.5,230.333 1178.5,231C 1173.4,233.551 1168.4,236.051 1163.5,238.5 Z"/></g>
<g><path style="opacity:1" fill="#f3f7fb" d="M 1174.5,206.5 C 1174.5,204.833 1174.5,203.167 1174.5,201.5C 1176.75,200.365 1179.08,199.865 1181.5,200C 1178.83,202.667 1178.83,205.333 1181.5,208C 1179.08,208.135 1176.75,207.635 1174.5,206.5 Z"/></g>
<g><path style="opacity:1" fill="#83aed5" d="M 1242.5,202.5 C 1242.16,201.662 1241.49,201.328 1240.5,201.5C 1241.2,195.808 1242.2,195.474 1243.5,200.5C 1243.46,201.416 1243.12,202.083 1242.5,202.5 Z"/></g>
<g><path style="opacity:1" fill="#e6eff6" d="M 1169.5,201.5 C 1170.57,202.434 1171.9,202.768 1173.5,202.5C 1173.5,203.5 1173.5,204.5 1173.5,205.5C 1171.9,205.232 1170.57,205.566 1169.5,206.5C 1169.37,208.09 1168.71,209.423 1167.5,210.5C 1165.15,208.771 1162.48,208.104 1159.5,208.5C 1159.14,213.515 1157.8,213.682 1155.5,209C 1151.31,208.926 1147.31,208.093 1143.5,206.5C 1142.27,205.349 1142.27,204.183 1143.5,203C 1148.09,201.519 1152.76,200.352 1157.5,199.5C 1157.83,198.5 1158.5,197.833 1159.5,197.5C 1162.17,201.249 1165.01,201.249 1168,197.5C 1168.79,198.745 1169.29,200.078 1169.5,201.5 Z"/></g>
<g><path style="opacity:1" fill="#dee9f4" d="M 1240.5,201.5 C 1241.49,201.328 1242.16,201.662 1242.5,202.5C 1242.72,203.735 1243.39,204.735 1244.5,205.5C 1243.23,209.126 1244.23,211.126 1247.5,211.5C 1246.59,214.421 1246.26,217.421 1246.5,220.5C 1246.67,221.492 1246.34,222.158 1245.5,222.5C 1245.66,219.482 1245.5,216.482 1245,213.5C 1244.21,211.396 1242.71,210.063 1240.5,209.5C 1241.17,208.833 1241.83,208.167 1242.5,207.5C 1241.47,205.639 1239.97,204.305 1238,203.5C 1236.75,200.923 1236.42,198.257 1237,195.5C 1237.01,198.264 1238.17,200.264 1240.5,201.5 Z"/></g>
<g><path style="opacity:1" fill="#5c95c8" d="M 1169.5,201.5 C 1171.17,201.5 1172.83,201.5 1174.5,201.5C 1174.5,203.167 1174.5,204.833 1174.5,206.5C 1172.83,206.5 1171.17,206.5 1169.5,206.5C 1170.57,205.566 1171.9,205.232 1173.5,205.5C 1173.5,204.5 1173.5,203.5 1173.5,202.5C 1171.9,202.768 1170.57,202.434 1169.5,201.5 Z"/></g>
<g><path style="opacity:1" fill="#e4edf6" d="M 1076.5,241.5 C 1075.66,237.738 1075.66,233.738 1076.5,229.5C 1077.49,222.353 1080.49,216.187 1085.5,211C 1086.76,210.018 1088.09,209.685 1089.5,210C 1083.62,216.919 1079.79,224.753 1078,233.5C 1080.05,228.786 1082.88,224.619 1086.5,221C 1087.5,220.333 1088.5,220.333 1089.5,221C 1083.77,226.96 1079.44,233.793 1076.5,241.5 Z"/></g>
<g><path style="opacity:1" fill="#ecf2f8" d="M 1244.5,223.5 C 1244.5,223.833 1244.5,224.167 1244.5,224.5C 1242.5,227.416 1239.83,229.75 1236.5,231.5C 1227.36,222.727 1228.52,216.06 1240,211.5C 1241.1,213.053 1242.43,214.386 1244,215.5C 1244.04,218.296 1244.21,220.963 1244.5,223.5 Z"/></g>
<g><path style="opacity:0.876" fill="#000000" d="M 104.5,213.5 C 111.082,213.007 117.415,214.007 123.5,216.5C 124.655,219.446 124.821,222.446 124,225.5C 117.538,221.471 110.704,220.637 103.5,223C 100.833,225.667 100.833,228.333 103.5,231C 109.752,233.862 116.085,236.528 122.5,239C 130.423,246.457 130.423,253.79 122.5,261C 115.715,263.446 108.715,264.113 101.5,263C 98.3763,262.521 95.5429,261.354 93,259.5C 91.2126,252.506 93.0459,250.673 98.5,254C 104.097,255.456 109.763,255.789 115.5,255C 119.944,252.889 120.611,249.889 117.5,246C 111.248,243.138 104.915,240.472 98.5,238C 91.9652,232.569 90.7986,226.069 95,218.5C 97.9074,216.132 101.074,214.465 104.5,213.5 Z"/></g>
<g><path style="opacity:1" fill="#afcae4" d="M 1192.5,212.5 C 1188.29,214.436 1183.62,215.103 1178.5,214.5C 1181.49,214.013 1184.16,212.679 1186.5,210.5C 1187.39,211.325 1187.72,212.325 1187.5,213.5C 1189.29,213.634 1190.96,213.301 1192.5,212.5 Z"/></g>
<g><path style="opacity:0.832" fill="#000000" d="M 357.5,214.5 C 363.989,214.156 365.989,216.99 363.5,223C 355.401,224.492 353.401,221.659 357.5,214.5 Z"/></g>
<g><path style="opacity:0.887" fill="#000000" d="M 451.5,214.5 C 454.167,214.5 456.833,214.5 459.5,214.5C 459.5,230.5 459.5,246.5 459.5,262.5C 457.167,262.5 454.833,262.5 452.5,262.5C 452.657,261.127 452.49,259.793 452,258.5C 447.117,263.204 441.283,264.704 434.5,263C 423.055,255.982 420.555,246.482 427,234.5C 434.46,227.375 442.46,226.708 451,232.5C 451.499,226.509 451.666,220.509 451.5,214.5 Z M 439.5,235.5 C 451.696,237.196 454.696,243.362 448.5,254C 440.829,258.532 435.329,256.698 432,248.5C 430.972,242.048 433.472,237.715 439.5,235.5 Z"/></g>
<g><path style="opacity:0.887" fill="#000000" d="M 522.5,214.5 C 533.833,214.5 545.167,214.5 556.5,214.5C 556.5,217.167 556.5,219.833 556.5,222.5C 548.167,222.5 539.833,222.5 531.5,222.5C 531.5,226.5 531.5,230.5 531.5,234.5C 539.167,234.5 546.833,234.5 554.5,234.5C 554.5,237.167 554.5,239.833 554.5,242.5C 546.833,242.5 539.167,242.5 531.5,242.5C 531.5,246.833 531.5,251.167 531.5,255.5C 539.833,255.5 548.167,255.5 556.5,255.5C 556.5,257.833 556.5,260.167 556.5,262.5C 545.167,262.5 533.833,262.5 522.5,262.5C 522.5,246.5 522.5,230.5 522.5,214.5 Z"/></g>
<g><path style="opacity:0.887" fill="#000000" d="M 686.5,214.5 C 689.167,214.5 691.833,214.5 694.5,214.5C 694.5,230.5 694.5,246.5 694.5,262.5C 692.167,262.5 689.833,262.5 687.5,262.5C 687.657,261.127 687.49,259.793 687,258.5C 682.117,263.204 676.283,264.704 669.5,263C 658.055,255.982 655.555,246.482 662,234.5C 669.46,227.375 677.46,226.708 686,232.5C 686.499,226.509 686.666,220.509 686.5,214.5 Z M 674.5,235.5 C 686.696,237.196 689.696,243.362 683.5,254C 675.829,258.532 670.329,256.698 667,248.5C 665.972,242.048 668.472,237.715 674.5,235.5 Z"/></g>
<g><path style="opacity:0.887" fill="#000000" d="M 785.5,214.5 C 788.167,214.5 790.833,214.5 793.5,214.5C 793.5,230.5 793.5,246.5 793.5,262.5C 791.167,262.5 788.833,262.5 786.5,262.5C 786.657,261.127 786.49,259.793 786,258.5C 781.117,263.204 775.283,264.704 768.5,263C 757.055,255.982 754.555,246.482 761,234.5C 768.46,227.375 776.46,226.708 785,232.5C 785.499,226.509 785.666,220.509 785.5,214.5 Z M 773.5,235.5 C 785.696,237.196 788.696,243.362 782.5,254C 774.829,258.532 769.329,256.698 766,248.5C 764.972,242.048 767.472,237.715 773.5,235.5 Z"/></g>
<g><path style="opacity:1" fill="#eaf1f7" d="M 1133.5,221.5 C 1130.17,221.5 1126.83,221.5 1123.5,221.5C 1121.01,221.702 1118.68,221.202 1116.5,220C 1115.27,218.817 1115.27,217.651 1116.5,216.5C 1121.05,214.89 1125.71,213.724 1130.5,213C 1132.52,210.088 1134.52,210.255 1136.5,213.5C 1138.16,212.612 1139.82,212.112 1141.5,212C 1142.34,213.011 1142.67,214.178 1142.5,215.5C 1146.54,215.882 1150.21,214.882 1153.5,212.5C 1154.22,214.164 1153.89,215.831 1152.5,217.5C 1154.33,218.968 1154.67,220.635 1153.5,222.5C 1150.21,220.118 1146.54,219.118 1142.5,219.5C 1142.78,221.346 1142.11,222.68 1140.5,223.5C 1138.49,221.829 1136.16,221.162 1133.5,221.5 Z"/></g>
<g><path style="opacity:1" fill="#eff4f9" d="M 1186.5,221.5 C 1183.17,221.5 1179.83,221.5 1176.5,221.5C 1173.24,221.701 1170.57,220.534 1168.5,218C 1171.27,215.353 1174.61,214.186 1178.5,214.5C 1183.62,215.103 1188.29,214.436 1192.5,212.5C 1193.15,212.196 1193.82,211.863 1194.5,211.5C 1195.37,213.582 1196.87,214.915 1199,215.5C 1201.66,214.923 1204.16,213.923 1206.5,212.5C 1206.37,215.769 1206.54,219.102 1207,222.5C 1204.58,221.039 1202.08,219.706 1199.5,218.5C 1197.17,219.5 1195.5,221.167 1194.5,223.5C 1192.06,221.945 1189.39,221.278 1186.5,221.5 Z"/></g>
<g><path style="opacity:1" fill="#dae6f2" d="M 1260.5,228.5 C 1262.52,223.548 1260.86,221.214 1255.5,221.5C 1255.7,219.61 1255.04,218.11 1253.5,217C 1256.14,214.926 1258.64,215.093 1261,217.5C 1261.5,220 1262,222.5 1262.5,225C 1262.61,226.699 1261.95,227.866 1260.5,228.5 Z"/></g>
<g><path style="opacity:1" fill="#fcfdfe" d="M 1592.5,220.5 C 1592.82,228.019 1592.49,235.352 1591.5,242.5C 1582.59,238.665 1573.25,237.499 1563.5,239C 1550.92,245.364 1548.08,254.864 1555,267.5C 1559.25,271.876 1564.42,273.876 1570.5,273.5C 1570.5,266.167 1570.5,258.833 1570.5,251.5C 1578.5,251.5 1586.5,251.5 1594.5,251.5C 1594.83,264.85 1594.5,278.183 1593.5,291.5C 1573.17,299.815 1554.17,297.648 1536.5,285C 1525.34,271.495 1522.5,256.328 1528,239.5C 1535.75,223.534 1548.58,215.534 1566.5,215.5C 1575.61,215.51 1584.28,217.177 1592.5,220.5 Z"/></g>
<g><path style="opacity:1" fill="#fcfdfe" d="M 1631.5,215.5 C 1643.01,214.644 1654.01,216.478 1664.5,221C 1679.28,231.401 1685.11,245.568 1682,263.5C 1679.18,279.985 1669.68,290.485 1653.5,295C 1635.2,299.641 1619.7,295.141 1607,281.5C 1597.82,265.856 1597.15,249.856 1605,233.5C 1611.6,224.036 1620.44,218.036 1631.5,215.5 Z"/></g>
<g><path style="opacity:1" fill="#fbfcfd" d="M 1783.5,215.5 C 1796.07,214.262 1808.07,216.262 1819.5,221.5C 1820.66,229.145 1820.83,236.812 1820,244.5C 1811.5,238.338 1802,235.838 1791.5,237C 1787.48,239.666 1787.81,241.999 1792.5,244C 1800.85,246.087 1808.85,249.087 1816.5,253C 1826.41,262.316 1828.24,273.149 1822,285.5C 1818.01,290.579 1812.84,293.745 1806.5,295C 1791.52,298.168 1777.18,296.335 1763.5,289.5C 1762.34,281.521 1762.17,273.521 1763,265.5C 1772.93,273.108 1784.1,275.941 1796.5,274C 1800.32,272.232 1800.32,270.232 1796.5,268C 1786.47,265.655 1777.14,261.655 1768.5,256C 1762.8,248.824 1760.97,240.658 1763,231.5C 1764.72,226.451 1767.88,222.618 1772.5,220C 1776.16,218.178 1779.82,216.678 1783.5,215.5 Z"/></g>
<g><path style="opacity:0.907" fill="#000000" d="M 272.5,217.5 C 274.423,221.029 275.089,225.029 274.5,229.5C 278.167,229.5 281.833,229.5 285.5,229.5C 285.5,231.833 285.5,234.167 285.5,236.5C 281.833,236.5 278.167,236.5 274.5,236.5C 274.334,242.509 274.501,248.509 275,254.5C 276.299,255.98 277.966,256.646 280,256.5C 282.187,256.212 284.354,255.878 286.5,255.5C 286.958,258.394 286.291,260.894 284.5,263C 279.713,263.879 275.047,263.545 270.5,262C 269.333,260.833 268.167,259.667 267,258.5C 266.5,251.174 266.334,243.841 266.5,236.5C 264.5,236.5 262.5,236.5 260.5,236.5C 260.5,234.167 260.5,231.833 260.5,229.5C 262.5,229.5 264.5,229.5 266.5,229.5C 266.18,226.102 266.513,222.768 267.5,219.5C 269.336,218.972 271.003,218.306 272.5,217.5 Z"/></g>
<g><path style="opacity:0.907" fill="#000000" d="M 604.5,217.5 C 606.423,221.029 607.089,225.029 606.5,229.5C 610.167,229.5 613.833,229.5 617.5,229.5C 617.5,231.833 617.5,234.167 617.5,236.5C 613.833,236.5 610.167,236.5 606.5,236.5C 606.334,242.509 606.501,248.509 607,254.5C 608.299,255.98 609.966,256.646 612,256.5C 614.187,256.212 616.354,255.878 618.5,255.5C 618.958,258.394 618.291,260.894 616.5,263C 611.713,263.879 607.047,263.545 602.5,262C 601.333,260.833 600.167,259.667 599,258.5C 598.5,251.174 598.334,243.841 598.5,236.5C 596.5,236.5 594.5,236.5 592.5,236.5C 592.5,234.167 592.5,231.833 592.5,229.5C 594.5,229.5 596.5,229.5 598.5,229.5C 598.18,226.102 598.513,222.768 599.5,219.5C 601.336,218.972 603.003,218.306 604.5,217.5 Z"/></g>
<g><path style="opacity:1" fill="#fcfdfe" d="M 1326.5,217.5 C 1335.86,217.168 1345.19,217.502 1354.5,218.5C 1364.04,243.781 1373.37,269.114 1382.5,294.5C 1373.83,294.5 1365.17,294.5 1356.5,294.5C 1356,291.171 1355,288.005 1353.5,285C 1344.48,284.168 1335.48,284.335 1326.5,285.5C 1325.5,288.167 1324.5,290.833 1323.5,293.5C 1314.85,294.665 1306.19,294.832 1297.5,294C 1307.07,268.449 1316.74,242.949 1326.5,217.5 Z"/></g>
<g><path style="opacity:1" fill="#fdfefe" d="M 1411.5,271.5 C 1421.99,272.494 1432.65,272.828 1443.5,272.5C 1443.5,279.833 1443.5,287.167 1443.5,294.5C 1424.17,294.5 1404.83,294.5 1385.5,294.5C 1385.5,268.833 1385.5,243.167 1385.5,217.5C 1394.17,217.5 1402.83,217.5 1411.5,217.5C 1411.5,235.5 1411.5,253.5 1411.5,271.5 Z"/></g>
<g><path style="opacity:1" fill="#fcfdfe" d="M 1475.5,217.5 C 1484.86,217.168 1494.19,217.502 1503.5,218.5C 1513.14,243.735 1522.47,269.068 1531.5,294.5C 1522.83,294.5 1514.17,294.5 1505.5,294.5C 1505,291.171 1504,288.005 1502.5,285C 1493.51,284.5 1484.51,284.334 1475.5,284.5C 1475,287.829 1474,290.995 1472.5,294C 1464.17,294.5 1455.84,294.666 1447.5,294.5C 1456.42,268.738 1465.76,243.071 1475.5,217.5 Z"/></g>
<g><path style="opacity:1" fill="#fcfdfe" d="M 1704.5,217.5 C 1714.08,217.182 1723.58,217.515 1733,218.5C 1742.5,243.672 1752,268.839 1761.5,294C 1752.83,294.667 1744.17,294.667 1735.5,294C 1734,290.995 1733,287.829 1732.5,284.5C 1723.49,284.334 1714.49,284.5 1705.5,285C 1704,288.005 1703,291.171 1702.5,294.5C 1693.83,294.5 1685.17,294.5 1676.5,294.5C 1685.55,268.736 1694.88,243.069 1704.5,217.5 Z"/></g>
<g><path style="opacity:1" fill="#1164ae" d="M 1235.5,219.5 C 1237.97,219.947 1238.14,220.947 1236,222.5C 1234.27,221.648 1234.1,220.648 1235.5,219.5 Z"/></g>
<g><path style="opacity:1" fill="#7fabd3" d="M 1251.5,223.5 C 1250.26,223.927 1249.26,223.927 1248.5,223.5C 1248.17,223.5 1247.83,223.5 1247.5,223.5C 1246.6,224.29 1245.93,225.29 1245.5,226.5C 1244.66,226.158 1244.33,225.492 1244.5,224.5C 1244.5,224.167 1244.5,223.833 1244.5,223.5C 1245.17,223.5 1245.5,223.167 1245.5,222.5C 1246.34,222.158 1246.67,221.492 1246.5,220.5C 1247.84,219.685 1248.84,218.518 1249.5,217C 1250.17,216.333 1250.83,216.333 1251.5,217C 1250.64,217.689 1249.98,218.522 1249.5,219.5C 1249.85,220.696 1250.35,220.696 1251,219.5C 1251.49,220.793 1251.66,222.127 1251.5,223.5 Z"/></g>
<g><path style="opacity:1" fill="#3e83be" d="M 1592.5,220.5 C 1593.82,228.01 1593.82,235.677 1592.5,243.5C 1591.89,243.376 1591.56,243.043 1591.5,242.5C 1592.49,235.352 1592.82,228.019 1592.5,220.5 Z"/></g>
<g><path style="opacity:1" fill="#dae6f2" d="M 1075.5,227.5 C 1074.67,232.316 1074.17,237.316 1074,242.5C 1073.67,241.5 1073.33,240.5 1073,239.5C 1072.72,240.416 1072.22,241.082 1071.5,241.5C 1071.17,238.689 1070.34,236.022 1069,233.5C 1068.5,234.5 1068,235.5 1067.5,236.5C 1069.46,240.754 1071.13,245.088 1072.5,249.5C 1069.87,245.189 1067.2,240.856 1064.5,236.5C 1065.34,236.158 1065.67,235.492 1065.5,234.5C 1066.92,232.813 1068.25,230.98 1069.5,229C 1067.08,225.523 1064.42,222.19 1061.5,219C 1062.5,218.333 1063.5,218.333 1064.5,219C 1067.21,221.628 1069.54,224.461 1071.5,227.5C 1072.2,230.428 1072.36,233.428 1072,236.5C 1073.24,232.94 1073.74,229.273 1073.5,225.5C 1073.66,212.855 1077.49,201.521 1085,191.5C 1083.24,197.12 1081.24,202.787 1079,208.5C 1077.19,214.723 1076.02,221.056 1075.5,227.5 Z"/></g>
<g><path style="opacity:1" fill="#9abcdc" d="M 1123.5,221.5 C 1126.83,221.5 1130.17,221.5 1133.5,221.5C 1133.5,222.833 1133.5,224.167 1133.5,225.5C 1130.52,223.333 1127.19,221.999 1123.5,221.5 Z"/></g>
<g><path style="opacity:1" fill="#8bb4d8" d="M 1176.5,221.5 C 1179.83,221.5 1183.17,221.5 1186.5,221.5C 1186.5,221.833 1186.5,222.167 1186.5,222.5C 1185.21,222.263 1184.21,222.596 1183.5,223.5C 1181.05,222.935 1178.71,222.268 1176.5,221.5 Z"/></g>
<g><path style="opacity:1" fill="#1262ad" d="M 1255.5,221.5 C 1260.86,221.214 1262.52,223.548 1260.5,228.5C 1259.02,228.762 1257.69,228.429 1256.5,227.5C 1259.15,222.811 1258.65,222.477 1255,226.5C 1254.36,224.735 1254.53,223.068 1255.5,221.5 Z"/></g>
<g><path style="opacity:1" fill="#ecf2f8" d="M 1186.5,222.5 C 1186.31,226.005 1185.31,226.338 1183.5,223.5C 1184.21,222.596 1185.21,222.263 1186.5,222.5 Z"/></g>
<g><path style="opacity:1" fill="#d7e4f1" d="M 1255.5,221.5 C 1254.53,223.068 1254.36,224.735 1255,226.5C 1258.65,222.477 1259.15,222.811 1256.5,227.5C 1257.69,228.429 1259.02,228.762 1260.5,228.5C 1257.27,229.237 1253.94,229.903 1250.5,230.5C 1250.6,227.892 1249.93,225.558 1248.5,223.5C 1249.26,223.927 1250.26,223.927 1251.5,223.5C 1251.43,223.938 1251.6,224.272 1252,224.5C 1252.76,222.937 1253.93,221.937 1255.5,221.5 Z"/></g>
<g><path style="opacity:1" fill="#296db3" d="M 1247.5,223.5 C 1247.83,223.5 1248.17,223.5 1248.5,223.5C 1249.93,225.558 1250.6,227.892 1250.5,230.5C 1248.46,228.794 1247.46,226.461 1247.5,223.5 Z"/></g>
<g><path style="opacity:0.877" fill="#000000" d="M 145.5,228.5 C 160.346,227.68 167.013,234.68 165.5,249.5C 157.5,249.5 149.5,249.5 141.5,249.5C 141.872,253.043 143.872,255.21 147.5,256C 152.658,256.91 157.658,256.41 162.5,254.5C 163.647,256.765 163.814,259.098 163,261.5C 157.351,263.488 151.518,263.988 145.5,263C 135.311,259.468 131.145,252.302 133,241.5C 134.682,234.653 138.849,230.32 145.5,228.5 Z M 146.5,235.5 C 152.679,234.252 156.679,236.585 158.5,242.5C 152.5,243.833 146.5,243.833 140.5,242.5C 141.833,239.507 143.833,237.173 146.5,235.5 Z"/></g>
<g><path style="opacity:0.879" fill="#000000" d="M 183.5,228.5 C 187.915,228.305 192.249,228.805 196.5,230C 198.662,232.522 198.995,235.355 197.5,238.5C 192.301,234.83 186.968,234.664 181.5,238C 175.42,245.678 176.753,251.678 185.5,256C 189.664,256.813 193.664,256.313 197.5,254.5C 198.777,257.034 198.777,259.534 197.5,262C 186.658,265.987 177.825,263.487 171,254.5C 166.905,241.692 171.072,233.026 183.5,228.5 Z"/></g>
<g><path style="opacity:0.89" fill="#000000" d="M 226.5,236.5 C 222.125,236.347 218.292,237.68 215,240.5C 213.571,247.719 213.071,255.053 213.5,262.5C 210.833,262.5 208.167,262.5 205.5,262.5C 205.5,251.5 205.5,240.5 205.5,229.5C 207.833,229.5 210.167,229.5 212.5,229.5C 212.343,230.873 212.51,232.207 213,233.5C 216.867,230.155 221.367,228.489 226.5,228.5C 226.5,231.167 226.5,233.833 226.5,236.5 Z"/></g>
<g><path style="opacity:0.877" fill="#000000" d="M 226.5,236.5 C 232.528,228.995 240.195,226.828 249.5,230C 256.677,234.534 259.343,241.034 257.5,249.5C 249.5,249.5 241.5,249.5 233.5,249.5C 233.872,253.043 235.872,255.21 239.5,256C 244.658,256.91 249.658,256.41 254.5,254.5C 255.647,256.765 255.814,259.098 255,261.5C 246.642,264.487 238.476,263.987 230.5,260C 224.262,253.039 222.928,245.205 226.5,236.5 Z M 238.5,235.5 C 244.679,234.252 248.679,236.585 250.5,242.5C 244.5,243.833 238.5,243.833 232.5,242.5C 233.833,239.507 235.833,237.173 238.5,235.5 Z"/></g>
<g><path style="opacity:0.874" fill="#000000" d="M 300.5,228.5 C 306.852,227.715 312.686,229.048 318,232.5C 319.751,234.49 320.751,236.823 321,239.5C 321.499,245.157 321.666,250.824 321.5,256.5C 322.833,256.5 324.167,256.5 325.5,256.5C 326.578,263.065 323.911,265.232 317.5,263C 316.034,262.365 314.7,261.531 313.5,260.5C 305.358,265.139 297.858,264.472 291,258.5C 288.421,250.65 290.921,245.483 298.5,243C 303.533,242.829 308.533,242.329 313.5,241.5C 312.008,237.325 309.008,235.325 304.5,235.5C 300.644,235.87 296.978,236.87 293.5,238.5C 292.52,235.914 292.187,233.247 292.5,230.5C 295.373,230.198 298.039,229.531 300.5,228.5 Z M 305.5,247.5 C 308.127,248.092 310.794,248.425 313.5,248.5C 313.579,254.335 310.579,257.335 304.5,257.5C 299.651,256.855 297.984,254.355 299.5,250C 301.611,249.155 303.611,248.322 305.5,247.5 Z"/></g>
<g><path style="opacity:0.89" fill="#000000" d="M 345.5,228.5 C 347.167,228.5 348.833,228.5 350.5,228.5C 350.5,231.167 350.5,233.833 350.5,236.5C 346.125,236.347 342.292,237.68 339,240.5C 337.571,247.719 337.071,255.053 337.5,262.5C 334.833,262.5 332.167,262.5 329.5,262.5C 329.5,251.5 329.5,240.5 329.5,229.5C 331.833,229.5 334.167,229.5 336.5,229.5C 336.343,230.873 336.51,232.207 337,233.5C 339.682,231.415 342.516,229.748 345.5,228.5 Z"/></g>
<g><path style="opacity:0.874" fill="#000000" d="M 379.5,228.5 C 385.852,227.715 391.686,229.048 397,232.5C 398.751,234.49 399.751,236.823 400,239.5C 400.499,245.157 400.666,250.824 400.5,256.5C 401.833,256.5 403.167,256.5 404.5,256.5C 405.578,263.065 402.911,265.232 396.5,263C 395.034,262.365 393.7,261.531 392.5,260.5C 384.358,265.139 376.858,264.472 370,258.5C 367.421,250.65 369.921,245.483 377.5,243C 382.533,242.829 387.533,242.329 392.5,241.5C 391.008,237.325 388.008,235.325 383.5,235.5C 379.644,235.87 375.978,236.87 372.5,238.5C 371.52,235.914 371.187,233.247 371.5,230.5C 374.373,230.198 377.039,229.531 379.5,228.5 Z M 384.5,247.5 C 387.127,248.092 389.794,248.425 392.5,248.5C 392.579,254.335 389.579,257.335 383.5,257.5C 378.651,256.855 376.984,254.355 378.5,250C 380.611,249.155 382.611,248.322 384.5,247.5 Z"/></g>
<g><path style="opacity:0.877" fill="#000000" d="M 478.5,228.5 C 493.346,227.68 500.013,234.68 498.5,249.5C 490.5,249.5 482.5,249.5 474.5,249.5C 474.872,253.043 476.872,255.21 480.5,256C 485.658,256.91 490.658,256.41 495.5,254.5C 496.647,256.765 496.814,259.098 496,261.5C 490.351,263.488 484.518,263.988 478.5,263C 468.311,259.468 464.145,252.302 466,241.5C 467.682,234.653 471.849,230.32 478.5,228.5 Z M 479.5,235.5 C 485.679,234.252 489.679,236.585 491.5,242.5C 485.5,243.833 479.5,243.833 473.5,242.5C 474.833,239.507 476.833,237.173 479.5,235.5 Z"/></g>
<g><path style="opacity:0.865" fill="#000000" d="M 570.5,228.5 C 576.327,227.962 581.827,228.962 587,231.5C 587.814,233.902 587.647,236.235 586.5,238.5C 582.149,235.873 577.482,235.04 572.5,236C 569.833,237.667 569.833,239.333 572.5,241C 576.833,242.667 581.167,244.333 585.5,246C 589.327,249.308 590.494,253.474 589,258.5C 587.269,260.617 585.102,262.117 582.5,263C 576.034,263.919 569.701,263.419 563.5,261.5C 562.348,258.894 562.182,256.227 563,253.5C 568.493,256.336 574.327,257.169 580.5,256C 581.833,254.667 581.833,253.333 580.5,252C 577.007,250.209 573.341,248.876 569.5,248C 562.608,245.252 560.442,240.418 563,233.5C 565.17,231.177 567.67,229.51 570.5,228.5 Z"/></g>
<g><path style="opacity:0.874" fill="#000000" d="M 631.5,228.5 C 637.852,227.715 643.686,229.048 649,232.5C 650.751,234.49 651.751,236.823 652,239.5C 652.499,245.157 652.666,250.824 652.5,256.5C 653.833,256.5 655.167,256.5 656.5,256.5C 657.578,263.065 654.911,265.232 648.5,263C 647.034,262.365 645.7,261.531 644.5,260.5C 636.358,265.139 628.858,264.472 622,258.5C 619.421,250.65 621.921,245.483 629.5,243C 634.533,242.829 639.533,242.329 644.5,241.5C 643.008,237.325 640.008,235.325 635.5,235.5C 631.644,235.87 627.978,236.87 624.5,238.5C 623.52,235.914 623.187,233.247 623.5,230.5C 626.373,230.198 629.039,229.531 631.5,228.5 Z M 636.5,247.5 C 639.127,248.092 641.794,248.425 644.5,248.5C 644.579,254.335 641.579,257.335 635.5,257.5C 630.651,256.855 628.984,254.355 630.5,250C 632.611,249.155 634.611,248.322 636.5,247.5 Z"/></g>
<g><path style="opacity:0.879" fill="#000000" d="M 715.5,228.5 C 735.096,228.688 741.596,238.021 735,256.5C 729.245,263.037 722.078,265.203 713.5,263C 702.832,258.014 699.332,249.847 703,238.5C 705.918,233.396 710.085,230.063 715.5,228.5 Z M 715.5,236.5 C 728.25,236.088 732.083,241.754 727,253.5C 721.069,257.781 715.735,257.115 711,251.5C 708.473,245.235 709.973,240.235 715.5,236.5 Z"/></g>
<g><path style="opacity:0.874" fill="#000000" d="M 810.5,228.5 C 816.852,227.715 822.686,229.048 828,232.5C 829.751,234.49 830.751,236.823 831,239.5C 831.499,245.157 831.666,250.824 831.5,256.5C 832.833,256.5 834.167,256.5 835.5,256.5C 836.578,263.065 833.911,265.232 827.5,263C 826.034,262.365 824.7,261.531 823.5,260.5C 815.358,265.139 807.858,264.472 801,258.5C 798.421,250.65 800.921,245.483 808.5,243C 813.533,242.829 818.533,242.329 823.5,241.5C 822.008,237.325 819.008,235.325 814.5,235.5C 810.644,235.87 806.978,236.87 803.5,238.5C 802.52,235.914 802.187,233.247 802.5,230.5C 805.373,230.198 808.039,229.531 810.5,228.5 Z M 815.5,247.5 C 818.127,248.092 820.794,248.425 823.5,248.5C 823.579,254.335 820.579,257.335 814.5,257.5C 809.651,256.855 807.984,254.355 809.5,250C 811.611,249.155 813.611,248.322 815.5,247.5 Z"/></g>
<g><path style="opacity:0.901" fill="#000000" d="M 355.5,229.5 C 358.167,229.5 360.833,229.5 363.5,229.5C 363.5,240.5 363.5,251.5 363.5,262.5C 360.833,262.5 358.167,262.5 355.5,262.5C 355.5,251.5 355.5,240.5 355.5,229.5 Z"/></g>
<g><path style="opacity:1" fill="#e4edf5" d="M 1065.5,234.5 C 1065.67,235.492 1065.34,236.158 1064.5,236.5C 1063.21,234.093 1061.54,231.926 1059.5,230C 1062.42,230.072 1064.42,231.572 1065.5,234.5 Z"/></g>
<g><path style="opacity:1" fill="#f8fafc" d="M 1237.5,233.5 C 1239.62,233.325 1241.62,233.659 1243.5,234.5C 1243.23,236.451 1243.89,237.951 1245.5,239C 1244.58,239.278 1243.92,239.778 1243.5,240.5C 1243.17,240.5 1242.83,240.5 1242.5,240.5C 1241.88,240.389 1241.38,240.056 1241,239.5C 1240.84,241.676 1240,243.509 1238.5,245C 1239.74,245.232 1240.74,245.732 1241.5,246.5C 1237.05,252.225 1233.72,251.558 1231.5,244.5C 1233.87,241.09 1235.87,237.424 1237.5,233.5 Z"/></g>
<g><path style="opacity:1" fill="#2369b1" d="M 1071.5,241.5 C 1071.99,242.995 1072.66,244.329 1073.5,245.5C 1073.77,247.099 1073.43,248.432 1072.5,249.5C 1071.13,245.088 1069.46,240.754 1067.5,236.5C 1068,235.5 1068.5,234.5 1069,233.5C 1070.34,236.022 1071.17,238.689 1071.5,241.5 Z"/></g>
<g><path style="opacity:1" fill="#5a94c7" d="M 1073.5,225.5 C 1073.74,229.273 1073.24,232.94 1072,236.5C 1072.36,233.428 1072.2,230.428 1071.5,227.5C 1072.17,226.833 1072.83,226.167 1073.5,225.5 Z"/></g>
<g><path style="opacity:1" fill="#2669b1" d="M 1243.5,234.5 C 1244.9,234.971 1246.23,235.638 1247.5,236.5C 1246.77,239.109 1246.27,241.776 1246,244.5C 1244.52,243.529 1243.69,242.196 1243.5,240.5C 1243.92,239.778 1244.58,239.278 1245.5,239C 1243.89,237.951 1243.23,236.451 1243.5,234.5 Z"/></g>
<g><path style="opacity:1" fill="#92b5d9" d="M 1237.5,233.5 C 1235.87,237.424 1233.87,241.09 1231.5,244.5C 1230.11,239.186 1232.11,235.52 1237.5,233.5 Z"/></g>
<g><path style="opacity:1" fill="#4185bf" d="M 1163.5,238.5 C 1163.17,252.677 1163.5,266.677 1164.5,280.5C 1164.44,281.043 1164.11,281.376 1163.5,281.5C 1162.17,267.006 1162.17,252.672 1163.5,238.5 Z"/></g>
<g><path style="opacity:1" fill="#f5f8fb" d="M 1251.5,252.5 C 1250.85,250.174 1250.18,247.841 1249.5,245.5C 1249.62,244.106 1249.95,242.772 1250.5,241.5C 1252.2,240.636 1253.36,239.303 1254,237.5C 1255.4,239.198 1257.24,239.698 1259.5,239C 1260.77,240.307 1261.77,241.807 1262.5,243.5C 1266.37,242.513 1266.37,243.013 1262.5,245C 1265.17,247.667 1265.17,250.333 1262.5,253C 1262.96,253.414 1263.29,253.914 1263.5,254.5C 1261.61,255.473 1259.61,256.14 1257.5,256.5C 1255.19,255.509 1253.19,254.176 1251.5,252.5 Z"/></g>
<g><path style="opacity:1" fill="#0b5eab" d="M 1636.5,238.5 C 1653.1,238.951 1659.27,247.284 1655,263.5C 1653.5,267.667 1650.67,270.5 1646.5,272C 1630.08,273.575 1623.25,266.075 1626,249.5C 1628.05,244.29 1631.55,240.623 1636.5,238.5 Z"/></g>
<g><path style="opacity:1" fill="#7ca9d2" d="M 1075.5,227.5 C 1075.33,228.492 1075.66,229.158 1076.5,229.5C 1075.66,233.738 1075.66,237.738 1076.5,241.5C 1076.5,241.833 1076.5,242.167 1076.5,242.5C 1076.61,244.648 1075.94,244.981 1074.5,243.5C 1073.7,243.957 1073.37,244.624 1073.5,245.5C 1072.66,244.329 1071.99,242.995 1071.5,241.5C 1072.22,241.082 1072.72,240.416 1073,239.5C 1073.33,240.5 1073.67,241.5 1074,242.5C 1074.17,237.316 1074.67,232.316 1075.5,227.5 Z"/></g>
<g><path style="opacity:1" fill="#689bcb" d="M 1242.5,240.5 C 1241.31,241.961 1241.31,243.295 1242.5,244.5C 1242.67,245.492 1242.34,246.158 1241.5,246.5C 1240.74,245.732 1239.74,245.232 1238.5,245C 1240,243.509 1240.84,241.676 1241,239.5C 1241.38,240.056 1241.88,240.389 1242.5,240.5 Z"/></g>
<g><path style="opacity:1" fill="#5c95c8" d="M 1257.5,243.5 C 1258.25,244.531 1258.92,245.698 1259.5,247C 1259.17,247.167 1258.83,247.333 1258.5,247.5C 1257.57,246.311 1257.24,244.978 1257.5,243.5 Z"/></g>
<g><path style="opacity:1" fill="#1b63ae" d="M 1339.5,241.5 C 1342.13,249.058 1344.8,256.724 1347.5,264.5C 1342.88,265.493 1338.21,265.827 1333.5,265.5C 1335.7,257.555 1337.7,249.555 1339.5,241.5 Z"/></g>
<g><path style="opacity:1" fill="#1e64ae" d="M 1488.5,240.5 C 1491.54,248.615 1494.2,256.948 1496.5,265.5C 1491.83,265.5 1487.17,265.5 1482.5,265.5C 1485.33,257.359 1487.33,249.026 1488.5,240.5 Z"/></g>
<g><path style="opacity:1" fill="#1862ad" d="M 1718.5,243.5 C 1721.61,250.488 1723.94,257.821 1725.5,265.5C 1720.79,265.827 1716.12,265.493 1711.5,264.5C 1714.04,257.539 1716.38,250.539 1718.5,243.5 Z"/></g>
<g><path style="opacity:1" fill="#e8eff7" d="M 1058.5,247.5 C 1059.87,247.343 1061.21,247.51 1062.5,248C 1059.43,250.951 1056.26,253.784 1053,256.5C 1052.68,255.092 1053.02,253.759 1054,252.5C 1055.71,250.963 1057.21,249.296 1058.5,247.5 Z"/></g>
<g><path style="opacity:1" fill="#cedeee" d="M 1075.5,264.5 C 1074.72,263.259 1074.05,261.259 1073.5,258.5C 1072.5,258.833 1071.83,259.5 1071.5,260.5C 1072.73,262.316 1072.73,263.983 1071.5,265.5C 1071.25,263.025 1070.59,263.025 1069.5,265.5C 1071.23,269.037 1072.57,272.704 1073.5,276.5C 1072.67,280.65 1072.67,285.65 1073.5,291.5C 1070.95,284.072 1067.12,277.405 1062,271.5C 1059,275.167 1056,278.833 1053,282.5C 1054.38,277.262 1057.22,272.762 1061.5,269C 1059.68,268.003 1058.01,266.836 1056.5,265.5C 1056.5,264.833 1056.83,264.5 1057.5,264.5C 1059.99,266.356 1062.66,267.69 1065.5,268.5C 1067.62,269.031 1069.12,270.365 1070,272.5C 1070.17,272.167 1070.33,271.833 1070.5,271.5C 1069.22,267.133 1066.88,262.966 1063.5,259C 1060.26,258.914 1057.26,259.747 1054.5,261.5C 1053.5,261.833 1052.83,262.5 1052.5,263.5C 1047.4,266.47 1046.73,265.97 1050.5,262C 1054.4,258.044 1059.07,256.377 1064.5,257C 1065.88,258.925 1067.38,260.759 1069,262.5C 1069.5,261.5 1070,260.5 1070.5,259.5C 1068.75,255.673 1066.75,252.007 1064.5,248.5C 1065,247.479 1065.67,247.312 1066.5,248C 1069.36,250.229 1071.36,253.063 1072.5,256.5C 1073.58,254.189 1073.58,251.856 1072.5,249.5C 1073.43,248.432 1073.77,247.099 1073.5,245.5C 1073.37,244.624 1073.7,243.957 1074.5,243.5C 1075.94,244.981 1076.61,244.648 1076.5,242.5C 1078.78,238.799 1081.45,235.299 1084.5,232C 1088.73,231.365 1092.06,232.865 1094.5,236.5C 1093.43,237.08 1092.43,236.58 1091.5,235C 1088.43,232.996 1085.59,233.163 1083,235.5C 1080.41,239.674 1078.08,244.007 1076,248.5C 1075.5,253.823 1075.33,259.156 1075.5,264.5 Z"/></g>
<g><path style="opacity:1" fill="#dfe9f4" d="M 1247.5,223.5 C 1247.46,226.461 1248.46,228.794 1250.5,230.5C 1249.59,231.738 1249.42,233.072 1250,234.5C 1251.16,233.007 1251.99,233.174 1252.5,235C 1251.97,237.02 1250.63,237.853 1248.5,237.5C 1248.23,242.913 1248.73,248.246 1250,253.5C 1250.38,252.944 1250.88,252.611 1251.5,252.5C 1251.17,253.833 1250.83,255.167 1250.5,256.5C 1249.11,262.737 1249.28,269.071 1251,275.5C 1251.78,274.271 1252.28,272.938 1252.5,271.5C 1250.81,268.336 1250.31,265.002 1251,261.5C 1251.63,267.134 1252.13,267.468 1252.5,262.5C 1253.16,264.042 1253.83,265.709 1254.5,267.5C 1255.19,266.975 1255.69,266.308 1256,265.5C 1256.23,269.483 1257.56,270.149 1260,267.5C 1260.51,268.996 1260.01,270.163 1258.5,271C 1260.27,271.64 1261.93,271.473 1263.5,270.5C 1260.99,272.237 1257.99,273.07 1254.5,273C 1252.96,274.579 1251.79,276.413 1251,278.5C 1250.3,284.175 1249.97,289.842 1250,295.5C 1251.04,294.29 1252.21,293.29 1253.5,292.5C 1253.5,292.833 1253.5,293.167 1253.5,293.5C 1248.51,298.47 1245.35,304.47 1244,311.5C 1243.33,312.833 1242.33,313.833 1241,314.5C 1243.13,307.422 1245.3,300.255 1247.5,293C 1247.6,290.855 1246.94,289.021 1245.5,287.5C 1244.82,288.243 1244.15,288.909 1243.5,289.5C 1243.08,288.778 1242.42,288.278 1241.5,288C 1242.26,285.931 1242.76,283.764 1243,281.5C 1244.01,282.337 1245.18,282.67 1246.5,282.5C 1245.18,284.558 1245.68,286.225 1248,287.5C 1248.5,283.848 1248.67,280.182 1248.5,276.5C 1244.75,276.499 1243.75,274.833 1245.5,271.5C 1246.48,271.977 1247.31,272.643 1248,273.5C 1247.85,271.494 1247.35,269.494 1246.5,267.5C 1248.41,264.316 1249.08,260.649 1248.5,256.5C 1247.17,256.5 1245.83,256.5 1244.5,256.5C 1244.24,255.022 1244.57,253.689 1245.5,252.5C 1246.9,253.999 1247.57,253.666 1247.5,251.5C 1247.01,248.147 1245.35,245.813 1242.5,244.5C 1241.31,243.295 1241.31,241.961 1242.5,240.5C 1242.83,240.5 1243.17,240.5 1243.5,240.5C 1243.69,242.196 1244.52,243.529 1246,244.5C 1246.27,241.776 1246.77,239.109 1247.5,236.5C 1246.23,235.638 1244.9,234.971 1243.5,234.5C 1243.28,230.473 1244.45,229.806 1247,232.5C 1247.41,230.305 1246.91,228.305 1245.5,226.5C 1245.93,225.29 1246.6,224.29 1247.5,223.5 Z"/></g>
<g><path style="opacity:1" fill="#d7e4f1" d="M 1078.5,266.5 C 1077.83,265.833 1077.17,265.167 1076.5,264.5C 1076.52,255.287 1078.68,246.621 1083,238.5C 1087.65,234.37 1090.82,235.536 1092.5,242C 1093.49,244.453 1093.66,246.953 1093,249.5C 1092.08,246.016 1090.75,242.683 1089,239.5C 1088.03,237.74 1086.87,237.406 1085.5,238.5C 1081.93,244.043 1080.09,250.043 1080,256.5C 1080.98,252.536 1082.98,249.203 1086,246.5C 1083.24,252.918 1080.74,259.584 1078.5,266.5 Z"/></g>
<g><path style="opacity:1" fill="#f0f5fa" d="M 1244.5,256.5 C 1246.94,260.062 1246.94,263.729 1244.5,267.5C 1244.65,268.552 1244.48,269.552 1244,270.5C 1242.12,271.742 1240.29,273.076 1238.5,274.5C 1235.4,271.265 1233.4,267.432 1232.5,263C 1234.36,256.717 1238.36,254.551 1244.5,256.5 Z"/></g>
<g><path style="opacity:1" fill="#1c64ae" d="M 1065.5,268.5 C 1062.66,267.69 1059.99,266.356 1057.5,264.5C 1056.31,263.728 1055.31,262.728 1054.5,261.5C 1057.26,259.747 1060.26,258.914 1063.5,259C 1066.88,262.966 1069.22,267.133 1070.5,271.5C 1070.33,271.833 1070.17,272.167 1070,272.5C 1069.12,270.365 1067.62,269.031 1065.5,268.5 Z"/></g>
<g><path style="opacity:1" fill="#6c9dcc" d="M 1257.5,258.5 C 1257.17,259.167 1256.83,259.833 1256.5,260.5C 1255.17,260.5 1253.83,260.5 1252.5,260.5C 1253.64,258.787 1255.3,258.12 1257.5,258.5 Z"/></g>
<g><path style="opacity:1" fill="#eff4f9" d="M 1257.5,258.5 C 1262.91,257.735 1264.91,260.069 1263.5,265.5C 1260.21,265.034 1257.88,263.367 1256.5,260.5C 1256.83,259.833 1257.17,259.167 1257.5,258.5 Z"/></g>
<g><path style="opacity:1" fill="#7da5d1" d="M 1244.5,256.5 C 1245.83,256.5 1247.17,256.5 1248.5,256.5C 1249.08,260.649 1248.41,264.316 1246.5,267.5C 1245.83,267.5 1245.17,267.5 1244.5,267.5C 1246.94,263.729 1246.94,260.062 1244.5,256.5 Z"/></g>
<g><path style="opacity:1" fill="#5086c0" d="M 1250.5,256.5 C 1250.16,258.483 1250.82,259.817 1252.5,260.5C 1252.5,261.167 1252.5,261.833 1252.5,262.5C 1252.13,267.468 1251.63,267.134 1251,261.5C 1250.31,265.002 1250.81,268.336 1252.5,271.5C 1252.28,272.938 1251.78,274.271 1251,275.5C 1249.28,269.071 1249.11,262.737 1250.5,256.5 Z"/></g>
<g><path style="opacity:1" fill="#76a5d0" d="M 1054.5,261.5 C 1055.31,262.728 1056.31,263.728 1057.5,264.5C 1056.83,264.5 1056.5,264.833 1056.5,265.5C 1055.4,264.4 1054.06,263.733 1052.5,263.5C 1052.83,262.5 1053.5,261.833 1054.5,261.5 Z"/></g>
<g><path style="opacity:1" fill="#97bcdc" d="M 1075.5,264.5 C 1075.83,264.5 1076.17,264.5 1076.5,264.5C 1077.17,265.167 1077.83,265.833 1078.5,266.5C 1078.67,267.492 1078.34,268.158 1077.5,268.5C 1076.66,267.991 1076.16,268.657 1076,270.5C 1075.22,267.903 1074.72,267.903 1074.5,270.5C 1072.59,269.514 1071.59,267.848 1071.5,265.5C 1072.73,263.983 1072.73,262.316 1071.5,260.5C 1071.83,259.5 1072.5,258.833 1073.5,258.5C 1074.05,261.259 1074.72,263.259 1075.5,264.5 Z"/></g>
<g><path style="opacity:1" fill="#dce8f3" d="M 1085.5,260.5 C 1086.54,259.209 1087.71,259.209 1089,260.5C 1090.59,262.65 1091.26,264.983 1091,267.5C 1090.06,264.405 1088.23,262.071 1085.5,260.5 Z"/></g>
<g><path style="opacity:1" fill="#c2d7ea" d="M 1085.5,260.5 C 1083.49,263.869 1081.49,267.202 1079.5,270.5C 1080,266.14 1082,262.807 1085.5,260.5 Z"/></g>
<g><path style="opacity:1" fill="#4682be" d="M 1238.5,259.5 C 1240.61,262.151 1240.45,264.484 1238,266.5C 1237.63,265.584 1237.13,264.75 1236.5,264C 1237.58,262.67 1238.25,261.17 1238.5,259.5 Z"/></g>
<g><path style="opacity:1" fill="#2d6cb2" d="M 1252.5,260.5 C 1253.83,260.5 1255.17,260.5 1256.5,260.5C 1257.88,263.367 1260.21,265.034 1263.5,265.5C 1264.83,267.167 1264.83,268.833 1263.5,270.5C 1261.93,271.473 1260.27,271.64 1258.5,271C 1260.01,270.163 1260.51,268.996 1260,267.5C 1257.56,270.149 1256.23,269.483 1256,265.5C 1255.69,266.308 1255.19,266.975 1254.5,267.5C 1253.83,265.709 1253.16,264.042 1252.5,262.5C 1252.5,261.833 1252.5,261.167 1252.5,260.5 Z"/></g>
<g><path style="opacity:1" fill="#f8fafc" d="M 1138.5,275.5 C 1140.61,283.534 1137.78,288.868 1130,291.5C 1128.24,290.368 1126.4,289.368 1124.5,288.5C 1122.56,286.885 1121.56,284.718 1121.5,282C 1122.25,276.523 1122.58,271.023 1122.5,265.5C 1127.5,265.5 1132.5,265.5 1137.5,265.5C 1137.19,269.042 1137.52,272.375 1138.5,275.5 Z"/></g>
<g><path style="opacity:1" fill="#7daad3" d="M 1226.5,264.5 C 1227.81,267.687 1227.81,271.02 1226.5,274.5C 1225.89,274.376 1225.56,274.043 1225.5,273.5C 1226.48,270.713 1226.81,267.713 1226.5,264.5 Z"/></g>
<g><path style="opacity:1" fill="#3575b7" d="M 1065.5,268.5 C 1069.45,275.616 1069.11,275.949 1064.5,269.5C 1064.62,268.893 1064.96,268.56 1065.5,268.5 Z"/></g>
<g><path style="opacity:1" fill="#f8fafc" d="M 1207.5,333.5 C 1201.54,333.757 1195.54,331.59 1189.5,327C 1185.93,325.595 1182.26,325.262 1178.5,326C 1175.17,328 1171.83,330 1168.5,332C 1166.87,332.494 1165.2,332.66 1163.5,332.5C 1163.5,334.5 1163.5,336.5 1163.5,338.5C 1162.5,338.5 1161.5,338.5 1160.5,338.5C 1160.5,330.5 1160.5,322.5 1160.5,314.5C 1161.5,314.5 1162.5,314.5 1163.5,314.5C 1163.5,304.5 1163.5,294.5 1163.5,284.5C 1165.14,283.527 1166.47,282.194 1167.5,280.5C 1169.3,279.207 1170.96,277.707 1172.5,276C 1175.24,274.92 1176.9,275.754 1177.5,278.5C 1177.03,281.764 1175.69,284.598 1173.5,287C 1174.91,287.315 1176.24,286.982 1177.5,286C 1181.13,281.366 1185.13,277.033 1189.5,273C 1192.72,270.445 1196.22,269.945 1200,271.5C 1200.67,273.167 1200.67,274.833 1200,276.5C 1197.69,279.979 1194.85,282.979 1191.5,285.5C 1191.83,285.833 1192.17,286.167 1192.5,286.5C 1199.09,282.736 1205.26,278.402 1211,273.5C 1212.5,273.667 1213.33,274.5 1213.5,276C 1212.26,279.815 1210.26,283.148 1207.5,286C 1211.99,285.098 1216.32,283.598 1220.5,281.5C 1222.84,281.669 1225.01,282.336 1227,283.5C 1227.67,291.167 1227.67,298.833 1227,306.5C 1221.46,316.274 1214.96,325.274 1207.5,333.5 Z"/></g>
<g><path style="opacity:1" fill="#7eadd4" d="M 1411.5,271.5 C 1422.5,271.5 1433.5,271.5 1444.5,271.5C 1444.83,279.352 1444.49,287.018 1443.5,294.5C 1443.5,287.167 1443.5,279.833 1443.5,272.5C 1432.65,272.828 1421.99,272.494 1411.5,271.5 Z"/></g>
<g><path style="opacity:1" fill="#83acd4" d="M 1079.5,270.5 C 1079.31,272.564 1078.81,274.564 1078,276.5C 1077.72,275.584 1077.22,274.918 1076.5,274.5C 1076.33,273.508 1076.66,272.842 1077.5,272.5C 1078.17,271.833 1078.83,271.167 1079.5,270.5 Z"/></g>
<g><path style="opacity:1" fill="#3f7fbc" d="M 1071.5,265.5 C 1071.59,267.848 1072.59,269.514 1074.5,270.5C 1074.5,272.5 1074.5,274.5 1074.5,276.5C 1074.17,276.5 1073.83,276.5 1073.5,276.5C 1072.57,272.704 1071.23,269.037 1069.5,265.5C 1070.59,263.025 1071.25,263.025 1071.5,265.5 Z"/></g>
<g><path style="opacity:1" fill="#dce8f3" d="M 1077.5,268.5 C 1077.5,269.833 1077.5,271.167 1077.5,272.5C 1076.66,272.842 1076.33,273.508 1076.5,274.5C 1076.5,275.167 1076.5,275.833 1076.5,276.5C 1075.83,276.5 1075.17,276.5 1074.5,276.5C 1074.5,274.5 1074.5,272.5 1074.5,270.5C 1074.72,267.903 1075.22,267.903 1076,270.5C 1076.16,268.657 1076.66,267.991 1077.5,268.5 Z"/></g>
<g><path style="opacity:1" fill="#3173b6" d="M 1128.5,271.5 C 1133.15,272.174 1134.65,274.841 1133,279.5C 1130.96,280.423 1128.79,280.756 1126.5,280.5C 1126.07,277.162 1126.73,274.162 1128.5,271.5 Z"/></g>
<g><path style="opacity:1" fill="#a0c0de" d="M 1096.5,270.5 C 1096.03,273.082 1096.69,275.082 1098.5,276.5C 1098.83,276.5 1099.17,276.5 1099.5,276.5C 1099.17,277.5 1098.5,278.167 1097.5,278.5C 1095.4,275.997 1095.06,273.33 1096.5,270.5 Z"/></g>
<g><path style="opacity:1" fill="#f6f9fc" d="M 1129.5,273.5 C 1131.21,274.635 1131.88,276.302 1131.5,278.5C 1130.5,278.5 1129.5,278.5 1128.5,278.5C 1128.37,276.708 1128.7,275.042 1129.5,273.5 Z"/></g>
<g><path style="opacity:1" fill="#f8fafc" d="M 1095.5,299.5 C 1095.33,292.825 1095.5,286.158 1096,279.5C 1096.38,278.944 1096.88,278.611 1097.5,278.5C 1098.5,278.167 1099.17,277.5 1099.5,276.5C 1104.93,275.45 1106.76,277.784 1105,283.5C 1098.88,289.026 1099.38,289.692 1106.5,285.5C 1107.72,286.263 1108.72,287.263 1109.5,288.5C 1112.09,286.284 1114.59,283.951 1117,281.5C 1117.77,281.645 1118.44,281.978 1119,282.5C 1120.29,287.562 1118.46,291.062 1113.5,293C 1107.19,294.321 1101.19,296.488 1095.5,299.5 Z"/></g>
<g><path style="opacity:1" fill="#f4f7fb" d="M 1239.5,276.5 C 1244.64,275.989 1246.97,277.989 1246.5,282.5C 1245.18,282.67 1244.01,282.337 1243,281.5C 1242.76,283.764 1242.26,285.931 1241.5,288C 1242.42,288.278 1243.08,288.778 1243.5,289.5C 1243.12,292.05 1241.62,293.383 1239,293.5C 1235.92,293.252 1234.42,291.585 1234.5,288.5C 1234.3,286.61 1234.96,285.11 1236.5,284C 1234.1,283.195 1234.27,282.362 1237,281.5C 1237.85,279.807 1238.68,278.14 1239.5,276.5 Z"/></g>
<g><path style="opacity:1" fill="#d0e0ef" d="M 1079.5,285.5 C 1078.17,285.5 1076.83,285.5 1075.5,285.5C 1075.34,283.143 1075.5,280.81 1076,278.5C 1076.2,280.382 1076.7,282.048 1077.5,283.5C 1078.84,280.009 1080.84,276.843 1083.5,274C 1086.33,273.031 1088.66,273.697 1090.5,276C 1088.65,275.217 1086.65,274.884 1084.5,275C 1081.89,278.062 1080.22,281.562 1079.5,285.5 Z"/></g>
<g><path style="opacity:1" fill="#f9fbfd" d="M 1160.5,284.5 C 1160.5,294.5 1160.5,304.5 1160.5,314.5C 1155.05,313.444 1150.05,311.278 1145.5,308C 1141.83,307.333 1138.17,307.333 1134.5,308C 1123.73,316.765 1113.06,316.599 1102.5,307.5C 1104.39,314.05 1108.06,319.884 1113.5,325C 1114.45,325.483 1115.45,325.649 1116.5,325.5C 1117.4,326.158 1118.4,326.824 1119.5,327.5C 1118.5,328.167 1117.5,328.833 1116.5,329.5C 1116.62,330.107 1116.96,330.44 1117.5,330.5C 1121.88,334.288 1121.21,335.288 1115.5,333.5C 1109.78,327.281 1104.62,320.614 1100,313.5C 1097.65,309.798 1096.15,305.798 1095.5,301.5C 1098.39,300.597 1101.39,300.264 1104.5,300.5C 1104.5,299.167 1104.5,297.833 1104.5,296.5C 1111.32,297.924 1116.65,295.757 1120.5,290C 1121.45,289.517 1122.45,289.351 1123.5,289.5C 1123.35,293.607 1122.02,297.273 1119.5,300.5C 1120,300.833 1120.5,301.167 1121,301.5C 1123.56,300.47 1126.06,299.303 1128.5,298C 1135.21,291.626 1142.21,285.626 1149.5,280C 1154.24,278.917 1157.91,280.417 1160.5,284.5 Z"/></g>
<g><path style="opacity:1" fill="#72a2cf" d="M 1239.5,276.5 C 1238.68,278.14 1237.85,279.807 1237,281.5C 1234.27,282.362 1234.1,283.195 1236.5,284C 1234.96,285.11 1234.3,286.61 1234.5,288.5C 1233.73,287.828 1233.07,286.995 1232.5,286C 1232.75,281.258 1235.08,278.092 1239.5,276.5 Z"/></g>
<g><path style="opacity:1" fill="#f5f8fb" d="M 1253.5,293.5 C 1253.5,293.167 1253.5,292.833 1253.5,292.5C 1251.71,289.772 1251.21,286.772 1252,283.5C 1253.58,282.04 1254.92,280.373 1256,278.5C 1257.02,280.564 1258.35,280.898 1260,279.5C 1261.26,279.759 1262.26,280.426 1263,281.5C 1264.45,284.143 1265.61,286.977 1266.5,290C 1265.41,292.54 1265.24,295.04 1266,297.5C 1263.24,296.883 1260.41,296.716 1257.5,297C 1256.26,295.612 1254.93,294.446 1253.5,293.5 Z"/></g>
<g><path style="opacity:1" fill="#4185bf" d="M 1160.5,284.5 C 1161.33,293.991 1161.83,303.658 1162,313.5C 1162.17,303.658 1162.67,293.991 1163.5,284.5C 1163.5,294.5 1163.5,304.5 1163.5,314.5C 1162.5,314.5 1161.5,314.5 1160.5,314.5C 1160.5,304.5 1160.5,294.5 1160.5,284.5 Z"/></g>
<g><path style="opacity:1" fill="#538fc4" d="M 1259.5,284.5 C 1260.25,285.531 1260.92,286.698 1261.5,288C 1261.17,288.167 1260.83,288.333 1260.5,288.5C 1259.57,287.311 1259.24,285.978 1259.5,284.5 Z"/></g>
<g><path style="opacity:1" fill="#d1e1ef" d="M 1075.5,298.5 C 1075.5,299.167 1075.17,299.5 1074.5,299.5C 1070.62,294.457 1065.96,290.29 1060.5,287C 1067.29,288.267 1072.29,292.1 1075.5,298.5 Z"/></g>
<g><path style="opacity:1" fill="#ebf2f8" d="M 1079.5,302.5 C 1077.82,298.99 1076.82,295.157 1076.5,291C 1076.83,290.167 1077.17,289.333 1077.5,288.5C 1078.32,291.107 1078.82,293.774 1079,296.5C 1079.36,293.456 1079.86,290.456 1080.5,287.5C 1082.05,284.724 1084.39,283.557 1087.5,284C 1081.66,288.636 1079,294.803 1079.5,302.5 Z"/></g>
<g><path style="opacity:1" fill="#2c6eb3" d="M 1139.5,273.5 C 1138.66,273.842 1138.33,274.508 1138.5,275.5C 1137.52,272.375 1137.19,269.042 1137.5,265.5C 1132.5,265.5 1127.5,265.5 1122.5,265.5C 1122.58,271.023 1122.25,276.523 1121.5,282C 1121.56,284.718 1122.56,286.885 1124.5,288.5C 1123.83,288.5 1123.5,288.833 1123.5,289.5C 1122.45,289.351 1121.45,289.517 1120.5,290C 1116.65,295.757 1111.32,297.924 1104.5,296.5C 1104.5,297.833 1104.5,299.167 1104.5,300.5C 1101.39,300.264 1098.39,300.597 1095.5,301.5C 1095.5,300.833 1095.5,300.167 1095.5,299.5C 1101.19,296.488 1107.19,294.321 1113.5,293C 1118.46,291.062 1120.29,287.562 1119,282.5C 1118.44,281.978 1117.77,281.645 1117,281.5C 1114.59,283.951 1112.09,286.284 1109.5,288.5C 1108.72,287.263 1107.72,286.263 1106.5,285.5C 1099.38,289.692 1098.88,289.026 1105,283.5C 1106.76,277.784 1104.93,275.45 1099.5,276.5C 1099.17,276.5 1098.83,276.5 1098.5,276.5C 1099.19,274.978 1100.36,273.978 1102,273.5C 1104.45,274.944 1106.62,276.778 1108.5,279C 1110.87,279.562 1113.2,279.396 1115.5,278.5C 1117.06,278.722 1118.39,279.389 1119.5,280.5C 1120.21,275.482 1120.88,270.482 1121.5,265.5C 1119.11,262.805 1118.11,259.638 1118.5,256C 1117.25,250.584 1119.08,248.75 1124,250.5C 1125.18,254.268 1126.34,254.101 1127.5,250C 1131.14,248.685 1133.47,249.851 1134.5,253.5C 1135.45,249.727 1137.62,248.727 1141,250.5C 1141.67,253.833 1141.67,257.167 1141,260.5C 1138.21,264.51 1137.71,268.843 1139.5,273.5 Z"/></g>
<g><path style="opacity:1" fill="#fdfefe" d="M 1121.5,262.5 C 1126.98,261.348 1132.65,261.182 1138.5,262C 1132.93,263.825 1127.26,263.992 1121.5,262.5 Z"/></g>
<g><path style="opacity:1" fill="#b1cce4" d="M 1120.5,251.5 C 1120.5,253.833 1120.5,256.167 1120.5,258.5C 1126.83,258.5 1133.17,258.5 1139.5,258.5C 1133.02,259.491 1126.35,259.824 1119.5,259.5C 1119.19,256.615 1119.53,253.948 1120.5,251.5 Z"/></g>
<g><path style="opacity:1" fill="#f4f7fb" d="M 1120.5,251.5 C 1122.18,252.183 1122.84,253.517 1122.5,255.5C 1124.5,255.5 1126.5,255.5 1128.5,255.5C 1128.5,254.167 1128.5,252.833 1128.5,251.5C 1129.5,251.5 1130.5,251.5 1131.5,251.5C 1131.5,252.833 1131.5,254.167 1131.5,255.5C 1133.5,255.5 1135.5,255.5 1137.5,255.5C 1137.24,254.022 1137.57,252.689 1138.5,251.5C 1139.47,253.743 1139.81,256.076 1139.5,258.5C 1133.17,258.5 1126.83,258.5 1120.5,258.5C 1120.5,256.167 1120.5,253.833 1120.5,251.5 Z"/></g>
<g><path style="opacity:0.904" fill="#000000" d="M 669.5,294.5 C 672.167,294.5 674.833,294.5 677.5,294.5C 677.5,311.167 677.5,327.833 677.5,344.5C 674.833,344.5 672.167,344.5 669.5,344.5C 669.5,327.833 669.5,311.167 669.5,294.5 Z"/></g>
<g><path style="opacity:0.888" fill="#000000" d="M 171.5,295.5 C 177.766,295.058 183.766,296.058 189.5,298.5C 190.655,301.446 190.821,304.446 190,307.5C 178.512,300.739 168.845,302.739 161,313.5C 157.99,331.824 165.824,339.658 184.5,337C 186.421,336.64 188.088,335.806 189.5,334.5C 190.484,337.428 190.817,340.428 190.5,343.5C 180.118,346.842 170.118,346.008 160.5,341C 149.727,329.928 148.227,317.761 156,304.5C 160.274,299.785 165.441,296.785 171.5,295.5 Z"/></g>
<g><path style="opacity:0.832" fill="#000000" d="M 198.5,296.5 C 204.989,296.156 206.989,298.99 204.5,305C 196.401,306.492 194.401,303.659 198.5,296.5 Z"/></g>
<g><path style="opacity:0.829" fill="#000000" d="M 224.5,296.5 C 227.187,296.336 229.854,296.503 232.5,297C 235.13,300.632 238.13,303.965 241.5,307C 236.36,308.46 232.026,307.293 228.5,303.5C 227.618,304.76 226.618,305.926 225.5,307C 222.5,307.667 219.5,307.667 216.5,307C 219.407,303.605 222.073,300.105 224.5,296.5 Z"/></g>
<g><path style="opacity:0.832" fill="#000000" d="M 326.5,296.5 C 332.989,296.156 334.989,298.99 332.5,305C 324.401,306.492 322.401,303.659 326.5,296.5 Z"/></g>
<g><path style="opacity:0.887" fill="#000000" d="M 436.5,296.5 C 439.167,296.5 441.833,296.5 444.5,296.5C 444.5,312.5 444.5,328.5 444.5,344.5C 442.167,344.5 439.833,344.5 437.5,344.5C 437.657,343.127 437.49,341.793 437,340.5C 432.117,345.204 426.283,346.704 419.5,345C 408.055,337.982 405.555,328.482 412,316.5C 419.46,309.375 427.46,308.708 436,314.5C 436.499,308.509 436.666,302.509 436.5,296.5 Z M 424.5,317.5 C 436.696,319.196 439.696,325.362 433.5,336C 425.829,340.532 420.329,338.698 417,330.5C 415.972,324.048 418.472,319.715 424.5,317.5 Z"/></g>
<g><path style="opacity:0.861" fill="#000000" d="M 489.5,296.5 C 502.833,296.5 516.167,296.5 529.5,296.5C 529.5,299.167 529.5,301.833 529.5,304.5C 524.167,304.5 518.833,304.5 513.5,304.5C 513.5,317.833 513.5,331.167 513.5,344.5C 510.5,344.5 507.5,344.5 504.5,344.5C 504.5,331.167 504.5,317.833 504.5,304.5C 499.5,304.5 494.5,304.5 489.5,304.5C 489.5,301.833 489.5,299.167 489.5,296.5 Z"/></g>
<g><path style="opacity:0.832" fill="#000000" d="M 770.5,296.5 C 776.989,296.156 778.989,298.99 776.5,305C 768.401,306.492 766.401,303.659 770.5,296.5 Z"/></g>
<g><path style="opacity:1" fill="#8bb2d7" d="M 1073.5,276.5 C 1073.83,276.5 1074.17,276.5 1074.5,276.5C 1075.17,276.5 1075.83,276.5 1076.5,276.5C 1077.37,278.717 1077.7,281.05 1077.5,283.5C 1076.7,282.048 1076.2,280.382 1076,278.5C 1075.5,280.81 1075.34,283.143 1075.5,285.5C 1076.83,285.5 1078.17,285.5 1079.5,285.5C 1079.33,286.492 1079.66,287.158 1080.5,287.5C 1079.86,290.456 1079.36,293.456 1079,296.5C 1078.82,293.774 1078.32,291.107 1077.5,288.5C 1077.17,289.333 1076.83,290.167 1076.5,291C 1076.82,295.157 1077.82,298.99 1079.5,302.5C 1079.56,303.043 1079.89,303.376 1080.5,303.5C 1081.89,299.062 1084.05,295.062 1087,291.5C 1085.17,296.488 1083.34,301.488 1081.5,306.5C 1080.38,305.243 1079.71,305.576 1079.5,307.5C 1077.93,305.898 1077.26,303.898 1077.5,301.5C 1074.83,301.5 1072.17,301.5 1069.5,301.5C 1070.83,300.833 1072.17,300.167 1073.5,299.5C 1073.83,299.5 1074.17,299.5 1074.5,299.5C 1075.17,299.5 1075.5,299.167 1075.5,298.5C 1076.52,295.858 1075.85,293.525 1073.5,291.5C 1072.67,285.65 1072.67,280.65 1073.5,276.5 Z"/></g>
<g><path style="opacity:1" fill="#dde8f3" d="M 1073.5,299.5 C 1072.17,300.167 1070.83,300.833 1069.5,301.5C 1064.88,300.924 1060.72,301.924 1057,304.5C 1057.36,301.506 1059.19,299.673 1062.5,299C 1066.26,298.245 1069.92,298.411 1073.5,299.5 Z"/></g>
<g><path style="opacity:1" fill="#1762ad" d="M 1160.5,314.5 C 1160.5,322.5 1160.5,330.5 1160.5,338.5C 1161.5,338.5 1162.5,338.5 1163.5,338.5C 1163.5,336.5 1163.5,334.5 1163.5,332.5C 1165.2,332.66 1166.87,332.494 1168.5,332C 1171.83,330 1175.17,328 1178.5,326C 1182.26,325.262 1185.93,325.595 1189.5,327C 1195.54,331.59 1201.54,333.757 1207.5,333.5C 1208.21,334.404 1209.21,334.737 1210.5,334.5C 1178.15,342.499 1145.82,342.499 1113.5,334.5C 1114.49,334.672 1115.16,334.338 1115.5,333.5C 1121.21,335.288 1121.88,334.288 1117.5,330.5C 1118.21,329.596 1119.21,329.263 1120.5,329.5C 1120.5,328.167 1120.5,326.833 1120.5,325.5C 1119.17,325.5 1117.83,325.5 1116.5,325.5C 1115.45,325.649 1114.45,325.483 1113.5,325C 1108.06,319.884 1104.39,314.05 1102.5,307.5C 1113.06,316.599 1123.73,316.765 1134.5,308C 1138.17,307.333 1141.83,307.333 1145.5,308C 1150.05,311.278 1155.05,313.444 1160.5,314.5 Z"/></g>
<g><path style="opacity:1" fill="#1762ad" d="M 1163.5,314.5 C 1168.8,313.685 1173.46,311.519 1177.5,308C 1181.17,307.333 1184.83,307.333 1188.5,308C 1192.93,311.965 1198.09,314.132 1204,314.5C 1205.83,314.333 1207.67,314.167 1209.5,314C 1213.71,311.392 1218.04,309.392 1222.5,308C 1213.69,321.953 1202.69,323.953 1189.5,314C 1185.17,313.333 1180.83,313.333 1176.5,314C 1172.86,316.803 1168.86,318.97 1164.5,320.5C 1163.53,318.604 1163.2,316.604 1163.5,314.5 Z"/></g>
<g><path style="opacity:1" fill="#f7f9fc" d="M 1069.5,307.5 C 1073.04,310.506 1077.04,313.006 1081.5,315C 1088.17,317.667 1094.83,320.333 1101.5,323C 1103.61,324.264 1104.61,326.097 1104.5,328.5C 1100.18,328.227 1096.01,327.227 1092,325.5C 1090.01,327.464 1088.51,329.797 1087.5,332.5C 1086.67,332.833 1085.83,333.167 1085,333.5C 1076.68,331.426 1069.51,327.426 1063.5,321.5C 1065.51,316.807 1067.51,312.141 1069.5,307.5 Z"/></g>
<g><path style="opacity:1" fill="#e5eef6" d="M 1081.5,306.5 C 1082.36,308.895 1082.36,311.229 1081.5,313.5C 1079.91,311.827 1079.25,309.827 1079.5,307.5C 1079.71,305.576 1080.38,305.243 1081.5,306.5 Z"/></g>
<g><path style="opacity:1" fill="#f7fafc" d="M 1252.5,307.5 C 1253.5,307.414 1254.33,307.748 1255,308.5C 1256.54,312.956 1258.37,317.289 1260.5,321.5C 1254.38,327.562 1247.05,331.562 1238.5,333.5C 1235.98,331.644 1234.31,329.144 1233.5,326C 1228.82,326.496 1224.16,327.329 1219.5,328.5C 1219.39,326.097 1220.39,324.264 1222.5,323C 1231.09,319.138 1239.75,315.472 1248.5,312C 1250.64,311.124 1251.97,309.624 1252.5,307.5 Z"/></g>
<g><path style="opacity:0.877" fill="#000000" d="M 224.5,310.5 C 239.346,309.68 246.013,316.68 244.5,331.5C 236.5,331.5 228.5,331.5 220.5,331.5C 220.872,335.043 222.872,337.21 226.5,338C 231.658,338.91 236.658,338.41 241.5,336.5C 242.647,338.765 242.814,341.098 242,343.5C 236.351,345.488 230.518,345.988 224.5,345C 214.311,341.468 210.145,334.302 212,323.5C 213.682,316.653 217.849,312.32 224.5,310.5 Z M 225.5,317.5 C 231.679,316.252 235.679,318.585 237.5,324.5C 231.5,325.833 225.5,325.833 219.5,324.5C 220.833,321.507 222.833,319.173 225.5,317.5 Z"/></g>
<g><path style="opacity:0.894" fill="#000000" d="M 264.5,310.5 C 271.208,309.274 276.708,311.274 281,316.5C 282.417,325.752 282.917,335.085 282.5,344.5C 279.833,344.5 277.167,344.5 274.5,344.5C 274.666,336.826 274.5,329.159 274,321.5C 268.756,316.115 263.756,316.448 259,322.5C 258.5,329.826 258.334,337.159 258.5,344.5C 255.833,344.5 253.167,344.5 250.5,344.5C 250.5,333.5 250.5,322.5 250.5,311.5C 252.833,311.5 255.167,311.5 257.5,311.5C 257.343,312.873 257.51,314.207 258,315.5C 259.965,313.45 262.132,311.783 264.5,310.5 Z"/></g>
<g><path style="opacity:0.879" fill="#000000" d="M 302.5,310.5 C 306.915,310.305 311.249,310.805 315.5,312C 317.662,314.522 317.995,317.355 316.5,320.5C 311.301,316.83 305.968,316.664 300.5,320C 294.42,327.678 295.753,333.678 304.5,338C 308.664,338.813 312.664,338.313 316.5,336.5C 317.777,339.034 317.777,341.534 316.5,344C 305.658,347.987 296.825,345.487 290,336.5C 285.905,323.692 290.072,315.026 302.5,310.5 Z"/></g>
<g><path style="opacity:0.874" fill="#000000" d="M 348.5,310.5 C 354.852,309.715 360.686,311.048 366,314.5C 367.751,316.49 368.751,318.823 369,321.5C 369.499,327.157 369.666,332.824 369.5,338.5C 370.833,338.5 372.167,338.5 373.5,338.5C 374.578,345.065 371.911,347.232 365.5,345C 364.034,344.365 362.7,343.531 361.5,342.5C 353.358,347.139 345.858,346.472 339,340.5C 336.421,332.65 338.921,327.483 346.5,325C 351.533,324.829 356.533,324.329 361.5,323.5C 360.008,319.325 357.008,317.325 352.5,317.5C 348.644,317.87 344.978,318.87 341.5,320.5C 340.52,317.914 340.187,315.247 340.5,312.5C 343.373,312.198 346.039,311.531 348.5,310.5 Z M 353.5,329.5 C 356.127,330.092 358.794,330.425 361.5,330.5C 361.579,336.335 358.579,339.335 352.5,339.5C 347.651,338.855 345.984,336.355 347.5,332C 349.611,331.155 351.611,330.322 353.5,329.5 Z"/></g>
<g><path style="opacity:0.874" fill="#000000" d="M 460.5,310.5 C 466.852,309.715 472.686,311.048 478,314.5C 479.751,316.49 480.751,318.823 481,321.5C 481.499,327.157 481.666,332.824 481.5,338.5C 482.833,338.5 484.167,338.5 485.5,338.5C 486.578,345.065 483.911,347.232 477.5,345C 476.034,344.365 474.7,343.531 473.5,342.5C 465.358,347.139 457.858,346.472 451,340.5C 448.421,332.65 450.921,327.483 458.5,325C 463.533,324.829 468.533,324.329 473.5,323.5C 472.008,319.325 469.008,317.325 464.5,317.5C 460.644,317.87 456.978,318.87 453.5,320.5C 452.52,317.914 452.187,315.247 452.5,312.5C 455.373,312.198 458.039,311.531 460.5,310.5 Z M 465.5,329.5 C 468.127,330.092 470.794,330.425 473.5,330.5C 473.579,336.335 470.579,339.335 464.5,339.5C 459.651,338.855 457.984,336.355 459.5,332C 461.611,331.155 463.611,330.322 465.5,329.5 Z"/></g>
<g><path style="opacity:0.877" fill="#000000" d="M 528.5,310.5 C 543.346,309.68 550.013,316.68 548.5,331.5C 540.5,331.5 532.5,331.5 524.5,331.5C 524.872,335.043 526.872,337.21 530.5,338C 535.658,338.91 540.658,338.41 545.5,336.5C 546.647,338.765 546.814,341.098 546,343.5C 540.351,345.488 534.518,345.988 528.5,345C 518.311,341.468 514.145,334.302 516,323.5C 517.682,316.653 521.849,312.32 528.5,310.5 Z M 529.5,317.5 C 535.679,316.252 539.679,318.585 541.5,324.5C 535.5,325.833 529.5,325.833 523.5,324.5C 524.833,321.507 526.833,319.173 529.5,317.5 Z"/></g>
<g><path style="opacity:0.879" fill="#000000" d="M 567.5,310.5 C 571.915,310.305 576.249,310.805 580.5,312C 582.662,314.522 582.995,317.355 581.5,320.5C 576.301,316.83 570.968,316.664 565.5,320C 559.42,327.678 560.753,333.678 569.5,338C 573.664,338.813 577.664,338.313 581.5,336.5C 582.777,339.034 582.777,341.534 581.5,344C 570.658,347.987 561.825,345.487 555,336.5C 550.905,323.692 555.072,315.026 567.5,310.5 Z"/></g>
<g><path style="opacity:0.894" fill="#000000" d="M 602.5,310.5 C 609.208,309.274 614.708,311.274 619,316.5C 620.417,325.752 620.917,335.085 620.5,344.5C 617.833,344.5 615.167,344.5 612.5,344.5C 612.666,336.826 612.5,329.159 612,321.5C 606.756,316.115 601.756,316.448 597,322.5C 596.5,329.826 596.334,337.159 596.5,344.5C 593.833,344.5 591.167,344.5 588.5,344.5C 588.5,333.5 588.5,322.5 588.5,311.5C 590.833,311.5 593.167,311.5 595.5,311.5C 595.343,312.873 595.51,314.207 596,315.5C 597.965,313.45 600.132,311.783 602.5,310.5 Z"/></g>
<g><path style="opacity:0.879" fill="#000000" d="M 640.5,310.5 C 660.096,310.688 666.596,320.021 660,338.5C 654.245,345.037 647.078,347.203 638.5,345C 627.832,340.014 624.332,331.847 628,320.5C 630.918,315.396 635.085,312.063 640.5,310.5 Z M 640.5,318.5 C 653.25,318.088 657.083,323.754 652,335.5C 646.069,339.781 640.735,339.115 636,333.5C 633.473,327.235 634.973,322.235 640.5,318.5 Z"/></g>
<g><path style="opacity:0.879" fill="#000000" d="M 697.5,310.5 C 717.096,310.688 723.596,320.021 717,338.5C 711.245,345.037 704.078,347.203 695.5,345C 684.832,340.014 681.332,331.847 685,320.5C 687.918,315.396 692.085,312.063 697.5,310.5 Z M 697.5,318.5 C 710.25,318.088 714.083,323.754 709,335.5C 703.069,339.781 697.735,339.115 693,333.5C 690.473,327.235 691.973,322.235 697.5,318.5 Z"/></g>
<g><path style="opacity:0.884" fill="#000000" d="M 736.5,310.5 C 742.883,309.476 748.383,311.143 753,315.5C 753.49,314.207 753.657,312.873 753.5,311.5C 755.833,311.5 758.167,311.5 760.5,311.5C 760.667,324.171 760.5,336.838 760,349.5C 758.217,355.157 754.384,358.657 748.5,360C 741.706,360.872 735.039,360.372 728.5,358.5C 728.768,355.881 728.435,353.381 727.5,351C 730.244,351.019 732.911,351.686 735.5,353C 739.926,353.791 744.259,353.457 748.5,352C 752.035,349.293 753.202,345.793 752,341.5C 750.681,343.487 748.848,344.654 746.5,345C 728.9,346.057 722.067,337.89 726,320.5C 728.106,315.557 731.606,312.224 736.5,310.5 Z M 740.5,317.5 C 750.442,318.371 754.275,323.704 752,333.5C 748.042,338.353 743.208,339.52 737.5,337C 730.305,329.153 731.305,322.653 740.5,317.5 Z"/></g>
<g><path style="opacity:0.874" fill="#000000" d="M 793.5,310.5 C 799.852,309.715 805.686,311.048 811,314.5C 812.751,316.49 813.751,318.823 814,321.5C 814.499,327.157 814.666,332.824 814.5,338.5C 815.833,338.5 817.167,338.5 818.5,338.5C 819.578,345.065 816.911,347.232 810.5,345C 809.034,344.365 807.7,343.531 806.5,342.5C 798.358,347.139 790.858,346.472 784,340.5C 781.421,332.65 783.921,327.483 791.5,325C 796.533,324.829 801.533,324.329 806.5,323.5C 805.008,319.325 802.008,317.325 797.5,317.5C 793.644,317.87 789.978,318.87 786.5,320.5C 785.52,317.914 785.187,315.247 785.5,312.5C 788.373,312.198 791.039,311.531 793.5,310.5 Z M 798.5,329.5 C 801.127,330.092 803.794,330.425 806.5,330.5C 806.579,336.335 803.579,339.335 797.5,339.5C 792.651,338.855 790.984,336.355 792.5,332C 794.611,331.155 796.611,330.322 798.5,329.5 Z"/></g>
<g><path style="opacity:1" fill="#f1f5fa" d="M 1344.5,310.5 C 1348.94,310.21 1353.27,310.71 1357.5,312C 1358.38,313.356 1358.71,314.856 1358.5,316.5C 1354.2,315.537 1349.87,315.371 1345.5,316C 1339.09,320.083 1337.75,325.583 1341.5,332.5C 1342.5,333.333 1343.5,334.167 1344.5,335C 1347.82,335.498 1351.15,335.665 1354.5,335.5C 1354.5,331.833 1354.5,328.167 1354.5,324.5C 1356.17,324.5 1357.83,324.5 1359.5,324.5C 1359.8,329.43 1359.47,334.263 1358.5,339C 1351.5,341.455 1344.83,340.788 1338.5,337C 1334.77,331.757 1333.61,325.924 1335,319.5C 1337.41,315.592 1340.57,312.592 1344.5,310.5 Z"/></g>
<g><path style="opacity:1" fill="#f1f5fa" d="M 1416.5,310.5 C 1433.16,310.825 1438.66,318.825 1433,334.5C 1425.8,341.37 1417.97,342.203 1409.5,337C 1407.96,335.421 1406.79,333.587 1406,331.5C 1403.24,321.015 1406.74,314.015 1416.5,310.5 Z"/></g>
<g><path style="opacity:1" fill="#7cabd3" d="M 1551.5,311.5 C 1558.31,310.509 1565.31,310.175 1572.5,310.5C 1572.78,312.415 1572.45,314.081 1571.5,315.5C 1571.5,314.167 1571.5,312.833 1571.5,311.5C 1564.83,311.5 1558.17,311.5 1551.5,311.5 Z"/></g>
<g><path style="opacity:1" fill="#f1f5fa" d="M 1771.5,310.5 C 1787.17,309.007 1793.67,316.007 1791,331.5C 1789.28,336.551 1785.78,339.385 1780.5,340C 1766.53,341.026 1760.36,334.526 1762,320.5C 1764.02,315.98 1767.19,312.647 1771.5,310.5 Z"/></g>
<g><path style="opacity:0.901" fill="#000000" d="M 196.5,311.5 C 199.167,311.5 201.833,311.5 204.5,311.5C 204.5,322.5 204.5,333.5 204.5,344.5C 201.833,344.5 199.167,344.5 196.5,344.5C 196.5,333.5 196.5,322.5 196.5,311.5 Z"/></g>
<g><path style="opacity:0.901" fill="#000000" d="M 324.5,311.5 C 327.167,311.5 329.833,311.5 332.5,311.5C 332.5,322.5 332.5,333.5 332.5,344.5C 329.833,344.5 327.167,344.5 324.5,344.5C 324.5,333.5 324.5,322.5 324.5,311.5 Z"/></g>
<g><path style="opacity:0.901" fill="#000000" d="M 768.5,311.5 C 771.167,311.5 773.833,311.5 776.5,311.5C 776.5,322.5 776.5,333.5 776.5,344.5C 773.833,344.5 771.167,344.5 768.5,344.5C 768.5,333.5 768.5,322.5 768.5,311.5 Z"/></g>
<g><path style="opacity:1" fill="#eef4f9" d="M 1478.5,310.5 C 1480.29,310.215 1481.95,310.548 1483.5,311.5C 1486.24,318.873 1489.07,326.206 1492,333.5C 1494.74,326.46 1497.57,319.46 1500.5,312.5C 1502.05,311.548 1503.71,311.215 1505.5,311.5C 1502.3,320.911 1498.8,330.245 1495,339.5C 1492.67,341.032 1490.67,340.698 1489,338.5C 1485,329.325 1481.5,319.992 1478.5,310.5 Z"/></g>
<g><path style="opacity:1" fill="#f2f6fa" d="M 1551.5,311.5 C 1558.17,311.5 1564.83,311.5 1571.5,311.5C 1571.5,312.833 1571.5,314.167 1571.5,315.5C 1566.83,315.5 1562.17,315.5 1557.5,315.5C 1556.53,317.948 1556.19,320.615 1556.5,323.5C 1561.17,323.5 1565.83,323.5 1570.5,323.5C 1570.5,324.833 1570.5,326.167 1570.5,327.5C 1565.83,327.5 1561.17,327.5 1556.5,327.5C 1556.19,330.385 1556.53,333.052 1557.5,335.5C 1562.5,335.5 1567.5,335.5 1572.5,335.5C 1572.5,337.167 1572.5,338.833 1572.5,340.5C 1565.5,340.5 1558.5,340.5 1551.5,340.5C 1551.5,330.833 1551.5,321.167 1551.5,311.5 Z"/></g>
<g><path style="opacity:1" fill="#eff4f9" d="M 1619.5,310.5 C 1624.18,310.334 1628.85,310.501 1633.5,311C 1641.03,312.62 1643.53,317.12 1641,324.5C 1639.48,326.348 1637.65,327.848 1635.5,329C 1638.17,332.333 1640.83,335.667 1643.5,339C 1641.5,339.667 1639.5,339.667 1637.5,339C 1635.17,336 1632.83,333 1630.5,330C 1628.53,329.505 1626.53,329.338 1624.5,329.5C 1624.5,333.167 1624.5,336.833 1624.5,340.5C 1622.83,340.5 1621.17,340.5 1619.5,340.5C 1619.5,330.5 1619.5,320.5 1619.5,310.5 Z"/></g>
<g><path style="opacity:1" fill="#7dabd3" d="M 1694.5,311.5 C 1693.17,311.5 1691.83,311.5 1690.5,311.5C 1690.5,320.833 1690.5,330.167 1690.5,339.5C 1691.83,339.5 1693.17,339.5 1694.5,339.5C 1694.33,332.825 1694.5,326.158 1695,319.5C 1695.72,320.044 1696.22,320.711 1696.5,321.5C 1695.51,327.645 1695.18,333.978 1695.5,340.5C 1693.5,340.5 1691.5,340.5 1689.5,340.5C 1689.5,330.5 1689.5,320.5 1689.5,310.5C 1691.41,310.216 1693.08,310.549 1694.5,311.5 Z"/></g>
<g><path style="opacity:1" fill="#fafcfd" d="M 1694.5,311.5 C 1699.89,317.262 1704.55,323.595 1708.5,330.5C 1708.56,331.043 1708.89,331.376 1709.5,331.5C 1710.5,324.866 1710.83,318.2 1710.5,311.5C 1711.83,311.5 1713.17,311.5 1714.5,311.5C 1714.5,320.833 1714.5,330.167 1714.5,339.5C 1712.8,339.66 1711.13,339.494 1709.5,339C 1704.95,333.289 1700.62,327.456 1696.5,321.5C 1696.22,320.711 1695.72,320.044 1695,319.5C 1694.5,326.158 1694.33,332.825 1694.5,339.5C 1693.17,339.5 1691.83,339.5 1690.5,339.5C 1690.5,330.167 1690.5,320.833 1690.5,311.5C 1691.83,311.5 1693.17,311.5 1694.5,311.5 Z"/></g>
<g><path style="opacity:1" fill="#b6d0e6" d="M 1714.5,311.5 C 1713.17,311.5 1711.83,311.5 1710.5,311.5C 1710.83,318.2 1710.5,324.866 1709.5,331.5C 1708.89,331.376 1708.56,331.043 1708.5,330.5C 1709.49,324.021 1709.82,317.354 1709.5,310.5C 1711.41,310.216 1713.08,310.549 1714.5,311.5 Z"/></g>
<g><path style="opacity:1" fill="#e5eef6" d="M 1136.5,312.5 C 1139.5,312.5 1142.5,312.5 1145.5,312.5C 1145.5,313.5 1145.5,314.5 1145.5,315.5C 1142.5,315.5 1139.5,315.5 1136.5,315.5C 1136.5,314.5 1136.5,313.5 1136.5,312.5 Z"/></g>
<g><path style="opacity:1" fill="#095eab" d="M 1415.5,315.5 C 1425.99,313.834 1430.83,318.167 1430,328.5C 1427.31,335.057 1422.48,337.223 1415.5,335C 1410.73,331.345 1409.23,326.512 1411,320.5C 1412.37,318.638 1413.87,316.972 1415.5,315.5 Z"/></g>
<g><path style="opacity:1" fill="#045daa" d="M 1624.5,315.5 C 1628.58,315.043 1632.42,315.71 1636,317.5C 1636.92,320.063 1636.42,322.23 1634.5,324C 1631.18,324.498 1627.85,324.665 1624.5,324.5C 1624.5,321.5 1624.5,318.5 1624.5,315.5 Z"/></g>
<g><path style="opacity:1" fill="#0d5fab" d="M 1772.5,315.5 C 1783.88,314.254 1788.38,319.254 1786,330.5C 1785.53,331.931 1784.7,333.097 1783.5,334C 1771.58,338.064 1766.08,333.898 1767,321.5C 1768.36,318.977 1770.19,316.977 1772.5,315.5 Z"/></g>
<g><path style="opacity:1" fill="#1b64ae" d="M 1178.5,316.5 C 1181.52,316.335 1184.52,316.502 1187.5,317C 1190.83,319 1194.17,321 1197.5,323C 1202.58,323.552 1207.58,323.552 1212.5,323C 1210.5,325 1208.5,327 1206.5,329C 1203.83,329.667 1201.17,329.667 1198.5,329C 1192.3,322.978 1184.96,320.978 1176.5,323C 1172.86,325.803 1168.86,327.97 1164.5,329.5C 1163.53,327.604 1163.2,325.604 1163.5,323.5C 1169.18,322.494 1174.18,320.161 1178.5,316.5 Z"/></g>
<g><path style="opacity:1" fill="#eaf1f7" d="M 1131.5,316.5 C 1132.6,317.601 1132.76,318.934 1132,320.5C 1129.9,322.266 1127.57,323.599 1125,324.5C 1124.22,323.056 1124.39,321.723 1125.5,320.5C 1127.81,319.5 1129.81,318.166 1131.5,316.5 Z"/></g>
<g><path style="opacity:1" fill="#e1ebf4" d="M 1112.5,317.5 C 1115.1,318.265 1117.76,318.599 1120.5,318.5C 1120.5,319.5 1120.5,320.5 1120.5,321.5C 1118.14,321.663 1115.81,321.497 1113.5,321C 1112.66,319.989 1112.33,318.822 1112.5,317.5 Z"/></g>
<g><path style="opacity:1" fill="#e8f0f7" d="M 1149.5,317.5 C 1152.09,318.128 1154.42,319.295 1156.5,321C 1157.73,322.183 1157.73,323.349 1156.5,324.5C 1154.5,323.5 1152.5,322.5 1150.5,321.5C 1149.57,320.311 1149.24,318.978 1149.5,317.5 Z"/></g>
<g><path style="opacity:1" fill="#7daad3" d="M 1137.5,320.5 C 1137.5,321.5 1137.5,322.5 1137.5,323.5C 1139.92,323.808 1142.26,323.474 1144.5,322.5C 1143.4,321.824 1142.4,321.158 1141.5,320.5C 1142.83,320.5 1144.17,320.5 1145.5,320.5C 1145.5,321.833 1145.5,323.167 1145.5,324.5C 1142.5,324.5 1139.5,324.5 1136.5,324.5C 1136.23,322.901 1136.57,321.568 1137.5,320.5 Z"/></g>
<g><path style="opacity:1" fill="#f7f9fc" d="M 1137.5,320.5 C 1138.83,320.5 1140.17,320.5 1141.5,320.5C 1142.4,321.158 1143.4,321.824 1144.5,322.5C 1142.26,323.474 1139.92,323.808 1137.5,323.5C 1137.5,322.5 1137.5,321.5 1137.5,320.5 Z"/></g>
<g><path style="opacity:1" fill="#4286bf" d="M 1557.5,315.5 C 1557.5,317.833 1557.5,320.167 1557.5,322.5C 1562.03,322.182 1566.37,322.515 1570.5,323.5C 1565.83,323.5 1561.17,323.5 1556.5,323.5C 1556.19,320.615 1556.53,317.948 1557.5,315.5 Z"/></g>
<g><path style="opacity:1" fill="#edf3f9" d="M 1130.5,325.5 C 1131.59,325.62 1132.25,326.287 1132.5,327.5C 1130.82,330.678 1128.15,332.345 1124.5,332.5C 1124.35,331.448 1124.52,330.448 1125,329.5C 1127.17,328.512 1129,327.179 1130.5,325.5 Z"/></g>
<g><path style="opacity:1" fill="#e7eff7" d="M 1149.5,325.5 C 1153.14,326.946 1155.8,329.279 1157.5,332.5C 1152.66,332.442 1149.99,330.109 1149.5,325.5 Z"/></g>
<g><path style="opacity:1" fill="#4286bf" d="M 1570.5,327.5 C 1566.37,328.485 1562.03,328.818 1557.5,328.5C 1557.5,330.833 1557.5,333.167 1557.5,335.5C 1556.53,333.052 1556.19,330.385 1556.5,327.5C 1561.17,327.5 1565.83,327.5 1570.5,327.5 Z"/></g>
<g><path style="opacity:1" fill="#a2c2df" d="M 1116.5,325.5 C 1117.83,325.5 1119.17,325.5 1120.5,325.5C 1120.5,326.833 1120.5,328.167 1120.5,329.5C 1119.21,329.263 1118.21,329.596 1117.5,330.5C 1116.96,330.44 1116.62,330.107 1116.5,329.5C 1117.5,328.833 1118.5,328.167 1119.5,327.5C 1118.4,326.824 1117.4,326.158 1116.5,325.5 Z"/></g>
<g><path style="opacity:1" fill="#f6f9fc" d="M 1113.5,334.5 C 1145.82,342.499 1178.15,342.499 1210.5,334.5C 1217.33,333.111 1224,331.111 1230.5,328.5C 1233.92,333.717 1236.58,339.384 1238.5,345.5C 1187.45,362.726 1136.45,362.726 1085.5,345.5C 1087.47,339.568 1089.97,333.901 1093,328.5C 1099.61,331.32 1106.44,333.32 1113.5,334.5 Z"/></g>
<g><path style="opacity:1" fill="#eff5f9" d="M 1137.5,329.5 C 1140.17,329.5 1142.83,329.5 1145.5,329.5C 1145.5,330.5 1145.5,331.5 1145.5,332.5C 1142.83,332.5 1140.17,332.5 1137.5,332.5C 1137.5,331.5 1137.5,330.5 1137.5,329.5 Z"/></g>
<g><path style="opacity:1" fill="#ebf2f8" d="M 1177.5,331.5 C 1184.15,330.592 1190.15,332.092 1195.5,336C 1191.19,336.623 1187.03,336.123 1183,334.5C 1179.45,334.684 1176.28,335.85 1173.5,338C 1171.17,338.667 1168.83,338.667 1166.5,338C 1170.23,335.807 1173.9,333.64 1177.5,331.5 Z"/></g>
<g><path style="opacity:1" fill="#b6cfe6" d="M 1129.5,334.5 C 1130.68,334.281 1131.68,334.614 1132.5,335.5C 1130.95,336.798 1129.95,336.465 1129.5,334.5 Z"/></g>
<g><path style="opacity:1" fill="#cadced" d="M 1149.5,334.5 C 1156.97,337.216 1156.97,338.55 1149.5,338.5C 1149.5,337.167 1149.5,335.833 1149.5,334.5 Z"/></g>
<g><path style="opacity:0.868" fill="#000000" d="M 378.5,337.5 C 381.572,337.183 384.572,337.516 387.5,338.5C 385.372,343.385 383.538,348.385 382,353.5C 379.599,354.602 377.099,354.769 374.5,354C 376.379,348.649 377.713,343.149 378.5,337.5 Z"/></g>
<g><path style="opacity:1" fill="#6294c7" d="M 1222.5,337.5 C 1224.1,338.799 1224.6,340.465 1224,342.5C 1223.67,341.833 1223.33,341.167 1223,340.5C 1221.47,341.636 1220.14,342.636 1219,343.5C 1217.6,341.854 1217.43,340.187 1218.5,338.5C 1219.48,338.977 1220.31,339.643 1221,340.5C 1221.51,339.473 1222.01,338.473 1222.5,337.5 Z"/></g>
<g><path style="opacity:1" fill="#588bc3" d="M 1102.5,338.5 C 1103.65,338.791 1104.32,339.624 1104.5,341C 1104.33,341.833 1104.17,342.667 1104,343.5C 1102.6,342.773 1101.1,342.273 1099.5,342C 1100.71,340.961 1101.71,339.794 1102.5,338.5 Z"/></g>
<g><path style="opacity:1" fill="#76a3cf" d="M 1213.5,339.5 C 1216.6,339.413 1216.93,339.913 1214.5,341C 1215.5,342 1216.5,343 1217.5,344C 1216.44,345.188 1215.1,345.688 1213.5,345.5C 1213.88,342.538 1212.88,341.538 1210.5,342.5C 1211.43,343.768 1211.59,345.101 1211,346.5C 1210.19,344.718 1209.02,343.218 1207.5,342C 1209.5,340.981 1211.5,340.148 1213.5,339.5 Z"/></g>
<g><path style="opacity:1" fill="#6599ca" d="M 1109.5,340.5 C 1112.24,342.713 1111.74,344.046 1108,344.5C 1107.17,344.167 1106.33,343.833 1105.5,343.5C 1106.25,342.264 1106.58,340.93 1106.5,339.5C 1107.79,339.263 1108.79,339.596 1109.5,340.5 Z"/></g>
<g><path style="opacity:1" fill="#fbfcfd" d="M 1109.5,340.5 C 1109.72,341.675 1109.39,342.675 1108.5,343.5C 1107.2,341.948 1107.54,340.948 1109.5,340.5 Z"/></g>
<g><path style="opacity:1" fill="#5891c6" d="M 1114.5,341.5 C 1117.6,341.413 1117.93,341.913 1115.5,343C 1117.88,343.974 1117.54,344.641 1114.5,345C 1118.23,346.043 1117.89,346.543 1113.5,346.5C 1113.37,344.708 1113.7,343.042 1114.5,341.5 Z"/></g>
<g><path style="opacity:1" fill="#508ac2" d="M 1198.5,344.5 C 1199.2,342.656 1200.54,342.156 1202.5,343C 1201.77,344.399 1201.27,345.899 1201,347.5C 1200.76,345.881 1199.93,344.881 1198.5,344.5 Z"/></g>
<g><path style="opacity:1" fill="#76a2cf" d="M 1204.5,342.5 C 1206.56,342.762 1207.9,343.929 1208.5,346C 1203.73,348.873 1202.4,347.707 1204.5,342.5 Z"/></g>
<g><path style="opacity:1" fill="#79a4d0" d="M 1178.5,350.5 C 1178.5,349.833 1178.5,349.167 1178.5,348.5C 1180.05,348.179 1180.71,347.179 1180.5,345.5C 1183.52,345.123 1186.52,344.956 1189.5,345C 1187.4,345.556 1187.24,346.056 1189,346.5C 1190.42,343.802 1192.42,343.136 1195,344.5C 1194.85,345.825 1195.02,346.992 1195.5,348C 1194.55,348.617 1193.72,348.451 1193,347.5C 1192.67,348.167 1192.33,348.833 1192,349.5C 1191.27,347.842 1190.11,347.342 1188.5,348C 1190.79,348.984 1190.46,349.817 1187.5,350.5C 1186.72,349.271 1186.22,347.938 1186,346.5C 1184.06,348.955 1181.56,350.288 1178.5,350.5 Z"/></g>
<g><path style="opacity:1" fill="#528ec4" d="M 1120.5,343.5 C 1120.5,344.5 1120.5,345.5 1120.5,346.5C 1121.5,346.5 1122.5,346.5 1123.5,346.5C 1123.5,345.5 1123.5,344.5 1123.5,343.5C 1124.85,345.515 1124.35,347.182 1122,348.5C 1119.65,347.182 1119.15,345.515 1120.5,343.5 Z"/></g>
<g><path style="opacity:1" fill="#f8fafc" d="M 1120.5,343.5 C 1121.5,343.5 1122.5,343.5 1123.5,343.5C 1123.5,344.5 1123.5,345.5 1123.5,346.5C 1122.5,346.5 1121.5,346.5 1120.5,346.5C 1120.5,345.5 1120.5,344.5 1120.5,343.5 Z"/></g>
<g><path style="opacity:1" fill="#729ecd" d="M 1126.5,343.5 C 1127.79,344.058 1128.62,345.058 1129,346.5C 1129.33,345.833 1129.67,345.167 1130,344.5C 1130.78,345.944 1130.61,347.277 1129.5,348.5C 1128.28,347.289 1127.11,347.289 1126,348.5C 1125.36,346.735 1125.53,345.068 1126.5,343.5 Z"/></g>
<g><path style="opacity:1" fill="#558fc5" d="M 1132.5,344.5 C 1133.16,345.718 1133.83,347.051 1134.5,348.5C 1136,344.626 1136.67,344.959 1136.5,349.5C 1132.07,350.083 1130.74,348.416 1132.5,344.5 Z"/></g>
<g><path style="opacity:1" fill="#96b9db" d="M 1151.5,346.5 C 1152.71,345.218 1154.04,345.218 1155.5,346.5C 1154.99,348.225 1154.32,349.892 1153.5,351.5C 1152.83,349.709 1152.16,348.042 1151.5,346.5 Z"/></g>
<g><path style="opacity:1" fill="#74a3cf" d="M 1198.5,344.5 C 1198.65,349.1 1197.99,349.433 1196.5,345.5C 1196.44,343.279 1197.11,342.946 1198.5,344.5 Z"/></g>
<g><path style="opacity:1" fill="#6197c8" d="M 1138.5,345.5 C 1139.46,345.953 1140.29,346.619 1141,347.5C 1142.19,345.441 1143.35,345.274 1144.5,347C 1144.14,348.225 1143.64,349.391 1143,350.5C 1142.67,349.833 1142.33,349.167 1142,348.5C 1141.26,349.641 1140.43,349.641 1139.5,348.5C 1138.81,349.025 1138.31,349.692 1138,350.5C 1137.36,348.735 1137.53,347.068 1138.5,345.5 Z"/></g>
<g><path style="opacity:1" fill="#5081be" d="M 1158.5,346.5 C 1159.83,346.5 1161.17,346.5 1162.5,346.5C 1162.5,347.5 1162.5,348.5 1162.5,349.5C 1160.88,349.36 1159.71,350.027 1159,351.5C 1158.51,349.866 1158.34,348.199 1158.5,346.5 Z"/></g>
<g><path style="opacity:1" fill="#a5c4e0" d="M 1169.5,347.5 C 1169.5,348.167 1169.5,348.833 1169.5,349.5C 1168.78,349.918 1168.28,350.584 1168,351.5C 1165.84,348.922 1164.68,348.922 1164.5,351.5C 1163.55,349.955 1163.21,348.288 1163.5,346.5C 1165.62,346.325 1167.62,346.659 1169.5,347.5 Z"/></g>
<g><path style="opacity:1" fill="#5c93c7" d="M 1174.5,347.5 C 1174.5,348.167 1174.5,348.833 1174.5,349.5C 1172.83,352.167 1171.17,352.167 1169.5,349.5C 1169.5,348.833 1169.5,348.167 1169.5,347.5C 1171.17,344.833 1172.83,344.833 1174.5,347.5 Z"/></g>
<g><path style="opacity:1" fill="#fdfdfe" d="M 1170.5,347.5 C 1173.55,347.494 1174.05,348.494 1172,350.5C 1170.96,349.756 1170.46,348.756 1170.5,347.5 Z"/></g>
<g><path style="opacity:1" fill="#669ccb" d="M 1147.5,345.5 C 1150.6,345.413 1150.93,345.913 1148.5,347C 1150.99,347.626 1150.99,348.459 1148.5,349.5C 1150.76,351.508 1150.26,351.841 1147,350.5C 1147.02,348.893 1147.19,347.226 1147.5,345.5 Z"/></g>
<g><path style="opacity:1" fill="#bad1e7" d="M 1178.5,348.5 C 1178.5,349.167 1178.5,349.833 1178.5,350.5C 1178.26,351.097 1177.76,351.43 1177,351.5C 1175.99,350.944 1175.16,350.278 1174.5,349.5C 1174.5,348.833 1174.5,348.167 1174.5,347.5C 1175.84,345.887 1177.5,345.387 1179.5,346C 1177.38,346.342 1177.05,347.175 1178.5,348.5 Z"/></g>
<g><path style="opacity:1" fill="#eff4f9" d="M 1142.5,360.5 C 1144.29,359.378 1146.29,359.211 1148.5,360C 1152.04,362.366 1155.7,364.533 1159.5,366.5C 1160.47,364.604 1160.8,362.604 1160.5,360.5C 1161.5,360.5 1162.5,360.5 1163.5,360.5C 1163.5,362.167 1163.5,363.833 1163.5,365.5C 1167.69,364.738 1171.36,362.904 1174.5,360C 1176.5,359.333 1178.5,359.333 1180.5,360C 1173.95,366.946 1165.95,369.946 1156.5,369C 1151.68,366.338 1147.02,363.505 1142.5,360.5 Z"/></g>
<g><path style="opacity:0.887" fill="#000000" d="M 481.5,378.5 C 484.167,378.5 486.833,378.5 489.5,378.5C 489.5,394.5 489.5,410.5 489.5,426.5C 487.167,426.5 484.833,426.5 482.5,426.5C 482.657,425.127 482.49,423.793 482,422.5C 477.117,427.204 471.283,428.704 464.5,427C 453.055,419.982 450.555,410.482 457,398.5C 464.46,391.375 472.46,390.708 481,396.5C 481.499,390.509 481.666,384.509 481.5,378.5 Z M 469.5,399.5 C 481.696,401.196 484.696,407.362 478.5,418C 470.829,422.532 465.329,420.698 462,412.5C 460.972,406.048 463.472,401.715 469.5,399.5 Z"/></g>
<g><path style="opacity:0.85" fill="#000000" d="M 552.5,378.5 C 555.5,378.5 558.5,378.5 561.5,378.5C 561.5,394.5 561.5,410.5 561.5,426.5C 558.5,426.5 555.5,426.5 552.5,426.5C 552.5,410.5 552.5,394.5 552.5,378.5 Z"/></g>
<g><path style="opacity:0.854" fill="#000000" d="M 755.5,380.5 C 759.513,380.795 763.346,381.795 767,383.5C 769.547,381.823 772.38,381.156 775.5,381.5C 776.224,388.276 773.224,391.11 766.5,390C 764.129,389.265 761.795,388.432 759.5,387.5C 757.149,389.229 754.482,389.896 751.5,389.5C 750.658,385.379 751.991,382.379 755.5,380.5 Z"/></g>
<g><path style="opacity:0.877" fill="#000000" d="M 413.5,392.5 C 428.346,391.68 435.013,398.68 433.5,413.5C 425.5,413.5 417.5,413.5 409.5,413.5C 409.872,417.043 411.872,419.21 415.5,420C 420.658,420.91 425.658,420.41 430.5,418.5C 431.647,420.765 431.814,423.098 431,425.5C 425.351,427.488 419.518,427.988 413.5,427C 403.311,423.468 399.145,416.302 401,405.5C 402.682,398.653 406.849,394.32 413.5,392.5 Z M 414.5,399.5 C 420.679,398.252 424.679,400.585 426.5,406.5C 420.5,407.833 414.5,407.833 408.5,406.5C 409.833,403.507 411.833,401.173 414.5,399.5 Z"/></g>
<g><path style="opacity:0.874" fill="#000000" d="M 506.5,392.5 C 512.852,391.715 518.686,393.048 524,396.5C 525.751,398.49 526.751,400.823 527,403.5C 527.499,409.157 527.666,414.824 527.5,420.5C 528.833,420.5 530.167,420.5 531.5,420.5C 532.578,427.065 529.911,429.232 523.5,427C 522.034,426.365 520.7,425.531 519.5,424.5C 511.358,429.139 503.858,428.472 497,422.5C 494.421,414.65 496.921,409.483 504.5,407C 509.533,406.829 514.533,406.329 519.5,405.5C 518.008,401.325 515.008,399.325 510.5,399.5C 506.644,399.87 502.978,400.87 499.5,402.5C 498.52,399.914 498.187,397.247 498.5,394.5C 501.373,394.198 504.039,393.531 506.5,392.5 Z M 511.5,411.5 C 514.127,412.092 516.794,412.425 519.5,412.5C 519.579,418.335 516.579,421.335 510.5,421.5C 505.651,420.855 503.984,418.355 505.5,414C 507.611,413.155 509.611,412.322 511.5,411.5 Z"/></g>
<g><path style="opacity:0.894" fill="#000000" d="M 584.5,392.5 C 591.208,391.274 596.708,393.274 601,398.5C 602.417,407.752 602.917,417.085 602.5,426.5C 599.833,426.5 597.167,426.5 594.5,426.5C 594.666,418.826 594.5,411.159 594,403.5C 588.756,398.115 583.756,398.448 579,404.5C 578.5,411.826 578.334,419.159 578.5,426.5C 575.833,426.5 573.167,426.5 570.5,426.5C 570.5,415.5 570.5,404.5 570.5,393.5C 572.833,393.5 575.167,393.5 577.5,393.5C 577.343,394.873 577.51,396.207 578,397.5C 579.965,395.45 582.132,393.783 584.5,392.5 Z"/></g>
<g><path style="opacity:0.879" fill="#000000" d="M 642.5,399.5 C 642.328,400.492 642.662,401.158 643.5,401.5C 647.196,420.302 639.53,428.802 620.5,427C 609.029,421.261 605.863,412.427 611,400.5C 621.156,390.244 631.656,389.91 642.5,399.5 Z M 622.5,400.5 C 635.25,400.088 639.083,405.754 634,417.5C 628.069,421.781 622.735,421.115 618,415.5C 615.473,409.235 616.973,404.235 622.5,400.5 Z"/></g>
<g><path style="opacity:0.874" fill="#000000" d="M 687.5,392.5 C 693.852,391.715 699.686,393.048 705,396.5C 706.751,398.49 707.751,400.823 708,403.5C 708.499,409.157 708.666,414.824 708.5,420.5C 709.833,420.5 711.167,420.5 712.5,420.5C 713.578,427.065 710.911,429.232 704.5,427C 703.034,426.365 701.7,425.531 700.5,424.5C 692.358,429.139 684.858,428.472 678,422.5C 675.421,414.65 677.921,409.483 685.5,407C 690.533,406.829 695.533,406.329 700.5,405.5C 699.008,401.325 696.008,399.325 691.5,399.5C 687.644,399.87 683.978,400.87 680.5,402.5C 679.52,399.914 679.187,397.247 679.5,394.5C 682.373,394.198 685.039,393.531 687.5,392.5 Z M 692.5,411.5 C 695.127,412.092 697.794,412.425 700.5,412.5C 700.579,418.335 697.579,421.335 691.5,421.5C 686.651,420.855 684.984,418.355 686.5,414C 688.611,413.155 690.611,412.322 692.5,411.5 Z"/></g>
<g><path style="opacity:0.864" fill="#000000" d="M 728.5,392.5 C 732.915,392.305 737.249,392.805 741.5,394C 743.662,396.522 743.995,399.355 742.5,402.5C 737.301,398.83 731.968,398.664 726.5,402C 720.42,409.678 721.753,415.678 730.5,420C 734.664,420.813 738.664,420.313 742.5,418.5C 743.647,420.765 743.814,423.098 743,425.5C 740.544,426.574 738.044,427.574 735.5,428.5C 737.422,429.711 739.255,431.044 741,432.5C 742.458,436.781 741.292,439.947 737.5,442C 733.442,442.767 729.442,442.6 725.5,441.5C 724.167,439.5 724.167,437.5 725.5,435.5C 728.976,436.978 732.309,436.812 735.5,435C 732.956,433.908 730.289,433.241 727.5,433C 728.167,431.333 728.833,429.667 729.5,428C 715.401,423.503 711.234,414.337 717,400.5C 720.15,396.689 723.983,394.023 728.5,392.5 Z"/></g>
<g><path style="opacity:0.874" fill="#000000" d="M 758.5,392.5 C 764.852,391.715 770.686,393.048 776,396.5C 777.751,398.49 778.751,400.823 779,403.5C 779.499,409.157 779.666,414.824 779.5,420.5C 780.833,420.5 782.167,420.5 783.5,420.5C 784.578,427.065 781.911,429.232 775.5,427C 774.034,426.365 772.7,425.531 771.5,424.5C 763.358,429.139 755.858,428.472 749,422.5C 746.421,414.65 748.921,409.483 756.5,407C 761.533,406.829 766.533,406.329 771.5,405.5C 770.008,401.325 767.008,399.325 762.5,399.5C 758.644,399.87 754.978,400.87 751.5,402.5C 750.52,399.914 750.187,397.247 750.5,394.5C 753.373,394.198 756.039,393.531 758.5,392.5 Z M 763.5,411.5 C 766.127,412.092 768.794,412.425 771.5,412.5C 771.579,418.335 768.579,421.335 762.5,421.5C 757.651,420.855 755.984,418.355 757.5,414C 759.611,413.155 761.611,412.322 763.5,411.5 Z"/></g>
<g><path style="opacity:0.879" fill="#000000" d="M 799.5,392.5 C 819.096,392.688 825.596,402.021 819,420.5C 813.245,427.037 806.078,429.203 797.5,427C 786.832,422.014 783.332,413.847 787,402.5C 789.918,397.396 794.085,394.063 799.5,392.5 Z M 799.5,400.5 C 812.25,400.088 816.083,405.754 811,417.5C 805.069,421.781 799.735,421.115 795,415.5C 792.473,409.235 793.973,404.235 799.5,400.5 Z"/></g>
<g><path style="opacity:0.875" fill="#000000" d="M 643.5,401.5 C 643.672,400.508 643.338,399.842 642.5,399.5C 642.528,397.418 641.861,395.584 640.5,394C 643.76,393.216 646.927,393.383 650,394.5C 653,401.833 656,409.167 659,416.5C 662.425,409.313 665.591,401.98 668.5,394.5C 671.5,393.167 674.5,393.167 677.5,394.5C 672.732,404.976 668.066,415.476 663.5,426C 660.446,426.821 657.446,426.655 654.5,425.5C 650.811,417.398 647.144,409.398 643.5,401.5 Z"/></g>
</svg>
